<svg class="main-svg" xmlns="http://www.w3.org/2000/svg" xmlns:xlink="http://www.w3.org/1999/xlink" width="800" height="800" style="" viewBox="0 0 800 800"><rect x="0" y="0" width="800" height="800" style="fill: rgb(176, 196, 222); fill-opacity: 1;"/><defs id="defs-1cfc5f"><g class="clips"/><g class="gradients"/></defs><g class="bglayer"/><g class="layer-below"><g class="imagelayer"/><g class="shapelayer"/></g><g class="cartesianlayer"/><g class="polarlayer"/><g class="ternarylayer"/><g class="geolayer"/><g class="funnelarealayer"/><g class="pielayer"><g class="trace" stroke-linejoin="round" style="opacity: 1;"><g class="slice"><path class="surface" d="M393.99678978339733,438.55419251280364a88.2,88.2 0 0 0 -62.43313660002988,49.17087680166669l-119.90452022494878,-55.91239602829453a220.5,220.5 0 0 1 156.0828415000747,-122.92719200416671Z" style="pointer-events: all; stroke-width: 0; fill: rgb(99, 110, 250); fill-opacity: 1; stroke: rgb(68, 68, 68); stroke-opacity: 1;"/><g class="slicetext"><text data-notex="1" class="slicetext" transform="translate(226.19988166053065,338.40605208637277)" text-anchor="middle" x="0" y="0" style="font-family: 'Open Sans', verdana, arial, sans-serif; font-size: 12px; fill: rgb(42, 63, 95); fill-opacity: 1; white-space: pre;"><tspan class="line" dy="0em" x="0" y="0">Jazz / Big Band</tspan><tspan class="line" dy="1.3em" x="0" y="0">14.9%</tspan></text></g></g><g class="slice"><path class="surface" d="M331.5636531833675,487.7250693144703a88.2,88.2 0 0 0 -5.762414413884574,58.13068105694571l-128.54814184577563,31.283625557124022a220.5,220.5 0 0 1 14.406036034711434,-145.32670264236427Z" style="pointer-events: all; stroke-width: 0; fill: rgb(239, 85, 59); fill-opacity: 1; stroke: rgb(68, 68, 68); stroke-opacity: 1;"/><g class="slicetext"><text data-notex="1" class="slicetext" transform="translate(106.43873165373475,499.7854001753708)" text-anchor="middle" x="0" y="0" style="font-family: 'Open Sans', verdana, arial, sans-serif; font-size: 12px; fill: rgb(42, 63, 95); fill-opacity: 1; white-space: pre;"><tspan class="line" dy="0em" x="0" y="0">Avant-Garde / Experimental</tspan><tspan class="line" dy="1.3em" x="0" y="0">10.7%</tspan></text></g></g><g class="slice"><path class="surface" d="M325.8012387694829,545.855750371416a88.2,88.2 0 0 0 28.277295751395254,46.09210472663786l-86.13219821868276,100.4217826470808a220.5,220.5 0 0 1 -70.69323937848813,-115.23026181659463Z" style="pointer-events: all; stroke-width: 0; fill: rgb(0, 204, 150); fill-opacity: 1; stroke: rgb(68, 68, 68); stroke-opacity: 1;"/><g class="slicetext"><text data-notex="1" class="slicetext" transform="translate(180.14868789543158,641.4597394732241)" text-anchor="middle" x="0" y="0" style="font-family: 'Open Sans', verdana, arial, sans-serif; font-size: 12px; fill: rgb(42, 63, 95); fill-opacity: 1; white-space: pre;"><tspan class="line" dy="0em" x="0" y="0">Surprise Me!</tspan><tspan class="line" dy="1.3em" x="0" y="0">9.92%</tspan></text></g></g><g class="slice"><path class="surface" d="M354.0785345208782,591.9478550980539a88.2,88.2 0 0 0 36.31857487122791,18.690384071088683l-31.65433591184091,128.4573587537138a220.5,220.5 0 0 1 -90.79643717806977,-46.7259601777217Z" style="pointer-events: all; stroke-width: 0; fill: rgb(171, 99, 250); fill-opacity: 1; stroke: rgb(68, 68, 68); stroke-opacity: 1;"/><g class="slicetext"><text data-notex="1" class="slicetext" transform="translate(275.1219582210455,730.647089132205)" text-anchor="middle" x="0" y="0" style="font-family: 'Open Sans', verdana, arial, sans-serif; font-size: 12px; fill: rgb(42, 63, 95); fill-opacity: 1; white-space: pre;"><tspan class="line" dy="0em" x="0" y="0">Electronic</tspan><tspan class="line" dy="1.3em" x="0" y="0">7.44%</tspan></text></g></g><g class="slice"><path class="surface" d="M390.3971093921061,610.6382391691426a88.2,88.2 0 0 0 27.26810268962302,2.3460216960105074l9.24781812259362,131.97639129772958a220.5,220.5 0 0 1 -68.17025672405755,-5.865054240026268Z" style="pointer-events: all; stroke-width: 0; fill: rgb(255, 161, 90); fill-opacity: 1; stroke: rgb(68, 68, 68); stroke-opacity: 1;"/><g class="slicetext"><text data-notex="1" class="slicetext" transform="translate(343.38417836734476,763.256464132205)" text-anchor="middle" x="0" y="0" style="font-family: 'Open Sans', verdana, arial, sans-serif; font-size: 12px; fill: rgb(42, 63, 95); fill-opacity: 1; white-space: pre;"><tspan class="line" dy="0em" x="0" y="0">Doom / Stoner</tspan><tspan class="line" dy="1.3em" x="0" y="0">4.96%</tspan></text></g><path class="textline" stroke-width="1.5" d="M392.59902211734476,744.6884226241323V766.561151632205h-8.15234375" fill="none" style="stroke: rgb(42, 63, 95); stroke-opacity: 1;"/></g><g class="slice"><path class="surface" d="M417.66521208172907,612.984260865153a88.2,88.2 0 0 0 22.381434271293372,-4.531705589742399l42.81996952953367,125.17883291311598a220.5,220.5 0 0 1 -55.95358567823342,11.329263974355996Z" style="pointer-events: all; stroke-width: 0; fill: rgb(25, 211, 243); fill-opacity: 1; stroke: rgb(68, 68, 68); stroke-opacity: 1;"/><g class="slicetext"><text data-notex="1" class="slicetext" transform="translate(492.86349429150664,765.0407162909013)" text-anchor="middle" x="0" y="0" style="font-family: 'Open Sans', verdana, arial, sans-serif; font-size: 12px; fill: rgb(42, 63, 95); fill-opacity: 1; white-space: pre;"><tspan class="line" dy="0em" x="0" y="0">Math Rock</tspan><tspan class="line" dy="1.3em" x="0" y="0">4.13%</tspan></text></g><path class="textline" stroke-width="1.5" d="M455.25802554150664,741.1145187179909V768.3454037909013h8.15234375" fill="none" style="stroke: rgb(42, 63, 95); stroke-opacity: 1;"/></g><g class="slice"><path class="surface" d="M440.0466463530224,608.4525552754106a88.2,88.2 0 0 0 20.467870006302345,-10.1257717235496l73.52177453898719,109.99017532779159a220.5,220.5 0 0 1 -51.16967501575586,25.314429308873997Z" style="pointer-events: all; stroke-width: 0; fill: rgb(255, 102, 146); fill-opacity: 1; stroke: rgb(68, 68, 68); stroke-opacity: 1;"/><g class="slicetext"><text data-notex="1" class="slicetext" transform="translate(559.8952692634043,732.4313412909013)" text-anchor="middle" x="0" y="0" style="font-family: 'Open Sans', verdana, arial, sans-serif; font-size: 12px; fill: rgb(42, 63, 95); fill-opacity: 1; white-space: pre;"><tspan class="line" dy="0em" x="0" y="0">Punk &amp; Grunge</tspan><tspan class="line" dy="1.3em" x="0" y="0">4.13%</tspan></text></g></g><g class="slice"><path class="surface" d="M460.5145163593248,598.326783551861a88.2,88.2 0 0 0 17.18228521952437,-15.041078093914734l99.29520236827373,87.42855818691949a220.5,220.5 0 0 1 -42.95571304881092,37.602695234786836Z" style="pointer-events: all; stroke-width: 0; fill: rgb(182, 232, 128); fill-opacity: 1; stroke: rgb(68, 68, 68); stroke-opacity: 1;"/><g class="slicetext"><text data-notex="1" class="slicetext" transform="translate(614.404208477288,696.8379993534569)" text-anchor="middle" x="0" y="0" style="font-family: 'Open Sans', verdana, arial, sans-serif; font-size: 12px; fill: rgb(42, 63, 95); fill-opacity: 1; white-space: pre;"><tspan class="line" dy="0em" x="0" y="0">Indie / Alternative</tspan><tspan class="line" dy="1.3em" x="0" y="0">4.13%</tspan></text></g></g><g class="slice"><path class="surface" d="M477.69680157884915,583.2857054579463a88.2,88.2 0 0 0 12.744922161479009,-18.94813749924165l118.41258561049224,59.00635193805701a220.5,220.5 0 0 1 -31.86230540369752,47.37034374810412Z" style="pointer-events: all; stroke-width: 0; fill: rgb(255, 151, 255); fill-opacity: 1; stroke: rgb(68, 68, 68); stroke-opacity: 1;"/><g class="slicetext"><text data-notex="1" class="slicetext" transform="translate(630.1150425035456,649.8387403880371)" text-anchor="middle" x="0" y="0" style="font-family: 'Open Sans', verdana, arial, sans-serif; font-size: 12px; fill: rgb(42, 63, 95); fill-opacity: 1; white-space: pre;"><tspan class="line" dy="0em" x="0" y="0">Post-Rock</tspan><tspan class="line" dy="1.3em" x="0" y="0">4.13%</tspan></text></g></g><g class="slice"><path class="surface" d="M490.44172374032814,564.3375679587047a88.2,88.2 0 0 0 6.4153538066261495,-17.12474930272975l128.03561632043147,33.319227983962385a220.5,220.5 0 0 1 -16.038384516565372,42.81187325682438Z" style="pointer-events: all; stroke-width: 0; fill: rgb(254, 203, 82); fill-opacity: 1; stroke: rgb(68, 68, 68); stroke-opacity: 1;"/><g class="slicetext"><text data-notex="1" class="slicetext" transform="translate(687.1696448191312,601.0567244657269)" text-anchor="middle" x="0" y="0" style="font-family: 'Open Sans', verdana, arial, sans-serif; font-size: 12px; fill: rgb(42, 63, 95); fill-opacity: 1; white-space: pre;"><tspan class="line" dy="0em" x="0" y="0">Thrash &amp; Death Metal</tspan><tspan class="line" dy="1.3em" x="0" y="0">3.31%</tspan></text></g></g><g class="slice"><path class="surface" d="M496.8570775469543,547.212818655975a88.2,88.2 0 0 0 2.7460255781789784,-18.079633477189812l132.15465468769995,6.199777768177673a220.5,220.5 0 0 1 -6.865063945447446,45.199083692974526Z" style="pointer-events: all; stroke-width: 0; fill: rgb(198, 202, 253); fill-opacity: 1; stroke: rgb(68, 68, 68); stroke-opacity: 1;"/><g class="slicetext"><text data-notex="1" class="slicetext" transform="translate(662.4021553377296,555.1738717089024)" text-anchor="middle" x="0" y="0" style="font-family: 'Open Sans', verdana, arial, sans-serif; font-size: 12px; fill: rgb(42, 63, 95); fill-opacity: 1; white-space: pre;"><tspan class="line" dy="0em" x="0" y="0">Alt Metal</tspan><tspan class="line" dy="1.3em" x="0" y="0">3.31%</tspan></text></g></g><g class="slice"><path class="surface" d="M499.6031031251333,529.1331851787851a88.2,88.2 0 0 0 -1.0413487392349567,-18.257310753471593l130.5926315788475,-21.186188362029714a220.5,220.5 0 0 1 2.6033718480873915,45.64327688367898Z" style="pointer-events: all; stroke-width: 0; fill: rgb(247, 167, 153); fill-opacity: 1; stroke: rgb(68, 68, 68); stroke-opacity: 1;"/><g class="slicetext"><text data-notex="1" class="slicetext" transform="translate(656.6226696069434,509.0861119609094)" text-anchor="middle" x="0" y="0" style="font-family: 'Open Sans', verdana, arial, sans-serif; font-size: 12px; fill: rgb(42, 63, 95); fill-opacity: 1; white-space: pre;"><tspan class="line" dy="0em" x="0" y="0">Rock</tspan><tspan class="line" dy="1.3em" x="0" y="0">3.31%</tspan></text></g></g><g class="slice"><path class="surface" d="M498.5617543858983,510.8758744253135a88.2,88.2 0 0 0 -4.783957579264427,-17.650143144613136l123.41669520995086,-47.66140307894942a220.5,220.5 0 0 1 11.959893948161067,44.12535786153284Z" style="pointer-events: all; stroke-width: 0; fill: rgb(51, 255, 201); fill-opacity: 1; stroke: rgb(68, 68, 68); stroke-opacity: 1;"/><g class="slicetext"><text data-notex="1" class="slicetext" transform="translate(701.5672156425767,462.8956760538994)" text-anchor="middle" x="0" y="0" style="font-family: 'Open Sans', verdana, arial, sans-serif; font-size: 12px; fill: rgb(42, 63, 95); fill-opacity: 1; white-space: pre;"><tspan class="line" dy="0em" x="0" y="0">Psychedelic / Space Rock</tspan><tspan class="line" dy="1.3em" x="0" y="0">3.31%</tspan></text></g></g><g class="slice"><path class="surface" d="M493.7777968066339,493.2257312807004a88.2,88.2 0 0 0 -8.320913752944888,-16.284231558829795l110.93532458053353,-72.0877504171941a220.5,220.5 0 0 1 20.802284382362217,40.710578897074484Z" style="pointer-events: all; stroke-width: 0; fill: rgb(224, 198, 253); fill-opacity: 1; stroke: rgb(68, 68, 68); stroke-opacity: 1;"/><g class="slicetext"><text data-notex="1" class="slicetext" transform="translate(650.9411368309502,417.9880132135552)" text-anchor="middle" x="0" y="0" style="font-family: 'Open Sans', verdana, arial, sans-serif; font-size: 12px; fill: rgb(42, 63, 95); fill-opacity: 1; white-space: pre;"><tspan class="line" dy="0em" x="0" y="0">Blues &amp; Soul</tspan><tspan class="line" dy="1.3em" x="0" y="0">3.31%</tspan></text></g></g><g class="slice"><path class="surface" d="M485.456883053689,476.94149972187057a88.2,88.2 0 0 0 -11.500170663745132,-14.218293774228734l93.68506858491584,-93.4151910785372a220.5,220.5 0 0 1 28.75042665936283,35.54573443557183Z" style="pointer-events: all; stroke-width: 0; fill: rgb(255, 219, 192); fill-opacity: 1; stroke: rgb(68, 68, 68); stroke-opacity: 1;"/><g class="slicetext"><text data-notex="1" class="slicetext" transform="translate(607.9211878216254,376.5808834654149)" text-anchor="middle" x="0" y="0" style="font-family: 'Open Sans', verdana, arial, sans-serif; font-size: 12px; fill: rgb(42, 63, 95); fill-opacity: 1; white-space: pre;"><tspan class="line" dy="0em" x="0" y="0">Funk</tspan><tspan class="line" dy="1.3em" x="0" y="0">3.31%</tspan></text></g></g><g class="slice"><path class="surface" d="M473.9567123899439,462.7232059476419a88.2,88.2 0 0 0 -6.792610354490364,-6.13919636352797l83.4961530531803,-102.62398562382916a220.5,220.5 0 0 1 16.98152588622591,15.347990908819924Z" style="pointer-events: all; stroke-width: 0; fill: rgb(122, 230, 248); fill-opacity: 1; stroke: rgb(68, 68, 68); stroke-opacity: 1;"/><g class="slicetext"><text data-notex="1" class="slicetext" transform="translate(635.080775926027,343.9715084654149)" text-anchor="middle" x="0" y="0" style="font-family: 'Open Sans', verdana, arial, sans-serif; font-size: 12px; fill: rgb(42, 63, 95); fill-opacity: 1; white-space: pre;"><tspan class="line" dy="0em" x="0" y="0">Virtuoso Instrumentalist</tspan><tspan class="line" dy="1.3em" x="0" y="0">1.65%</tspan></text></g><path class="textline" stroke-width="1.5" d="M559.350307176027,361.41351929956284V347.2761959654149h8.15234375" fill="none" style="stroke: rgb(42, 63, 95); stroke-opacity: 1;"/></g><g class="slice"><path class="surface" d="M467.16410203545354,456.5840095841139a88.2,88.2 0 0 0 -7.39244812892444,-5.4019439166883565l72.40748085979362,-110.7269014988617a220.5,220.5 0 0 1 18.4811203223111,13.50485979172089Z" style="pointer-events: all; stroke-width: 0; fill: rgb(255, 204, 219); fill-opacity: 1; stroke: rgb(68, 68, 68); stroke-opacity: 1;"/><g class="slicetext"><text data-notex="1" class="slicetext" transform="translate(637.7786453067273,311.3621334654149)" text-anchor="middle" x="0" y="0" style="font-family: 'Open Sans', verdana, arial, sans-serif; font-size: 12px; fill: rgb(42, 63, 95); fill-opacity: 1; white-space: pre;"><tspan class="line" dy="0em" x="0" y="0">Post-Hardcore / Emo / Screamo</tspan><tspan class="line" dy="1.3em" x="0" y="0">1.65%</tspan></text></g><path class="textline" stroke-width="1.5" d="M541.5950515567273,346.96762215694457V314.6668209654149h8.15234375" fill="none" style="stroke: rgb(42, 63, 95); stroke-opacity: 1;"/></g><g class="slice"><path class="surface" d="M459.7716539065291,451.18206566742555a88.2,88.2 0 0 0 -7.912624694947221,-4.60647998528118l60.5385438173728,-117.63662147678346a220.5,220.5 0 0 1 19.78156173736805,11.51619996320295Z" style="pointer-events: all; stroke-width: 0; fill: rgb(232, 248, 214); fill-opacity: 1; stroke: rgb(68, 68, 68); stroke-opacity: 1;"/><g class="slicetext"><text data-notex="1" class="slicetext" transform="translate(571.7308571143751,278.7527584654149)" text-anchor="middle" x="0" y="0" style="font-family: 'Open Sans', verdana, arial, sans-serif; font-size: 12px; fill: rgb(42, 63, 95); fill-opacity: 1; white-space: pre;"><tspan class="line" dy="0em" x="0" y="0">Rap &amp; Hip Hop</tspan><tspan class="line" dy="1.3em" x="0" y="0">1.65%</tspan></text></g><path class="textline" stroke-width="1.5" d="M522.4378883643751,334.44020643049214V282.0574459654149h8.15234375" fill="none" style="stroke: rgb(42, 63, 95); stroke-opacity: 1;"/></g><g class="slice"><path class="surface" d="M451.85902921158186,446.5755856821444a88.2,88.2 0 0 0 -8.34753461669851,-3.76137650879366l48.01724189232503,-123.27868623997395a220.5,220.5 0 0 1 20.868836541746276,9.40344127198415Z" style="pointer-events: all; stroke-width: 0; fill: rgb(255, 253, 255); fill-opacity: 1; stroke: rgb(68, 68, 68); stroke-opacity: 1;"/><g class="slicetext"><text data-notex="1" class="slicetext" transform="translate(527.0657244251015,246.1433834654149)" text-anchor="middle" x="0" y="0" style="font-family: 'Open Sans', verdana, arial, sans-serif; font-size: 12px; fill: rgb(42, 63, 95); fill-opacity: 1; white-space: pre;"><tspan class="line" dy="0em" x="0" y="0">Metal</tspan><tspan class="line" dy="1.3em" x="0" y="0">1.65%</tspan></text></g><path class="textline" stroke-width="1.5" d="M502.08525567510156,323.96626786960235V249.4480709654149h8.15234375" fill="none" style="stroke: rgb(42, 63, 95); stroke-opacity: 1;"/></g><g class="slice"><path class="surface" d="M443.51149459488335,442.8142091733507a88.2,88.2 0 0 0 -8.692491293837993,-2.875740343708981l34.97850495156805,-127.59229675553742a220.5,220.5 0 0 1 21.73122823459498,7.1893508592724515Z" style="pointer-events: all; stroke-width: 0; fill: rgb(255, 233, 183); fill-opacity: 1; stroke: rgb(68, 68, 68); stroke-opacity: 1;"/><g class="slicetext"><text data-notex="1" class="slicetext" transform="translate(505.7369427246379,213.5340084654149)" text-anchor="middle" x="0" y="0" style="font-family: 'Open Sans', verdana, arial, sans-serif; font-size: 12px; fill: rgb(42, 63, 95); fill-opacity: 1; white-space: pre;"><tspan class="line" dy="0em" x="0" y="0">Djent</tspan><tspan class="line" dy="1.3em" x="0" y="0">1.65%</tspan></text></g><path class="textline" stroke-width="1.5" d="M480.7564739746379,315.6586739016868V216.8386959654149h8.15234375" fill="none" style="stroke: rgb(42, 63, 95); stroke-opacity: 1;"/></g><g class="slice"><path class="surface" d="M434.81900330104537,439.9384688296417a88.2,88.2 0 0 0 -8.943777464469305,-1.9591151277900396l21.562838754864092,-130.53096944722247a220.5,220.5 0 0 1 22.35944366117326,4.897787819475099Z" style="pointer-events: all; stroke-width: 0; fill: rgb(8, 25, 239); fill-opacity: 1; stroke: rgb(68, 68, 68); stroke-opacity: 1;"/><g class="slicetext"><text data-notex="1" class="slicetext" transform="translate(519.0837265052021,180.9246334654149)" text-anchor="middle" x="0" y="0" style="font-family: 'Open Sans', verdana, arial, sans-serif; font-size: 12px; fill: rgb(42, 63, 95); fill-opacity: 1; white-space: pre;"><tspan class="line" dy="0em" x="0" y="0">World / Traditional</tspan><tspan class="line" dy="1.3em" x="0" y="0">1.65%</tspan></text></g><path class="textline" stroke-width="1.5" d="M458.6813827552021,309.6069473699137V184.2293209654149h8.15234375" fill="none" style="stroke: rgb(42, 63, 95); stroke-opacity: 1;"/></g><g class="slice"><path class="surface" d="M425.8752258365761,437.97935370185166a88.2,88.2 0 0 0 -9.098685262448457,-1.0213784375969681l7.914810861191405,-132.06303710361794a220.5,220.5 0 0 1 22.746713156121142,2.55344609399242Z" style="pointer-events: all; stroke-width: 0; fill: rgb(181, 39, 15); fill-opacity: 1; stroke: rgb(68, 68, 68); stroke-opacity: 1;"/><g class="slicetext"><text data-notex="1" class="slicetext" transform="translate(502.4845825093049,148.3152584654149)" text-anchor="middle" x="0" y="0" style="font-family: 'Open Sans', verdana, arial, sans-serif; font-size: 12px; fill: rgb(42, 63, 95); fill-opacity: 1; white-space: pre;"><tspan class="line" dy="0em" x="0" y="0">Classical / Orchestral</tspan><tspan class="line" dy="1.3em" x="0" y="0">1.65%</tspan></text></g><path class="textline" stroke-width="1.5" d="M436.0978637593049,305.8763018327806V151.6199459654149h8.15234375" fill="none" style="stroke: rgb(42, 63, 95); stroke-opacity: 1;"/></g><g class="slice"><path class="surface" d="M416.7765405741276,436.9579752642547a88.2,88.2 0 0 0 -9.155545397418026,-0.07263534747179393l-5.818507234935631,-132.1719901248256a220.5,220.5 0 0 1 22.888863493545063,0.1815883686794848Z" style="pointer-events: all; stroke-width: 0; fill: rgb(0, 102, 75); fill-opacity: 1; stroke: rgb(68, 68, 68); stroke-opacity: 1;"/><g class="slicetext"><text data-notex="1" class="slicetext" transform="translate(480.9641213100634,115.7058834654149)" text-anchor="middle" x="0" y="0" style="font-family: 'Open Sans', verdana, arial, sans-serif; font-size: 12px; fill: rgb(42, 63, 95); fill-opacity: 1; white-space: pre;"><tspan class="line" dy="0em" x="0" y="0">Metalcore / Hardcore</tspan><tspan class="line" dy="1.3em" x="0" y="0">1.65%</tspan></text></g><path class="textline" stroke-width="1.5" d="M413.2492775600634,304.506938821155V119.0105709654149h8.15234375" fill="none" style="stroke: rgb(42, 63, 95); stroke-opacity: 1;"/></g><g class="slice"><path class="surface" d="M407.6209951767096,436.8853399167829a88.2,88.2 0 0 0 -4.568258736111099,0.320105933440766l-12.67089533910228,-131.69183122466447a220.5,220.5 0 0 1 11.420646840277747,-0.8002648336019149Z" style="pointer-events: all; stroke-width: 0; fill: rgb(118, 8, 239); fill-opacity: 1; stroke: rgb(68, 68, 68); stroke-opacity: 1;"/><g class="slicetext"><text data-notex="1" class="slicetext" transform="translate(360.6690010456782,223.4818398103825)" text-anchor="middle" x="0" y="0" style="font-family: 'Open Sans', verdana, arial, sans-serif; font-size: 12px; fill: rgb(42, 63, 95); fill-opacity: 1; white-space: pre;"><tspan class="line" dy="0em" x="0" y="0">Bluegrass</tspan><tspan class="line" dy="1.3em" x="0" y="0">0.826%</tspan></text></g><path class="textline" stroke-width="1.5" d="M396.0869697956782,305.03934783711736V226.7865273103825h-8.15234375" fill="none" style="stroke: rgb(42, 63, 95); stroke-opacity: 1;"/></g><g class="slice"><path class="surface" d="M403.0527364405985,437.20544585022367a88.2,88.2 0 0 0 -4.545486407011265,0.5567845295580355l-19.48912494961918,-130.8566544303274a220.5,220.5 0 0 1 11.363716017528162,-1.3919613238950888Z" style="pointer-events: all; stroke-width: 0; fill: rgb(243, 105, 0); fill-opacity: 1; stroke: rgb(68, 68, 68); stroke-opacity: 1;"/><g class="slicetext"><text data-notex="1" class="slicetext" transform="translate(349.86672876186367,256.0912148103825)" text-anchor="middle" x="0" y="0" style="font-family: 'Open Sans', verdana, arial, sans-serif; font-size: 12px; fill: rgb(42, 63, 95); fill-opacity: 1; white-space: pre;"><tspan class="line" dy="0em" x="0" y="0">Jam Band</tspan><tspan class="line" dy="1.3em" x="0" y="0">0.826%</tspan></text></g><path class="textline" stroke-width="1.5" d="M384.69094751186367,306.1358304685567V259.3959023103825h-8.15234375" fill="none" style="stroke: rgb(42, 63, 95); stroke-opacity: 1;"/></g><g class="slice"><path class="surface" d="M398.50725003358724,437.7622303797817a88.2,88.2 0 0 0 -4.510460250189431,0.7919621330218206l-26.254815324903323,-129.66871123079468a220.5,220.5 0 0 1 11.276150625473576,-1.9799053325545515Z" style="pointer-events: all; stroke-width: 0; fill: rgb(8, 136, 158); fill-opacity: 1; stroke: rgb(68, 68, 68); stroke-opacity: 1;"/><g class="slicetext"><text data-notex="1" class="slicetext" transform="translate(312.48047894377976,288.7005898103825)" text-anchor="middle" x="0" y="0" style="font-family: 'Open Sans', verdana, arial, sans-serif; font-size: 12px; fill: rgb(42, 63, 95); fill-opacity: 1; white-space: pre;"><tspan class="line" dy="0em" x="0" y="0">Pop / Baroque Pop</tspan><tspan class="line" dy="1.3em" x="0" y="0">0.826%</tspan></text></g></g></g></g><g class="treemaplayer"/><g class="sunburstlayer"/><g class="glimages"/><defs id="topdefs-1cfc5f"><g class="clips"/></defs><g class="layer-above"><g class="imagelayer"/><g class="shapelayer"/></g><g class="infolayer"><g class="g-gtitle"><text class="gtitle" x="40" y="150" text-anchor="start" dy="0em" style="font-family: 'Open Sans', verdana, arial, sans-serif; font-size: 17px; fill: rgb(42, 63, 95); opacity: 1; font-weight: normal; white-space: pre;">u/MysteriousGear Top Genres</text></g></g></svg>