<svg class="main-svg" xmlns="http://www.w3.org/2000/svg" xmlns:xlink="http://www.w3.org/1999/xlink" width="800" height="800" style="" viewBox="0 0 800 800"><rect x="0" y="0" width="800" height="800" style="fill: rgb(176, 196, 222); fill-opacity: 1;"/><defs id="defs-651647"><g class="clips"/><g class="gradients"/></defs><g class="bglayer"/><g class="layer-below"><g class="imagelayer"/><g class="shapelayer"/></g><g class="cartesianlayer"/><g class="polarlayer"/><g class="ternarylayer"/><g class="geolayer"/><g class="funnelarealayer"/><g class="pielayer"><g class="trace" stroke-linejoin="round" style="opacity: 1;"><g class="slice"><path class="surface" d="M351.6865465749537,438.93257196332684a90,90 0 0 0 -55.25424740825218,48.03178448001024l-122.35155124994775,-57.05346533499442a225,225 0 0 1 138.13561852063046,-120.07946120002559Z" style="pointer-events: all; stroke-width: 0; fill: rgb(99, 110, 250); fill-opacity: 1; stroke: rgb(68, 68, 68); stroke-opacity: 1;"/><g class="slicetext"><text data-notex="1" class="slicetext" transform="translate(186.98437472713584,342.5987262400964)" text-anchor="middle" x="0" y="0" style="font-family: 'Open Sans', verdana, arial, sans-serif; font-size: 12px; fill: rgb(42, 63, 95); fill-opacity: 1; white-space: pre;"><tspan class="line" dy="0em" x="0" y="0">Surprise Me!</tspan><tspan class="line" dy="1.3em" x="0" y="0">13.3%</tspan></text></g></g><g class="slice"><path class="surface" d="M296.4322991667015,486.96435644333707a90,90 0 0 0 -1.2777359774211392,73.20144512069758l-124.26815521607945,52.748702346051935a225,225 0 0 1 3.1943399435528477,-183.00361280174394Z" style="pointer-events: all; stroke-width: 0; fill: rgb(239, 85, 59); fill-opacity: 1; stroke: rgb(68, 68, 68); stroke-opacity: 1;"/><g class="slicetext"><text data-notex="1" class="slicetext" transform="translate(128.05379983981197,517.7635548640676)" text-anchor="middle" x="0" y="0" style="font-family: 'Open Sans', verdana, arial, sans-serif; font-size: 12px; fill: rgb(42, 63, 95); fill-opacity: 1; white-space: pre;"><tspan class="line" dy="0em" x="0" y="0">Funk</tspan><tspan class="line" dy="1.3em" x="0" y="0">13.3%</tspan></text></g></g><g class="slice"><path class="surface" d="M295.15456318928034,560.1658015640346a90,90 0 0 0 53.54430290957555,49.93087023990389l-43.95170085171614,127.64500770590776a225,225 0 0 1 -133.86075727393887,-124.82717559975971Z" style="pointer-events: all; stroke-width: 0; fill: rgb(0, 204, 150); fill-opacity: 1; stroke: rgb(68, 68, 68); stroke-opacity: 1;"/><g class="slicetext"><text data-notex="1" class="slicetext" transform="translate(189.0699002359378,694.9709178670633)" text-anchor="middle" x="0" y="0" style="font-family: 'Open Sans', verdana, arial, sans-serif; font-size: 12px; fill: rgb(42, 63, 95); fill-opacity: 1; white-space: pre;"><tspan class="line" dy="0em" x="0" y="0">Electronic</tspan><tspan class="line" dy="1.3em" x="0" y="0">13.3%</tspan></text></g></g><g class="slice"><path class="surface" d="M348.6988660988559,610.0966718039385a90,90 0 0 0 72.93399972331446,-6.380898161392906l65.44929873325555,118.0736604638184a225,225 0 0 1 -182.33499930828614,15.952245403482266Z" style="pointer-events: all; stroke-width: 0; fill: rgb(171, 99, 250); fill-opacity: 1; stroke: rgb(68, 68, 68); stroke-opacity: 1;"/><g class="slicetext"><text data-notex="1" class="slicetext" transform="translate(455.27801086822313,762.0199546508634)" text-anchor="middle" x="0" y="0" style="font-family: 'Open Sans', verdana, arial, sans-serif; font-size: 12px; fill: rgb(42, 63, 95); fill-opacity: 1; white-space: pre;"><tspan class="line" dy="0em" x="0" y="0">Indie / Alternative</tspan><tspan class="line" dy="1.3em" x="0" y="0">13.3%</tspan></text></g></g><g class="slice"><path class="surface" d="M421.63286582217034,603.7157736425456a90,90 0 0 0 44.0604400085008,-58.470178751597736l131.53995874600673,30.36839233642181a225,225 0 0 1 -110.15110002125199,146.17544687899434Z" style="pointer-events: all; stroke-width: 0; fill: rgb(255, 161, 90); fill-opacity: 1; stroke: rgb(68, 68, 68); stroke-opacity: 1;"/><g class="slicetext"><text data-notex="1" class="slicetext" transform="translate(607.5015835106409,663.0089459842496)" text-anchor="middle" x="0" y="0" style="font-family: 'Open Sans', verdana, arial, sans-serif; font-size: 12px; fill: rgb(42, 63, 95); fill-opacity: 1; white-space: pre;"><tspan class="line" dy="0em" x="0" y="0">Jazz / Big Band</tspan><tspan class="line" dy="1.3em" x="0" y="0">13.3%</tspan></text></g></g><g class="slice"><path class="surface" d="M465.6933058306712,545.2455948909479a90,90 0 0 0 -13.969621844661845,-71.86747416254195l110.58552597901397,-77.43281890739112a225,225 0 0 1 34.92405461165461,179.66868540635488Z" style="pointer-events: all; stroke-width: 0; fill: rgb(25, 211, 243); fill-opacity: 1; stroke: rgb(68, 68, 68); stroke-opacity: 1;"/><g class="slicetext"><text data-notex="1" class="slicetext" transform="translate(648.1590850257244,478.16966629215597)" text-anchor="middle" x="0" y="0" style="font-family: 'Open Sans', verdana, arial, sans-serif; font-size: 12px; fill: rgb(42, 63, 95); fill-opacity: 1; white-space: pre;"><tspan class="line" dy="0em" x="0" y="0">Rap &amp; Hip Hop</tspan><tspan class="line" dy="1.3em" x="0" y="0">13.3%</tspan></text></g></g><g class="slice"><path class="surface" d="M451.7236839860093,473.3781207284059a90,90 0 0 0 -27.37025724410441,-25.523177791596005l69.53014011285735,-115.71758559478512a225,225 0 0 1 68.42564311026102,63.80794447899001Z" style="pointer-events: all; stroke-width: 0; fill: rgb(255, 102, 146); fill-opacity: 1; stroke: rgb(68, 68, 68); stroke-opacity: 1;"/><g class="slicetext"><text data-notex="1" class="slicetext" transform="translate(569.0550997640622,348.41970713293676)" text-anchor="middle" x="0" y="0" style="font-family: 'Open Sans', verdana, arial, sans-serif; font-size: 12px; fill: rgb(42, 63, 95); fill-opacity: 1; white-space: pre;"><tspan class="line" dy="0em" x="0" y="0">Math Rock</tspan><tspan class="line" dy="1.3em" x="0" y="0">6.67%</tspan></text></g></g><g class="slice"><path class="surface" d="M424.3534267419049,447.8549429368099a90,90 0 0 0 -35.38518583544165,-12.184096584528902l16.452361359694876,-133.9937304715785a225,225 0 0 1 88.46296458860414,30.460241461322255Z" style="pointer-events: all; stroke-width: 0; fill: rgb(182, 232, 128); fill-opacity: 1; stroke: rgb(68, 68, 68); stroke-opacity: 1;"/><g class="slicetext"><text data-notex="1" class="slicetext" transform="translate(488.7958035028603,294.37715469805516)" text-anchor="middle" x="0" y="0" style="font-family: 'Open Sans', verdana, arial, sans-serif; font-size: 12px; fill: rgb(42, 63, 95); fill-opacity: 1; white-space: pre;"><tspan class="line" dy="0em" x="0" y="0">New Wave</tspan><tspan class="line" dy="1.3em" x="0" y="0">6.67%</tspan></text></g></g><g class="slice"><path class="surface" d="M388.9682409064633,435.670846352281a90,90 0 0 0 -37.281694331509634,3.2617256110458244l-39.470180137569564,-129.10114205500975a225,225 0 0 1 93.20423582877407,-8.15431402761456Z" style="pointer-events: all; stroke-width: 0; fill: rgb(255, 151, 255); fill-opacity: 1; stroke: rgb(68, 68, 68); stroke-opacity: 1;"/><g class="slicetext"><text data-notex="1" class="slicetext" transform="translate(281.1438641317768,281.3706703491366)" text-anchor="middle" x="0" y="0" style="font-family: 'Open Sans', verdana, arial, sans-serif; font-size: 12px; fill: rgb(42, 63, 95); fill-opacity: 1; white-space: pre;"><tspan class="line" dy="0em" x="0" y="0">Psychedelic / Space Rock</tspan><tspan class="line" dy="1.3em" x="0" y="0">6.67%</tspan></text></g></g></g></g><g class="treemaplayer"/><g class="sunburstlayer"/><g class="glimages"/><defs id="topdefs-651647"><g class="clips"/></defs><g class="layer-above"><g class="imagelayer"/><g class="shapelayer"/></g><g class="infolayer"><g class="g-gtitle"><text class="gtitle" x="40" y="150" text-anchor="start" dy="0em" style="font-family: 'Open Sans', verdana, arial, sans-serif; font-size: 17px; fill: rgb(42, 63, 95); opacity: 1; font-weight: normal; white-space: pre;">u/yyogo Top Genres</text></g></g></svg>