<svg class="main-svg" xmlns="http://www.w3.org/2000/svg" xmlns:xlink="http://www.w3.org/1999/xlink" width="800" height="800" style="" viewBox="0 0 800 800"><rect x="0" y="0" width="800" height="800" style="fill: rgb(176, 196, 222); fill-opacity: 1;"/><defs id="defs-252fc6"><g class="clips"/><g class="gradients"/></defs><g class="bglayer"/><g class="layer-below"><g class="imagelayer"/><g class="shapelayer"/></g><g class="cartesianlayer"/><g class="polarlayer"/><g class="ternarylayer"/><g class="geolayer"/><g class="funnelarealayer"/><g class="pielayer"><g class="trace" stroke-linejoin="round" style="opacity: 1;"><g class="slice"><path class="surface" d="M328.00929999744994,449.6963916543818a88,88 0 0 0 -43.764385256675176,43.11320131243668l-119.63262788883779,-55.78561054977232a220,220 0 0 1 109.41096314168793,-107.7830032810917Z" style="pointer-events: all; stroke-width: 0; fill: rgb(99, 110, 250); fill-opacity: 1; stroke: rgb(68, 68, 68); stroke-opacity: 1;"/><g class="slicetext"><text data-notex="1" class="slicetext" transform="translate(166.20451494107724,361.69566212480225)" text-anchor="middle" x="0" y="0" style="font-family: 'Open Sans', verdana, arial, sans-serif; font-size: 12px; fill: rgb(42, 63, 95); fill-opacity: 1; white-space: pre;"><tspan class="line" dy="0em" x="0" y="0">Surprise Me!</tspan><tspan class="line" dy="1.3em" x="0" y="0">11.3%</tspan></text></g></g><g class="slice"><path class="surface" d="M284.2449147407748,492.80959296681846a88,88 0 0 0 -7.236790342444909,50.472484404720696l-130.48781340250517,19.923116057308714a220,220 0 0 1 18.09197585611227,-126.18121101180174Z" style="pointer-events: all; stroke-width: 0; fill: rgb(239, 85, 59); fill-opacity: 1; stroke: rgb(68, 68, 68); stroke-opacity: 1;"/><g class="slicetext"><text data-notex="1" class="slicetext" transform="translate(121.24663980712506,495.14239788112064)" text-anchor="middle" x="0" y="0" style="font-family: 'Open Sans', verdana, arial, sans-serif; font-size: 12px; fill: rgb(42, 63, 95); fill-opacity: 1; white-space: pre;"><tspan class="line" dy="0em" x="0" y="0">Rock</tspan><tspan class="line" dy="1.3em" x="0" y="0">9.36%</tspan></text></g></g><g class="slice"><path class="surface" d="M277.00812439832987,543.2820773715391a88,88 0 0 0 19.73162480255237,43.46348335738293l-100.8903761986766,85.1183410933831a220,220 0 0 1 -49.32906200638092,-108.65870839345732Z" style="pointer-events: all; stroke-width: 0; fill: rgb(0, 204, 150); fill-opacity: 1; stroke: rgb(68, 68, 68); stroke-opacity: 1;"/><g class="slicetext"><text data-notex="1" class="slicetext" transform="translate(106.00888260666838,620.4245101253924)" text-anchor="middle" x="0" y="0" style="font-family: 'Open Sans', verdana, arial, sans-serif; font-size: 12px; fill: rgb(42, 63, 95); fill-opacity: 1; white-space: pre;"><tspan class="line" dy="0em" x="0" y="0">Indie / Alternative</tspan><tspan class="line" dy="1.3em" x="0" y="0">8.74%</tspan></text></g></g><g class="slice"><path class="surface" d="M296.7397492008823,586.7455607289221a88,88 0 0 0 37.91633683691328,26.217893354058006l-44.01587094330669,124.4451811244701a220,220 0 0 1 -94.7908420922832,-65.54473338514501Z" style="pointer-events: all; stroke-width: 0; fill: rgb(171, 99, 250); fill-opacity: 1; stroke: rgb(68, 68, 68); stroke-opacity: 1;"/><g class="slicetext"><text data-notex="1" class="slicetext" transform="translate(203.3962009592085,718.6794096725483)" text-anchor="middle" x="0" y="0" style="font-family: 'Open Sans', verdana, arial, sans-serif; font-size: 12px; fill: rgb(42, 63, 95); fill-opacity: 1; white-space: pre;"><tspan class="line" dy="0em" x="0" y="0">Electronic</tspan><tspan class="line" dy="1.3em" x="0" y="0">8.44%</tspan></text></g></g><g class="slice"><path class="surface" d="M334.65608603779555,612.9634540829801a88,88 0 0 0 38.420586620112594,4.567192055736302l13.615008986862193,131.29596920807455a220,220 0 0 1 -96.05146655028148,-11.417980139340756Z" style="pointer-events: all; stroke-width: 0; fill: rgb(255, 161, 90); fill-opacity: 1; stroke: rgb(68, 68, 68); stroke-opacity: 1;"/><g class="slicetext"><text data-notex="1" class="slicetext" transform="translate(252.393938947472,761.2346906663297)" text-anchor="middle" x="0" y="0" style="font-family: 'Open Sans', verdana, arial, sans-serif; font-size: 12px; fill: rgb(42, 63, 95); fill-opacity: 1; white-space: pre;"><tspan class="line" dy="0em" x="0" y="0">Avant-Garde / Experimental</tspan><tspan class="line" dy="1.3em" x="0" y="0">7.06%</tspan></text></g></g><g class="slice"><path class="surface" d="M373.07667265790815,617.5306461387164a88,88 0 0 0 35.93938611995028,-11.916133959450168l67.5240881667876,113.4217682688993a220,220 0 0 1 -89.84846529987568,29.790334898625417Z" style="pointer-events: all; stroke-width: 0; fill: rgb(25, 211, 243); fill-opacity: 1; stroke: rgb(68, 68, 68); stroke-opacity: 1;"/><g class="slicetext"><text data-notex="1" class="slicetext" transform="translate(483.0457072026302,750.2061311909268)" text-anchor="middle" x="0" y="0" style="font-family: 'Open Sans', verdana, arial, sans-serif; font-size: 12px; fill: rgb(42, 63, 95); fill-opacity: 1; white-space: pre;"><tspan class="line" dy="0em" x="0" y="0">Jazz / Big Band</tspan><tspan class="line" dy="1.3em" x="0" y="0">6.9%</tspan></text></g></g><g class="slice"><path class="surface" d="M409.0160587778584,605.6145121792662a88,88 0 0 0 22.486616537183025,-19.15754781425542l101.25401297256214,84.68544654751618a220,220 0 0 1 -56.216541342957555,47.893869535638544Z" style="pointer-events: all; stroke-width: 0; fill: rgb(255, 102, 146); fill-opacity: 1; stroke: rgb(68, 68, 68); stroke-opacity: 1;"/><g class="slicetext"><text data-notex="1" class="slicetext" transform="translate(583.9185615309073,703.6079113270567)" text-anchor="middle" x="0" y="0" style="font-family: 'Open Sans', verdana, arial, sans-serif; font-size: 12px; fill: rgb(42, 63, 95); fill-opacity: 1; white-space: pre;"><tspan class="line" dy="0em" x="0" y="0">Psychedelic / Space Rock</tspan><tspan class="line" dy="1.3em" x="0" y="0">5.37%</tspan></text></g></g><g class="slice"><path class="surface" d="M431.5026753150414,586.4569643650108a88,88 0 0 0 11.144043900330121,-16.976671095348905l117.97007882305732,59.22043990449282a220,220 0 0 1 -27.860109750825302,42.44167773837226Z" style="pointer-events: all; stroke-width: 0; fill: rgb(182, 232, 128); fill-opacity: 1; stroke: rgb(68, 68, 68); stroke-opacity: 1;"/><g class="slicetext"><text data-notex="1" class="slicetext" transform="translate(580.8174603930368,652.333240938944)" text-anchor="middle" x="0" y="0" style="font-family: 'Open Sans', verdana, arial, sans-serif; font-size: 12px; fill: rgb(42, 63, 95); fill-opacity: 1; white-space: pre;"><tspan class="line" dy="0em" x="0" y="0">Alt Metal</tspan><tspan class="line" dy="1.3em" x="0" y="0">3.68%</tspan></text></g></g><g class="slice"><path class="surface" d="M442.64671921537155,569.4802932696618a88,88 0 0 0 6.330317197333762,-16.613214695568598l127.46555461905795,34.300617861139926a220,220 0 0 1 -15.825792993334403,41.53303673892149Z" style="pointer-events: all; stroke-width: 0; fill: rgb(255, 151, 255); fill-opacity: 1; stroke: rgb(68, 68, 68); stroke-opacity: 1;"/><g class="slicetext"><text data-notex="1" class="slicetext" transform="translate(607.1867038659727,607.0973843840999)" text-anchor="middle" x="0" y="0" style="font-family: 'Open Sans', verdana, arial, sans-serif; font-size: 12px; fill: rgb(42, 63, 95); fill-opacity: 1; white-space: pre;"><tspan class="line" dy="0em" x="0" y="0">Math Rock</tspan><tspan class="line" dy="1.3em" x="0" y="0">3.22%</tspan></text></g></g><g class="slice"><path class="surface" d="M448.97703641270533,552.8670785740933a88,88 0 0 0 2.806623611378814,-16.700310151652296l131.67549003612618,9.250152633661488a220,220 0 0 1 -7.016559028447034,41.75077537913074Z" style="pointer-events: all; stroke-width: 0; fill: rgb(254, 203, 82); fill-opacity: 1; stroke: rgb(68, 68, 68); stroke-opacity: 1;"/><g class="slicetext"><text data-notex="1" class="slicetext" transform="translate(630.2504768034416,563.6046481879157)" text-anchor="middle" x="0" y="0" style="font-family: 'Open Sans', verdana, arial, sans-serif; font-size: 12px; fill: rgb(42, 63, 95); fill-opacity: 1; white-space: pre;"><tspan class="line" dy="0em" x="0" y="0">Rap &amp; Hip Hop</tspan><tspan class="line" dy="1.3em" x="0" y="0">3.07%</tspan></text></g></g><g class="slice"><path class="surface" d="M451.78366002408416,536.166768422441a88,88 0 0 0 -0.3445468472285711,-16.0865207804913l131.15866976528332,-14.87962853707546a220,220 0 0 1 0.8613671180714277,40.216301951228246Z" style="pointer-events: all; stroke-width: 0; fill: rgb(198, 202, 253); fill-opacity: 1; stroke: rgb(68, 68, 68); stroke-opacity: 1;"/><g class="slicetext"><text data-notex="1" class="slicetext" transform="translate(633.1643990428313,521.976878090964)" text-anchor="middle" x="0" y="0" style="font-family: 'Open Sans', verdana, arial, sans-serif; font-size: 12px; fill: rgb(42, 63, 95); fill-opacity: 1; white-space: pre;"><tspan class="line" dy="0em" x="0" y="0">Doom / Stoner</tspan><tspan class="line" dy="1.3em" x="0" y="0">2.91%</tspan></text></g></g><g class="slice"><path class="surface" d="M451.4391131768556,520.0802476419497a88,88 0 0 0 -3.0242737068976,-14.942566062829684l126.62225920493692,-37.29347763131998a220,220 0 0 1 7.560684267244,37.35641515707421Z" style="pointer-events: all; stroke-width: 0; fill: rgb(247, 167, 153); fill-opacity: 1; stroke: rgb(68, 68, 68); stroke-opacity: 1;"/><g class="slicetext"><text data-notex="1" class="slicetext" transform="translate(615.2802832983516,482.4120777309327)" text-anchor="middle" x="0" y="0" style="font-family: 'Open Sans', verdana, arial, sans-serif; font-size: 12px; fill: rgb(42, 63, 95); fill-opacity: 1; white-space: pre;"><tspan class="line" dy="0em" x="0" y="0">Post-Rock</tspan><tspan class="line" dy="1.3em" x="0" y="0">2.76%</tspan></text></g></g><g class="slice"><path class="surface" d="M448.41483946995794,505.13768157912a88,88 0 0 0 -4.111231124339702,-11.128381581670006l120.45541251842737,-53.98605000382499a220,220 0 0 1 10.278077810849254,27.82095395417501Z" style="pointer-events: all; stroke-width: 0; fill: rgb(51, 255, 201); fill-opacity: 1; stroke: rgb(68, 68, 68); stroke-opacity: 1;"/><g class="slicetext"><text data-notex="1" class="slicetext" transform="translate(646.0978895958361,448.4975660654535)" text-anchor="middle" x="0" y="0" style="font-family: 'Open Sans', verdana, arial, sans-serif; font-size: 12px; fill: rgb(42, 63, 95); fill-opacity: 1; white-space: pre;"><tspan class="line" dy="0em" x="0" y="0">Virtuoso Instrumentalist</tspan><tspan class="line" dy="1.3em" x="0" y="0">2.15%</tspan></text></g></g><g class="slice"><path class="surface" d="M444.3036083456183,494.00929999745a88,88 0 0 0 -5.126410679138144,-9.751938214052462l112.76579649972015,-68.61395732490368a220,220 0 0 1 12.81602669784536,24.379845535131153Z" style="pointer-events: all; stroke-width: 0; fill: rgb(224, 198, 253); fill-opacity: 1; stroke: rgb(68, 68, 68); stroke-opacity: 1;"/><g class="slicetext"><text data-notex="1" class="slicetext" transform="translate(654.9165091475326,415.8881910654535)" text-anchor="middle" x="0" y="0" style="font-family: 'Open Sans', verdana, arial, sans-serif; font-size: 12px; fill: rgb(42, 63, 95); fill-opacity: 1; white-space: pre;"><tspan class="line" dy="0em" x="0" y="0">Post-Hardcore / Emo / Screamo</tspan><tspan class="line" dy="1.3em" x="0" y="0">1.99%</tspan></text></g><path class="textline" stroke-width="1.5" d="M558.7329153975326,427.6325654283677V419.1928785654535h8.15234375" fill="none" style="stroke: rgb(42, 63, 95); stroke-opacity: 1;"/></g><g class="slice"><path class="surface" d="M439.1771976664801,484.2573617833975a88,88 0 0 0 -6.304747097615291,-9.034962612927059l103.30867585329722,-82.16640124429426a220,220 0 0 1 15.761867744038227,22.587406532317644Z" style="pointer-events: all; stroke-width: 0; fill: rgb(255, 219, 192); fill-opacity: 1; stroke: rgb(68, 68, 68); stroke-opacity: 1;"/><g class="slicetext"><text data-notex="1" class="slicetext" transform="translate(569.3963585459085,383.2788160654535)" text-anchor="middle" x="0" y="0" style="font-family: 'Open Sans', verdana, arial, sans-serif; font-size: 12px; fill: rgb(42, 63, 95); fill-opacity: 1; white-space: pre;"><tspan class="line" dy="0em" x="0" y="0">Metal</tspan><tspan class="line" dy="1.3em" x="0" y="0">1.99%</tspan></text></g><path class="textline" stroke-width="1.5" d="M544.4158897959085,404.1027930843951V386.5835035654535h8.15234375" fill="none" style="stroke: rgb(42, 63, 95); stroke-opacity: 1;"/></g><g class="slice"><path class="surface" d="M432.8724505688648,475.22239917047045a88,88 0 0 0 -7.3842621534318145,-8.176371923492274l92.2322826231495,-94.43095912953268a220,220 0 0 1 18.460655383579535,20.440929808730687Z" style="pointer-events: all; stroke-width: 0; fill: rgb(122, 230, 248); fill-opacity: 1; stroke: rgb(68, 68, 68); stroke-opacity: 1;"/><g class="slicetext"><text data-notex="1" class="slicetext" transform="translate(588.1577226353429,350.6694410654535)" text-anchor="middle" x="0" y="0" style="font-family: 'Open Sans', verdana, arial, sans-serif; font-size: 12px; fill: rgb(42, 63, 95); fill-opacity: 1; white-space: pre;"><tspan class="line" dy="0em" x="0" y="0">Pop / Baroque Pop</tspan><tspan class="line" dy="1.3em" x="0" y="0">1.99%</tspan></text></g><path class="textline" stroke-width="1.5" d="M527.2710038853429,382.54634867093887V353.9741285654535h8.15234375" fill="none" style="stroke: rgb(42, 63, 95); stroke-opacity: 1;"/></g><g class="slice"><path class="surface" d="M425.488188415433,467.0460272469782a88,88 0 0 0 -8.34803539804683,-7.189623799256481l79.71022952607926,-105.2153948284174a220,220 0 0 1 20.870088495117074,17.9740594981412Z" style="pointer-events: all; stroke-width: 0; fill: rgb(255, 204, 219); fill-opacity: 1; stroke: rgb(68, 68, 68); stroke-opacity: 1;"/><g class="slicetext"><text data-notex="1" class="slicetext" transform="translate(532.5474574152101,318.0600660654535)" text-anchor="middle" x="0" y="0" style="font-family: 'Open Sans', verdana, arial, sans-serif; font-size: 12px; fill: rgb(42, 63, 95); fill-opacity: 1; white-space: pre;"><tspan class="line" dy="0em" x="0" y="0">Funk</tspan><tspan class="line" dy="1.3em" x="0" y="0">1.99%</tspan></text></g><path class="textline" stroke-width="1.5" d="M507.56698866521015,363.3011104847923V321.3647535654535h8.15234375" fill="none" style="stroke: rgb(42, 63, 95); stroke-opacity: 1;"/></g><g class="slice"><path class="surface" d="M417.1401530173862,459.85640344772173a88,88 0 0 0 -8.448364349775852,-5.663026019167683l67.03768300141547,-113.70993385716892a220,220 0 0 1 21.12091087443963,14.157565047919206Z" style="pointer-events: all; stroke-width: 0; fill: rgb(232, 248, 214); fill-opacity: 1; stroke: rgb(68, 68, 68); stroke-opacity: 1;"/><g class="slicetext"><text data-notex="1" class="slicetext" transform="translate(546.8969780556397,285.4506910654535)" text-anchor="middle" x="0" y="0" style="font-family: 'Open Sans', verdana, arial, sans-serif; font-size: 12px; fill: rgb(42, 63, 95); fill-opacity: 1; white-space: pre;"><tspan class="line" dy="0em" x="0" y="0">World / Traditional</tspan><tspan class="line" dy="1.3em" x="0" y="0">1.84%</tspan></text></g><path class="textline" stroke-width="1.5" d="M486.49463430563964,347.2568344196489V288.7553785654535h8.15234375" fill="none" style="stroke: rgb(42, 63, 95); stroke-opacity: 1;"/></g><g class="slice"><path class="surface" d="M408.69178866761035,454.1933774285541a88,88 0 0 0 -8.271679409462047,-4.303149876268208l54.63016388722241,-120.16465867157123a220,220 0 0 1 20.679198523655117,10.75787469067052Z" style="pointer-events: all; stroke-width: 0; fill: rgb(255, 253, 255); fill-opacity: 1; stroke: rgb(68, 68, 68); stroke-opacity: 1;"/><g class="slicetext"><text data-notex="1" class="slicetext" transform="translate(516.1535476438805,252.8413160654535)" text-anchor="middle" x="0" y="0" style="font-family: 'Open Sans', verdana, arial, sans-serif; font-size: 12px; fill: rgb(42, 63, 95); fill-opacity: 1; white-space: pre;"><tspan class="line" dy="0em" x="0" y="0">Punk &amp; Grunge</tspan><tspan class="line" dy="1.3em" x="0" y="0">1.69%</tspan></text></g><path class="textline" stroke-width="1.5" d="M465.53245389388053,334.830430634571V256.1460035654535h8.15234375" fill="none" style="stroke: rgb(42, 63, 95); stroke-opacity: 1;"/></g><g class="slice"><path class="surface" d="M400.4201092581483,449.89022755228586a88,88 0 0 0 -7.076195295944024,-2.8536816352659913l44.015870943306375,-124.44518112447022a220,220 0 0 1 17.69048823986006,7.134204088164978Z" style="pointer-events: all; stroke-width: 0; fill: rgb(255, 233, 183); fill-opacity: 1; stroke: rgb(68, 68, 68); stroke-opacity: 1;"/><g class="slicetext"><text data-notex="1" class="slicetext" transform="translate(493.5128545568446,220.2319410654535)" text-anchor="middle" x="0" y="0" style="font-family: 'Open Sans', verdana, arial, sans-serif; font-size: 12px; fill: rgb(42, 63, 95); fill-opacity: 1; white-space: pre;"><tspan class="line" dy="0em" x="0" y="0">Folk / Country</tspan><tspan class="line" dy="1.3em" x="0" y="0">1.38%</tspan></text></g><path class="textline" stroke-width="1.5" d="M446.2823858068446,325.9666473687854V223.5366285654535h8.15234375" fill="none" style="stroke: rgb(42, 63, 95); stroke-opacity: 1;"/></g><g class="slice"><path class="surface" d="M393.3439139622042,447.03654591701985a88,88 0 0 0 -7.2967901347946285,-2.2299983117835382l33.07068574111443,-127.79017859214552a220,220 0 0 1 18.24197533698657,5.574995779458845Z" style="pointer-events: all; stroke-width: 0; fill: rgb(8, 25, 239); fill-opacity: 1; stroke: rgb(68, 68, 68); stroke-opacity: 1;"/><g class="slicetext"><text data-notex="1" class="slicetext" transform="translate(471.38909114018236,187.6225660654535)" text-anchor="middle" x="0" y="0" style="font-family: 'Open Sans', verdana, arial, sans-serif; font-size: 12px; fill: rgb(42, 63, 95); fill-opacity: 1; white-space: pre;"><tspan class="line" dy="0em" x="0" y="0">Blues &amp; Soul</tspan><tspan class="line" dy="1.3em" x="0" y="0">1.38%</tspan></text></g><path class="textline" stroke-width="1.5" d="M428.29924739018236,319.60606761349766V190.9272535654535h8.15234375" fill="none" style="stroke: rgb(42, 63, 95); stroke-opacity: 1;"/></g><g class="slice"><path class="surface" d="M386.0471238274096,444.8065476052363a88,88 0 0 0 -6.626911681001065,-1.444974745621039l23.130318219612835,-129.9576407105771a220,220 0 0 1 16.56727920250266,3.6124368640525972Z" style="pointer-events: all; stroke-width: 0; fill: rgb(181, 39, 15); fill-opacity: 1; stroke: rgb(68, 68, 68); stroke-opacity: 1;"/><g class="slicetext"><text data-notex="1" class="slicetext" transform="translate(447.30258031411915,155.0131910654535)" text-anchor="middle" x="0" y="0" style="font-family: 'Open Sans', verdana, arial, sans-serif; font-size: 12px; fill: rgb(42, 63, 95); fill-opacity: 1; white-space: pre;"><tspan class="line" dy="0em" x="0" y="0">Post-Punk</tspan><tspan class="line" dy="1.3em" x="0" y="0">1.23%</tspan></text></g><path class="textline" stroke-width="1.5" d="M410.86898656411915,315.0504754635349V158.3178785654535h8.15234375" fill="none" style="stroke: rgb(42, 63, 95); stroke-opacity: 1;"/></g><g class="slice"><path class="surface" d="M379.4202121464086,443.36157285961525a88,88 0 0 0 -5.875052798881119,-0.8423703698706846l14.317739021291157,-131.2211962653831a220,220 0 0 1 14.687631997202796,2.1059259246767112Z" style="pointer-events: all; stroke-width: 0; fill: rgb(0, 102, 75); fill-opacity: 1; stroke: rgb(68, 68, 68); stroke-opacity: 1;"/><g class="slicetext"><text data-notex="1" class="slicetext" transform="translate(445.4705673662164,122.4038160654535)" text-anchor="middle" x="0" y="0" style="font-family: 'Open Sans', verdana, arial, sans-serif; font-size: 12px; fill: rgb(42, 63, 95); fill-opacity: 1; white-space: pre;"><tspan class="line" dy="0em" x="0" y="0">Gothic Country</tspan><tspan class="line" dy="1.3em" x="0" y="0">1.07%</tspan></text></g><path class="textline" stroke-width="1.5" d="M395.2244736162164,312.227108557125V125.7085035654535h8.15234375" fill="none" style="stroke: rgb(42, 63, 95); stroke-opacity: 1;"/></g><g class="slice"><path class="surface" d="M373.54515934752743,442.5192024897446a88,88 0 0 0 -5.071336446341277,-0.4054068033274007l6.710734351779241,-131.8293064703742a220,220 0 0 1 12.678341115853193,1.0135170083185017Z" style="pointer-events: all; stroke-width: 0; fill: rgb(118, 8, 239); fill-opacity: 1; stroke: rgb(68, 68, 68); stroke-opacity: 1;"/><g class="slicetext"><text data-notex="1" class="slicetext" transform="translate(420.0271473570074,89.7944410654535)" text-anchor="middle" x="0" y="0" style="font-family: 'Open Sans', verdana, arial, sans-serif; font-size: 12px; fill: rgb(42, 63, 95); fill-opacity: 1; white-space: pre;"><tspan class="line" dy="0em" x="0" y="0">Proto-Prog</tspan><tspan class="line" dy="1.3em" x="0" y="0">0.92%</tspan></text></g><path class="textline" stroke-width="1.5" d="M381.5310536070074,310.69960747999505V93.0991285654535h8.15234375" fill="none" style="stroke: rgb(42, 63, 95); stroke-opacity: 1;"/></g><g class="slice"><path class="surface" d="M368.47382290118617,442.1137956864172a88,88 0 0 0 -5.08628932590009,-0.11166432468932044l-0.9186996370708942,-131.9968029574082a220,220 0 0 1 12.715723314750225,0.2791608117233011Z" style="pointer-events: all; stroke-width: 0; fill: rgb(243, 105, 0); fill-opacity: 1; stroke: rgb(68, 68, 68); stroke-opacity: 1;"/><g class="slicetext"><text data-notex="1" class="slicetext" transform="translate(438.0123071461534,57.1850660654535)" text-anchor="middle" x="0" y="0" style="font-family: 'Open Sans', verdana, arial, sans-serif; font-size: 12px; fill: rgb(42, 63, 95); fill-opacity: 1; white-space: pre;"><tspan class="line" dy="0em" x="0" y="0">Thrash &amp; Death Metal</tspan><tspan class="line" dy="1.3em" x="0" y="0">0.92%</tspan></text></g><path class="textline" stroke-width="1.5" d="M368.8287133961534,310.05299836793V60.4897535654535h8.15234375" fill="none" style="stroke: rgb(42, 63, 95); stroke-opacity: 1;"/></g><g class="slice"><path class="surface" d="M363.38753357528606,442.00213136172783a88,88 0 0 0 -5.0842422764560595,0.18245137015221646l-8.545063051754983,-131.72312590217987a220,220 0 0 1 12.710605691140149,-0.4561284253805411Z" style="pointer-events: all; stroke-width: 0; fill: rgb(8, 136, 158); fill-opacity: 1; stroke: rgb(68, 68, 68); stroke-opacity: 1;"/><g class="slicetext"><text data-notex="1" class="slicetext" transform="translate(289.72351540355146,17.90047704363468)" text-anchor="middle" x="0" y="0" style="font-family: 'Open Sans', verdana, arial, sans-serif; font-size: 12px; fill: rgb(42, 63, 95); fill-opacity: 1; white-space: pre;"><tspan class="line" dy="0em" x="0" y="0">Classical / Orchestral</tspan><tspan class="line" dy="1.3em" x="0" y="0">0.92%</tspan></text></g><path class="textline" stroke-width="1.5" d="M356.11023415355146,310.14151916542266V21.20516454363468h-8.15234375" fill="none" style="stroke: rgb(42, 63, 95); stroke-opacity: 1;"/></g><g class="slice"><path class="surface" d="M358.30329129883,442.1845827318801a88,88 0 0 0 -5.065202139872278,0.47595725691159035l-16.142866261563398,-131.00919001681248a220,220 0 0 1 12.663005349680695,-1.1898931422789758Z" style="pointer-events: all; stroke-width: 0; fill: rgb(255, 0, 73); fill-opacity: 1; stroke: rgb(68, 68, 68); stroke-opacity: 1;"/><g class="slicetext"><text data-notex="1" class="slicetext" transform="translate(308.0001561628595,50.50985204363468)" text-anchor="middle" x="0" y="0" style="font-family: 'Open Sans', verdana, arial, sans-serif; font-size: 12px; fill: rgb(42, 63, 95); fill-opacity: 1; white-space: pre;"><tspan class="line" dy="0em" x="0" y="0">Bluegrass</tspan><tspan class="line" dy="1.3em" x="0" y="0">0.92%</tspan></text></g><path class="textline" stroke-width="1.5" d="M343.4181249128595,310.9648740089906V53.81453954363468h-8.15234375" fill="none" style="stroke: rgb(42, 63, 95); stroke-opacity: 1;"/></g><g class="slice"><path class="surface" d="M353.23808915895773,442.6605399887917a88,88 0 0 0 -5.029232554087797,0.7678723494677002l-23.686715092695096,-129.85738149261093a220,220 0 0 1 12.573081385219492,-1.9196808736692503Z" style="pointer-events: all; stroke-width: 0; fill: rgb(132, 216, 42); fill-opacity: 1; stroke: rgb(68, 68, 68); stroke-opacity: 1;"/><g class="slicetext"><text data-notex="1" class="slicetext" transform="translate(263.07996282115266,83.11922704363468)" text-anchor="middle" x="0" y="0" style="font-family: 'Open Sans', verdana, arial, sans-serif; font-size: 12px; fill: rgb(42, 63, 95); fill-opacity: 1; white-space: pre;"><tspan class="line" dy="0em" x="0" y="0">Metalcore / Hardcore</tspan><tspan class="line" dy="1.3em" x="0" y="0">0.92%</tspan></text></g><path class="textline" stroke-width="1.5" d="M330.79480657115266,312.5203109958246V86.42391454363468h-8.15234375" fill="none" style="stroke: rgb(42, 63, 95); stroke-opacity: 1;"/></g><g class="slice"><path class="surface" d="M348.20885660486994,443.42841233825936a88,88 0 0 0 -4.151418422587045,0.861061889543123l-29.913842726575663,-128.56578865829624a220,220 0 0 1 10.378546056467613,-2.1526547238578075Z" style="pointer-events: all; stroke-width: 0; fill: rgb(255, 49, 255); fill-opacity: 1; stroke: rgb(68, 68, 68); stroke-opacity: 1;"/><g class="slicetext"><text data-notex="1" class="slicetext" transform="translate(284.63630868449616,115.72860204363468)" text-anchor="middle" x="0" y="0" style="font-family: 'Open Sans', verdana, arial, sans-serif; font-size: 12px; fill: rgb(42, 63, 95); fill-opacity: 1; white-space: pre;"><tspan class="line" dy="0em" x="0" y="0">Industrial</tspan><tspan class="line" dy="1.3em" x="0" y="0">0.767%</tspan></text></g><path class="textline" stroke-width="1.5" d="M319.31990243449616,314.5848452834921V119.03328954363468h-8.15234375" fill="none" style="stroke: rgb(42, 63, 95); stroke-opacity: 1;"/></g><g class="slice"><path class="surface" d="M344.0574381822829,444.2894742278025a88,88 0 0 0 -4.105126899050927,1.0600168110493315l-36.071533075152054,-126.97576344172225a220,220 0 0 1 10.262817247627318,-2.6500420276233285Z" style="pointer-events: all; stroke-width: 0; fill: rgb(233, 164, 1); fill-opacity: 1; stroke: rgb(68, 68, 68); stroke-opacity: 1;"/><g class="slicetext"><text data-notex="1" class="slicetext" transform="translate(274.172006127763,148.33797704363468)" text-anchor="middle" x="0" y="0" style="font-family: 'Open Sans', verdana, arial, sans-serif; font-size: 12px; fill: rgb(42, 63, 95); fill-opacity: 1; white-space: pre;"><tspan class="line" dy="0em" x="0" y="0">Jam Band</tspan><tspan class="line" dy="1.3em" x="0" y="0">0.767%</tspan></text></g><path class="textline" stroke-width="1.5" d="M308.996224877763,316.9868907266448V151.64266454363468h-8.15234375" fill="none" style="stroke: rgb(42, 63, 95); stroke-opacity: 1;"/></g><g class="slice"><path class="surface" d="M339.95231128323195,445.34949103885185a88,88 0 0 0 -3.244363960694304,0.9896228754114191l-40.938079016193505,-125.49132912860512a220,220 0 0 1 8.11090990173576,-2.4740571885285476Z" style="pointer-events: all; stroke-width: 0; fill: rgb(99, 110, 250); fill-opacity: 1; stroke: rgb(68, 68, 68); stroke-opacity: 1;"/><g class="slicetext"><text data-notex="1" class="slicetext" transform="translate(271.39543315675036,180.94735204363468)" text-anchor="middle" x="0" y="0" style="font-family: 'Open Sans', verdana, arial, sans-serif; font-size: 12px; fill: rgb(42, 63, 95); fill-opacity: 1; white-space: pre;"><tspan class="line" dy="0em" x="0" y="0">Djent</tspan><tspan class="line" dy="1.3em" x="0" y="0">0.613%</tspan></text></g><path class="textline" stroke-width="1.5" d="M299.81340190675036,319.5716734248556V184.25203954363468h-8.15234375" fill="none" style="stroke: rgb(42, 63, 95); stroke-opacity: 1;"/></g><g class="slice"><path class="surface" d="M336.7079473225377,446.33911391426324a88,88 0 0 0 -3.2038161927632474,1.1139177474022064l-45.74380330533838,-123.82045250750181a220,220 0 0 1 8.009540481908118,-2.7847943685055156Z" style="pointer-events: all; stroke-width: 0; fill: rgb(239, 85, 59); fill-opacity: 1; stroke: rgb(68, 68, 68); stroke-opacity: 1;"/><g class="slicetext"><text data-notex="1" class="slicetext" transform="translate(225.724335664526,213.55672704363468)" text-anchor="middle" x="0" y="0" style="font-family: 'Open Sans', verdana, arial, sans-serif; font-size: 12px; fill: rgb(42, 63, 95); fill-opacity: 1; white-space: pre;"><tspan class="line" dy="0em" x="0" y="0">Acoustic &amp; Flamenco</tspan><tspan class="line" dy="1.3em" x="0" y="0">0.613%</tspan></text></g><path class="textline" stroke-width="1.5" d="M291.751679414526,322.20158765626104V216.86141454363468h-8.15234375" fill="none" style="stroke: rgb(42, 63, 95); stroke-opacity: 1;"/></g><g class="slice"><path class="surface" d="M333.5041311297744,447.4530316616655a88,88 0 0 0 -2.3733868262018576,0.9160181419606716l-49.30388354464117,-122.44642529456081a220,220 0 0 1 5.933467065504644,-2.290045354901679Z" style="pointer-events: all; stroke-width: 0; fill: rgb(0, 204, 150); fill-opacity: 1; stroke: rgb(68, 68, 68); stroke-opacity: 1;"/><g class="slicetext"><text data-notex="1" class="slicetext" transform="translate(247.2423496425967,246.16610204363468)" text-anchor="middle" x="0" y="0" style="font-family: 'Open Sans', verdana, arial, sans-serif; font-size: 12px; fill: rgb(42, 63, 95); fill-opacity: 1; white-space: pre;"><tspan class="line" dy="0em" x="0" y="0">New Wave</tspan><tspan class="line" dy="1.3em" x="0" y="0">0.46%</tspan></text></g><path class="textline" stroke-width="1.5" d="M284.7853183925967,324.7561591232572V249.47078954363468h-8.15234375" fill="none" style="stroke: rgb(42, 63, 95); stroke-opacity: 1;"/></g><g class="slice"><path class="surface" d="M331.13074430357256,448.3690498036261a88,88 0 0 0 -1.567118006584076,0.6486301123793852l-51.65456055451728,-121.47348012599173a220,220 0 0 1 3.9177950164601896,-1.6215752809484627Z" style="pointer-events: all; stroke-width: 0; fill: rgb(171, 99, 250); fill-opacity: 1; stroke: rgb(68, 68, 68); stroke-opacity: 1;"/><g class="slicetext"><text data-notex="1" class="slicetext" transform="translate(221.86796277645658,278.7754770436347)" text-anchor="middle" x="0" y="0" style="font-family: 'Open Sans', verdana, arial, sans-serif; font-size: 12px; fill: rgb(42, 63, 95); fill-opacity: 1; white-space: pre;"><tspan class="line" dy="0em" x="0" y="0">Math Rock / Djent</tspan><tspan class="line" dy="1.3em" x="0" y="0">0.307%</tspan></text></g><path class="textline" stroke-width="1.5" d="M279.8640565264566,326.72397333719675V282.0801645436347h-8.15234375" fill="none" style="stroke: rgb(42, 63, 95); stroke-opacity: 1;"/></g><g class="slice"><path class="surface" d="M329.5636262969885,449.0176799160055a88,88 0 0 0 -1.5543262995381157,0.6787117383760916l-53.98605000382445,-120.4554125184276a220,220 0 0 1 3.885815748845289,-1.6967793459402287Z" style="pointer-events: all; stroke-width: 0; fill: rgb(255, 161, 90); fill-opacity: 1; stroke: rgb(68, 68, 68); stroke-opacity: 1;"/><g class="slicetext"><text data-notex="1" class="slicetext" transform="translate(213.29410121100744,311.3848520436347)" text-anchor="middle" x="0" y="0" style="font-family: 'Open Sans', verdana, arial, sans-serif; font-size: 12px; fill: rgb(42, 63, 95); fill-opacity: 1; white-space: pre;"><tspan class="line" dy="0em" x="0" y="0">House / EDM / Trap</tspan><tspan class="line" dy="1.3em" x="0" y="0">0.307%</tspan></text></g></g></g></g><g class="treemaplayer"/><g class="sunburstlayer"/><g class="glimages"/><defs id="topdefs-252fc6"><g class="clips"/></defs><g class="layer-above"><g class="imagelayer"/><g class="shapelayer"/></g><g class="infolayer"><g class="g-gtitle"><text class="gtitle" x="40" y="155" text-anchor="start" dy="0em" style="font-family: 'Open Sans', verdana, arial, sans-serif; font-size: 17px; fill: rgb(42, 63, 95); opacity: 1; font-weight: normal; white-space: pre;">r/nearprog Top Genres</text></g></g></svg>