<svg class="main-svg" xmlns="http://www.w3.org/2000/svg" xmlns:xlink="http://www.w3.org/1999/xlink" width="800" height="800" style="" viewBox="0 0 800 800"><rect x="0" y="0" width="800" height="800" style="fill: rgb(176, 196, 222); fill-opacity: 1;"/><defs id="defs-e3596b"><g class="clips"/><g class="gradients"/></defs><g class="bglayer"/><g class="layer-below"><g class="imagelayer"/><g class="shapelayer"/></g><g class="cartesianlayer"/><g class="polarlayer"/><g class="ternarylayer"/><g class="geolayer"/><g class="funnelarealayer"/><g class="pielayer"><g class="trace" stroke-linejoin="round" style="opacity: 1;"><g class="slice"><path class="surface" d="M323.2288976987366,438.3344728679182a90,90 0 0 0 -57.29659853203512,48.62988357541885l-122.35155124994775,-57.05346533499442a225,225 0 0 1 143.24149633008778,-121.57470893854712Z" style="pointer-events: all; stroke-width: 0; fill: rgb(99, 110, 250); fill-opacity: 1; stroke: rgb(68, 68, 68); stroke-opacity: 1;"/><g class="slicetext"><text data-notex="1" class="slicetext" transform="translate(158.50233832264453,340.67481184755)" text-anchor="middle" x="0" y="0" style="font-family: 'Open Sans', verdana, arial, sans-serif; font-size: 12px; fill: rgb(42, 63, 95); fill-opacity: 1; white-space: pre;"><tspan class="line" dy="0em" x="0" y="0">Surprise Me!</tspan><tspan class="line" dy="1.3em" x="0" y="0">13.7%</tspan></text></g></g><g class="slice"><path class="surface" d="M265.9322991667015,486.96435644333707a90,90 0 0 0 -7.773746627029403,48.903291218115214l-134.01217119049184,16.301471492178397a225,225 0 0 1 19.434366567573505,-122.25822804528804Z" style="pointer-events: all; stroke-width: 0; fill: rgb(239, 85, 59); fill-opacity: 1; stroke: rgb(68, 68, 68); stroke-opacity: 1;"/><g class="slicetext"><text data-notex="1" class="slicetext" transform="translate(100.30950650420712,485.9706002342092)" text-anchor="middle" x="0" y="0" style="font-family: 'Open Sans', verdana, arial, sans-serif; font-size: 12px; fill: rgb(42, 63, 95); fill-opacity: 1; white-space: pre;"><tspan class="line" dy="0em" x="0" y="0">Rock</tspan><tspan class="line" dy="1.3em" x="0" y="0">8.87%</tspan></text></g></g><g class="slice"><path class="surface" d="M258.1585525396721,535.8676476614522a90,90 0 0 0 11.526146901803429,34.351584961254865l-116.7229508377867,67.82884893406069a225,225 0 0 1 -28.815367254508573,-85.87896240313715Z" style="pointer-events: all; stroke-width: 0; fill: rgb(0, 204, 150); fill-opacity: 1; stroke: rgb(68, 68, 68); stroke-opacity: 1;"/><g class="slicetext"><text data-notex="1" class="slicetext" transform="translate(96.58207777216876,594.9189196191369)" text-anchor="middle" x="0" y="0" style="font-family: 'Open Sans', verdana, arial, sans-serif; font-size: 12px; fill: rgb(42, 63, 95); fill-opacity: 1; white-space: pre;"><tspan class="line" dy="0em" x="0" y="0">Math Rock</tspan><tspan class="line" dy="1.3em" x="0" y="0">6.45%</tspan></text></g></g><g class="slice"><path class="surface" d="M269.6846994414755,570.2192326227071a90,90 0 0 0 24.138791395188036,27.022253824058772l-80.51476374500466,108.36222967014884a225,225 0 0 1 -60.34697848797009,-67.55563456014693Z" style="pointer-events: all; stroke-width: 0; fill: rgb(171, 99, 250); fill-opacity: 1; stroke: rgb(68, 68, 68); stroke-opacity: 1;"/><g class="slicetext"><text data-notex="1" class="slicetext" transform="translate(130.40740080464778,678.8258683721587)" text-anchor="middle" x="0" y="0" style="font-family: 'Open Sans', verdana, arial, sans-serif; font-size: 12px; fill: rgb(42, 63, 95); fill-opacity: 1; white-space: pre;"><tspan class="line" dy="0em" x="0" y="0">Rap &amp; Hip Hop</tspan><tspan class="line" dy="1.3em" x="0" y="0">6.45%</tspan></text></g></g><g class="slice"><path class="surface" d="M293.82349083666355,597.2414864467659a90,90 0 0 0 28.431095965485095,14.145255084963106l-37.868119796777016,129.5801122975935a225,225 0 0 1 -71.07773991371273,-35.36313771240776Z" style="pointer-events: all; stroke-width: 0; fill: rgb(255, 161, 90); fill-opacity: 1; stroke: rgb(68, 68, 68); stroke-opacity: 1;"/><g class="slicetext"><text data-notex="1" class="slicetext" transform="translate(211.79511064644254,736.2097931601461)" text-anchor="middle" x="0" y="0" style="font-family: 'Open Sans', verdana, arial, sans-serif; font-size: 12px; fill: rgb(42, 63, 95); fill-opacity: 1; white-space: pre;"><tspan class="line" dy="0em" x="0" y="0">Electronic</tspan><tspan class="line" dy="1.3em" x="0" y="0">5.65%</tspan></text></g></g><g class="slice"><path class="surface" d="M322.25458680214865,611.3867415317291a90,90 0 0 0 31.5740422547495,3.390474142740345l9.492943585347227,134.66582351170402a225,225 0 0 1 -78.93510563687374,-8.476185356850863Z" style="pointer-events: all; stroke-width: 0; fill: rgb(25, 211, 243); fill-opacity: 1; stroke: rgb(68, 68, 68); stroke-opacity: 1;"/><g class="slicetext"><text data-notex="1" class="slicetext" transform="translate(265.8092543904493,768.8191681601461)" text-anchor="middle" x="0" y="0" style="font-family: 'Open Sans', verdana, arial, sans-serif; font-size: 12px; fill: rgb(42, 63, 95); fill-opacity: 1; white-space: pre;"><tspan class="line" dy="0em" x="0" y="0">Indie / Alternative</tspan><tspan class="line" dy="1.3em" x="0" y="0">5.65%</tspan></text></g><path class="textline" stroke-width="1.5" d="M323.4772231404493,748.713893605105V772.1238556601461h-8.15234375" fill="none" style="stroke: rgb(42, 63, 95); stroke-opacity: 1;"/></g><g class="slice"><path class="surface" d="M353.82862905689814,614.7772156744693a90,90 0 0 0 30.786154924301606,-7.786406372274519l55.67217597179964,122.98621395329224a225,225 0 0 1 -76.96538731075401,19.466015930686297Z" style="pointer-events: all; stroke-width: 0; fill: rgb(255, 102, 146); fill-opacity: 1; stroke: rgb(68, 68, 68); stroke-opacity: 1;"/><g class="slicetext"><text data-notex="1" class="slicetext" transform="translate(479.91569391328306,755.1511441405381)" text-anchor="middle" x="0" y="0" style="font-family: 'Open Sans', verdana, arial, sans-serif; font-size: 12px; fill: rgb(42, 63, 95); fill-opacity: 1; white-space: pre;"><tspan class="line" dy="0em" x="0" y="0">Psychedelic / Space Rock</tspan><tspan class="line" dy="1.3em" x="0" y="0">5.65%</tspan></text></g></g><g class="slice"><path class="surface" d="M384.61478398119976,606.9908093021949a90,90 0 0 0 22.842913135888747,-14.870957124053996l89.93654567563276,100.67977826721125a225,225 0 0 1 -57.10728283972186,37.17739281013499Z" style="pointer-events: all; stroke-width: 0; fill: rgb(182, 232, 128); fill-opacity: 1; stroke: rgb(68, 68, 68); stroke-opacity: 1;"/><g class="slicetext"><text data-notex="1" class="slicetext" transform="translate(520.0647796453233,721.7095042282785)" text-anchor="middle" x="0" y="0" style="font-family: 'Open Sans', verdana, arial, sans-serif; font-size: 12px; fill: rgb(42, 63, 95); fill-opacity: 1; white-space: pre;"><tspan class="line" dy="0em" x="0" y="0">Jazz / Big Band</tspan><tspan class="line" dy="1.3em" x="0" y="0">4.84%</tspan></text></g></g><g class="slice"><path class="surface" d="M407.4576971170885,592.1198521781408a90,90 0 0 0 17.343503987228054,-21.027289786470647l115.95180165647483,69.13884358750528a225,225 0 0 1 -43.35875996807013,52.568224466176616Z" style="pointer-events: all; stroke-width: 0; fill: rgb(255, 151, 255); fill-opacity: 1; stroke: rgb(68, 68, 68); stroke-opacity: 1;"/><g class="slicetext"><text data-notex="1" class="slicetext" transform="translate(556.7275798541812,671.4630889758088)" text-anchor="middle" x="0" y="0" style="font-family: 'Open Sans', verdana, arial, sans-serif; font-size: 12px; fill: rgb(42, 63, 95); fill-opacity: 1; white-space: pre;"><tspan class="line" dy="0em" x="0" y="0">Post-Rock</tspan><tspan class="line" dy="1.3em" x="0" y="0">4.84%</tspan></text></g></g><g class="slice"><path class="surface" d="M424.80120110431653,571.0925623916702a90,90 0 0 0 9.08554042741248,-20.847149193818954l129.58011229759356,37.868119796776845a225,225 0 0 1 -22.7138510685312,52.11787298454738Z" style="pointer-events: all; stroke-width: 0; fill: rgb(254, 203, 82); fill-opacity: 1; stroke: rgb(68, 68, 68); stroke-opacity: 1;"/><g class="slicetext"><text data-notex="1" class="slicetext" transform="translate(629.4931433375674,614.1906138028904)" text-anchor="middle" x="0" y="0" style="font-family: 'Open Sans', verdana, arial, sans-serif; font-size: 12px; fill: rgb(42, 63, 95); fill-opacity: 1; white-space: pre;"><tspan class="line" dy="0em" x="0" y="0">Virtuoso Instrumentalist</tspan><tspan class="line" dy="1.3em" x="0" y="0">4.03%</tspan></text></g></g><g class="slice"><path class="surface" d="M433.88674153172906,550.2454131978512a90,90 0 0 0 3.5701130645058243,-22.458961843196082l134.93528189435227,4.179677031982724a225,225 0 0 1 -8.92528266126456,56.147404607990204Z" style="pointer-events: all; stroke-width: 0; fill: rgb(198, 202, 253); fill-opacity: 1; stroke: rgb(68, 68, 68); stroke-opacity: 1;"/><g class="slicetext"><text data-notex="1" class="slicetext" transform="translate(655.3467434957929,557.4200247657903)" text-anchor="middle" x="0" y="0" style="font-family: 'Open Sans', verdana, arial, sans-serif; font-size: 12px; fill: rgb(42, 63, 95); fill-opacity: 1; white-space: pre;"><tspan class="line" dy="0em" x="0" y="0">Avant-Garde / Experimental</tspan><tspan class="line" dy="1.3em" x="0" y="0">4.03%</tspan></text></g></g><g class="slice"><path class="surface" d="M437.45685459623485,527.7864513546551a90,90 0 0 0 -1.2805135643346262,-18.16522052497979l133.01451154785033,-23.068153755486957a225,225 0 0 1 3.2012839108365654,45.413051312449475Z" style="pointer-events: all; stroke-width: 0; fill: rgb(247, 167, 153); fill-opacity: 1; stroke: rgb(68, 68, 68); stroke-opacity: 1;"/><g class="slicetext"><text data-notex="1" class="slicetext" transform="translate(604.8453829361733,505.79311912476896)" text-anchor="middle" x="0" y="0" style="font-family: 'Open Sans', verdana, arial, sans-serif; font-size: 12px; fill: rgb(42, 63, 95); fill-opacity: 1; white-space: pre;"><tspan class="line" dy="0em" x="0" y="0">Alt Metal</tspan><tspan class="line" dy="1.3em" x="0" y="0">3.23%</tspan></text></g></g><g class="slice"><path class="surface" d="M436.1763410319002,509.62123082967537a90,90 0 0 0 -3.3513596407678166,-13.250718261393471l127.98747208669862,-42.94423114757716a225,225 0 0 1 8.378399101919541,33.126795653483676Z" style="pointer-events: all; stroke-width: 0; fill: rgb(51, 255, 201); fill-opacity: 1; stroke: rgb(68, 68, 68); stroke-opacity: 1;"/><g class="slicetext"><text data-notex="1" class="slicetext" transform="translate(590.6118860603531,465.5454391669013)" text-anchor="middle" x="0" y="0" style="font-family: 'Open Sans', verdana, arial, sans-serif; font-size: 12px; fill: rgb(42, 63, 95); fill-opacity: 1; white-space: pre;"><tspan class="line" dy="0em" x="0" y="0">Metal</tspan><tspan class="line" dy="1.3em" x="0" y="0">2.42%</tspan></text></g></g><g class="slice"><path class="surface" d="M432.82498139113244,496.37051256828187a90,90 0 0 0 -5.319239664992711,-12.590426333963507l120.00861258920955,-61.82987064852242a225,225 0 0 1 13.298099162481776,31.476065834908766Z" style="pointer-events: all; stroke-width: 0; fill: rgb(224, 198, 253); fill-opacity: 1; stroke: rgb(68, 68, 68); stroke-opacity: 1;"/><g class="slicetext"><text data-notex="1" class="slicetext" transform="translate(590.1797553635387,431.6612822265393)" text-anchor="middle" x="0" y="0" style="font-family: 'Open Sans', verdana, arial, sans-serif; font-size: 12px; fill: rgb(42, 63, 95); fill-opacity: 1; white-space: pre;"><tspan class="line" dy="0em" x="0" y="0">Bluegrass</tspan><tspan class="line" dy="1.3em" x="0" y="0">2.42%</tspan></text></g></g><g class="slice"><path class="surface" d="M427.5057417261397,483.7800862343184a90,90 0 0 0 -7.164440195942166,-11.639756980425393l109.26195229529631,-79.2895061191605a225,225 0 0 1 17.911100489855414,29.09939245106348Z" style="pointer-events: all; stroke-width: 0; fill: rgb(255, 219, 192); fill-opacity: 1; stroke: rgb(68, 68, 68); stroke-opacity: 1;"/><g class="slicetext"><text data-notex="1" class="slicetext" transform="translate(589.7330982619172,399.0519072265393)" text-anchor="middle" x="0" y="0" style="font-family: 'Open Sans', verdana, arial, sans-serif; font-size: 12px; fill: rgb(42, 63, 95); fill-opacity: 1; white-space: pre;"><tspan class="line" dy="0em" x="0" y="0">Punk &amp; Grunge</tspan><tspan class="line" dy="1.3em" x="0" y="0">2.42%</tspan></text></g><path class="textline" stroke-width="1.5" d="M539.1120045119172,407.0600164196848V402.3565947265393h8.15234375" fill="none" style="stroke: rgb(42, 63, 95); stroke-opacity: 1;"/></g><g class="slice"><path class="surface" d="M420.34130153019754,472.140329253893a90,90 0 0 0 -8.844404725471112,-10.420635822091572l95.99534520708964,-94.92045985229787a225,225 0 0 1 22.111011813677777,26.05158955522893Z" style="pointer-events: all; stroke-width: 0; fill: rgb(122, 230, 248); fill-opacity: 1; stroke: rgb(68, 68, 68); stroke-opacity: 1;"/><g class="slicetext"><text data-notex="1" class="slicetext" transform="translate(615.2266011785521,366.4425322265393)" text-anchor="middle" x="0" y="0" style="font-family: 'Open Sans', verdana, arial, sans-serif; font-size: 12px; fill: rgb(42, 63, 95); fill-opacity: 1; white-space: pre;"><tspan class="line" dy="0em" x="0" y="0">Post-Hardcore / Emo / Screamo</tspan><tspan class="line" dy="1.3em" x="0" y="0">2.42%</tspan></text></g><path class="textline" stroke-width="1.5" d="M519.0430074285521,379.40468207264445V369.7472197265393h8.15234375" fill="none" style="stroke: rgb(42, 63, 95); stroke-opacity: 1;"/></g><g class="slice"><path class="surface" d="M411.4968968047264,461.71969343180143a90,90 0 0 0 -10.32038764138995,-8.961179878567282l80.51476374500471,-108.36222967014879a225,225 0 0 1 25.80096910347487,22.402949696418204Z" style="pointer-events: all; stroke-width: 0; fill: rgb(255, 204, 219); fill-opacity: 1; stroke: rgb(68, 68, 68); stroke-opacity: 1;"/><g class="slicetext"><text data-notex="1" class="slicetext" transform="translate(538.107497444294,333.8331572265393)" text-anchor="middle" x="0" y="0" style="font-family: 'Open Sans', verdana, arial, sans-serif; font-size: 12px; fill: rgb(42, 63, 95); fill-opacity: 1; white-space: pre;"><tspan class="line" dy="0em" x="0" y="0">Blues &amp; Soul</tspan><tspan class="line" dy="1.3em" x="0" y="0">2.42%</tspan></text></g><path class="textline" stroke-width="1.5" d="M495.01765369429404,355.1072636969716V337.1378447265393h8.15234375" fill="none" style="stroke: rgb(42, 63, 95); stroke-opacity: 1;"/></g><g class="slice"><path class="surface" d="M401.1765091633365,452.75851355323414a90,90 0 0 0 -7.583946771666149,-5.059714657550604l69.13884358750549,-115.95180165647469a225,225 0 0 1 18.959866929165372,12.649286643876508Z" style="pointer-events: all; stroke-width: 0; fill: rgb(232, 248, 214); fill-opacity: 1; stroke: rgb(68, 68, 68); stroke-opacity: 1;"/><g class="slicetext"><text data-notex="1" class="slicetext" transform="translate(521.5864550113515,301.2237822265393)" text-anchor="middle" x="0" y="0" style="font-family: 'Open Sans', verdana, arial, sans-serif; font-size: 12px; fill: rgb(42, 63, 95); fill-opacity: 1; white-space: pre;"><tspan class="line" dy="0em" x="0" y="0">Doom / Stoner</tspan><tspan class="line" dy="1.3em" x="0" y="0">1.61%</tspan></text></g><path class="textline" stroke-width="1.5" d="M472.3716112613515,337.83141101938634V304.5284697265393h8.15234375" fill="none" style="stroke: rgb(42, 63, 95); stroke-opacity: 1;"/></g><g class="slice"><path class="surface" d="M393.59256239167036,447.6987988956835a90,90 0 0 0 -8.056918835007258,-4.266499728981967l57.05346533499461,-122.35155124994765a225,225 0 0 1 20.142297087518145,10.666249322454917Z" style="pointer-events: all; stroke-width: 0; fill: rgb(255, 253, 255); fill-opacity: 1; stroke: rgb(68, 68, 68); stroke-opacity: 1;"/><g class="slicetext"><text data-notex="1" class="slicetext" transform="translate(500.02587208051256,268.6144072265393)" text-anchor="middle" x="0" y="0" style="font-family: 'Open Sans', verdana, arial, sans-serif; font-size: 12px; fill: rgb(42, 63, 95); fill-opacity: 1; white-space: pre;"><tspan class="line" dy="0em" x="0" y="0">Folk / Country</tspan><tspan class="line" dy="1.3em" x="0" y="0">1.61%</tspan></text></g><path class="textline" stroke-width="1.5" d="M452.79540333051256,326.15866114546327V271.9190947265393h8.15234375" fill="none" style="stroke: rgb(42, 63, 95); stroke-opacity: 1;"/></g><g class="slice"><path class="surface" d="M385.5356435566631,443.43229916670157a90,90 0 0 0 -8.447216008348027,-3.4295047396973817l44.38264132247257,-127.49580835949371a225,225 0 0 1 21.11804002087007,8.573761849243454Z" style="pointer-events: all; stroke-width: 0; fill: rgb(255, 233, 183); fill-opacity: 1; stroke: rgb(68, 68, 68); stroke-opacity: 1;"/><g class="slicetext"><text data-notex="1" class="slicetext" transform="translate(457.119190824056,236.0050322265393)" text-anchor="middle" x="0" y="0" style="font-family: 'Open Sans', verdana, arial, sans-serif; font-size: 12px; fill: rgb(42, 63, 95); fill-opacity: 1; white-space: pre;"><tspan class="line" dy="0em" x="0" y="0">Djent</tspan><tspan class="line" dy="1.3em" x="0" y="0">1.61%</tspan></text></g><path class="textline" stroke-width="1.5" d="M432.138722074056,316.5262924835107V239.3097197265393h8.15234375" fill="none" style="stroke: rgb(42, 63, 95); stroke-opacity: 1;"/></g><g class="slice"><path class="surface" d="M377.08842754831505,440.0027944270042a90,90 0 0 0 -8.750833314533507,-2.5573183909220916l31.25639135067231,-131.33178594587685a225,225 0 0 1 21.877083286333765,6.393295977305229Z" style="pointer-events: all; stroke-width: 0; fill: rgb(8, 25, 239); fill-opacity: 1; stroke: rgb(68, 68, 68); stroke-opacity: 1;"/><g class="slicetext"><text data-notex="1" class="slicetext" transform="translate(446.3752517446289,203.3956572265393)" text-anchor="middle" x="0" y="0" style="font-family: 'Open Sans', verdana, arial, sans-serif; font-size: 12px; fill: rgb(42, 63, 95); fill-opacity: 1; white-space: pre;"><tspan class="line" dy="0em" x="0" y="0">Jam Band</tspan><tspan class="line" dy="1.3em" x="0" y="0">1.61%</tspan></text></g><path class="textline" stroke-width="1.5" d="M410.6135329946289,309.03314617067764V206.7003447265393h8.15234375" fill="none" style="stroke: rgb(42, 63, 95); stroke-opacity: 1;"/></g><g class="slice"><path class="surface" d="M368.33759423378154,437.4454760360821a90,90 0 0 0 -8.964655229142398,-1.6588904948512324l17.809408506958714,-133.8201216881537a225,225 0 0 1 22.411638072855993,4.147226237128081Z" style="pointer-events: all; stroke-width: 0; fill: rgb(181, 39, 15); fill-opacity: 1; stroke: rgb(68, 68, 68); stroke-opacity: 1;"/><g class="slicetext"><text data-notex="1" class="slicetext" transform="translate(413.421182410421,170.7862822265393)" text-anchor="middle" x="0" y="0" style="font-family: 'Open Sans', verdana, arial, sans-serif; font-size: 12px; fill: rgb(42, 63, 95); fill-opacity: 1; white-space: pre;"><tspan class="line" dy="0em" x="0" y="0">Funk</tspan><tspan class="line" dy="1.3em" x="0" y="0">1.61%</tspan></text></g><path class="textline" stroke-width="1.5" d="M388.440713660421,303.75611202798075V174.0909697265393h8.15234375" fill="none" style="stroke: rgb(42, 63, 95); stroke-opacity: 1;"/></g><g class="slice"><path class="surface" d="M359.37293900463914,435.78658554123086a90,90 0 0 0 -9.08648764998351,-0.7434401374657l4.179677031983451,-134.93528189435224a225,225 0 0 1 22.716219124958776,1.85860034366425Z" style="pointer-events: all; stroke-width: 0; fill: rgb(0, 102, 75); fill-opacity: 1; stroke: rgb(68, 68, 68); stroke-opacity: 1;"/><g class="slicetext"><text data-notex="1" class="slicetext" transform="translate(404.34388095241985,138.1769072265393)" text-anchor="middle" x="0" y="0" style="font-family: 'Open Sans', verdana, arial, sans-serif; font-size: 12px; fill: rgb(42, 63, 95); fill-opacity: 1; white-space: pre;"><tspan class="line" dy="0em" x="0" y="0">Proto-Prog</tspan><tspan class="line" dy="1.3em" x="0" y="0">1.61%</tspan></text></g><path class="textline" stroke-width="1.5" d="M365.84778720241985,300.74933956669224V141.4815947265393h8.15234375" fill="none" style="stroke: rgb(42, 63, 95); stroke-opacity: 1;"/></g><g class="slice"><path class="surface" d="M350.28645135465564,435.04314540376515a90,90 0 0 0 -4.559816306976119,-0.025672467333902205l-2.660047428480725,-134.9737905953531a225,225 0 0 1 11.399540767440296,0.06418116833475551Z" style="pointer-events: all; stroke-width: 0; fill: rgb(118, 8, 239); fill-opacity: 1; stroke: rgb(68, 68, 68); stroke-opacity: 1;"/><g class="slicetext"><text data-notex="1" class="slicetext" transform="translate(415.1534832889531,105.5675322265393)" text-anchor="middle" x="0" y="0" style="font-family: 'Open Sans', verdana, arial, sans-serif; font-size: 12px; fill: rgb(42, 63, 95); fill-opacity: 1; white-space: pre;"><tspan class="line" dy="0em" x="0" y="0">Classical / Orchestral</tspan><tspan class="line" dy="1.3em" x="0" y="0">0.806%</tspan></text></g><path class="textline" stroke-width="1.5" d="M348.7667645389531,300.00356601136355V108.8722197265393h8.15234375" fill="none" style="stroke: rgb(42, 63, 95); stroke-opacity: 1;"/></g><g class="slice"><path class="surface" d="M345.7266350476795,435.01747293643126a90,90 0 0 0 -4.555264104577299,0.20531138909937l-9.492943585346673,-134.66582351170405a225,225 0 0 1 11.388160261443247,-0.513278472748425Z" style="pointer-events: all; stroke-width: 0; fill: rgb(243, 105, 0); fill-opacity: 1; stroke: rgb(68, 68, 68); stroke-opacity: 1;"/><g class="slicetext"><text data-notex="1" class="slicetext" transform="translate(302.6856625325527,157.8019808594616)" text-anchor="middle" x="0" y="0" style="font-family: 'Open Sans', verdana, arial, sans-serif; font-size: 12px; fill: rgb(42, 63, 95); fill-opacity: 1; white-space: pre;"><tspan class="line" dy="0em" x="0" y="0">Industrial</tspan><tspan class="line" dy="1.3em" x="0" y="0">0.806%</tspan></text></g><path class="textline" stroke-width="1.5" d="M337.3692562825527,300.2281867499143V161.1066683594616h-8.15234375" fill="none" style="stroke: rgb(42, 63, 95); stroke-opacity: 1;"/></g><g class="slice"><path class="surface" d="M341.1713709431022,435.2227843255306a90,90 0 0 0 -4.539018604554109,0.43576821414142164l-16.301471492177836,-134.01217119049193a225,225 0 0 1 11.347546511385273,-1.089420535353554Z" style="pointer-events: all; stroke-width: 0; fill: rgb(8, 136, 158); fill-opacity: 1; stroke: rgb(68, 68, 68); stroke-opacity: 1;"/><g class="slicetext"><text data-notex="1" class="slicetext" transform="translate(259.9704097499788,190.4113558594616)" text-anchor="middle" x="0" y="0" style="font-family: 'Open Sans', verdana, arial, sans-serif; font-size: 12px; fill: rgb(42, 63, 95); fill-opacity: 1; white-space: pre;"><tspan class="line" dy="0em" x="0" y="0">Acoustic &amp; Flamenco</tspan><tspan class="line" dy="1.3em" x="0" y="0">0.806%</tspan></text></g><path class="textline" stroke-width="1.5" d="M325.9977534999788,301.029793509377V193.7160433594616h-8.15234375" fill="none" style="stroke: rgb(42, 63, 95); stroke-opacity: 1;"/></g><g class="slice"><path class="surface" d="M336.6323523385481,435.65855253967203a90,90 0 0 0 -4.511121508872111,0.6651064284276118l-23.068153755486005,-133.0145115478505a225,225 0 0 1 11.277803772180278,-1.6627660710690293Z" style="pointer-events: all; stroke-width: 0; fill: rgb(255, 0, 73); fill-opacity: 1; stroke: rgb(68, 68, 68); stroke-opacity: 1;"/><g class="slicetext"><text data-notex="1" class="slicetext" transform="translate(246.96660292578298,223.0207308594616)" text-anchor="middle" x="0" y="0" style="font-family: 'Open Sans', verdana, arial, sans-serif; font-size: 12px; fill: rgb(42, 63, 95); fill-opacity: 1; white-space: pre;"><tspan class="line" dy="0em" x="0" y="0">Metalcore / Hardcore</tspan><tspan class="line" dy="1.3em" x="0" y="0">0.806%</tspan></text></g><path class="textline" stroke-width="1.5" d="M314.681446675783,302.40632857669664V226.3254183594616h-8.15234375" fill="none" style="stroke: rgb(42, 63, 95); stroke-opacity: 1;"/></g><g class="slice"><path class="surface" d="M332.121230829676,436.32365896809966a90,90 0 0 0 -4.471644428975824,0.8927373240510406l-29.77562039894974,-131.67540556177394a225,225 0 0 1 11.17911107243956,-2.2318433101276014Z" style="pointer-events: all; stroke-width: 0; fill: rgb(132, 216, 42); fill-opacity: 1; stroke: rgb(68, 68, 68); stroke-opacity: 1;"/><g class="slicetext"><text data-notex="1" class="slicetext" transform="translate(242.56266585728326,255.6301058594616)" text-anchor="middle" x="0" y="0" style="font-family: 'Open Sans', verdana, arial, sans-serif; font-size: 12px; fill: rgb(42, 63, 95); fill-opacity: 1; white-space: pre;"><tspan class="line" dy="0em" x="0" y="0">Pop / Baroque Pop</tspan><tspan class="line" dy="1.3em" x="0" y="0">0.806%</tspan></text></g><path class="textline" stroke-width="1.5" d="M303.44938460728326,304.3542584060981V258.9347933594616h-8.15234375" fill="none" style="stroke: rgb(42, 63, 95); stroke-opacity: 1;"/></g><g class="slice"><path class="surface" d="M327.6495864007002,437.2163962921507a90,90 0 0 0 -4.42068870196315,1.1180765757673725l-36.406653451894464,-129.99829069812287a225,225 0 0 1 11.051721754907874,-2.7951914394184314Z" style="pointer-events: all; stroke-width: 0; fill: rgb(255, 49, 255); fill-opacity: 1; stroke: rgb(68, 68, 68); stroke-opacity: 1;"/><g class="slicetext"><text data-notex="1" class="slicetext" transform="translate(231.92805608671802,288.2394808594616)" text-anchor="middle" x="0" y="0" style="font-family: 'Open Sans', verdana, arial, sans-serif; font-size: 12px; fill: rgb(42, 63, 95); fill-opacity: 1; white-space: pre;"><tspan class="line" dy="0em" x="0" y="0">World / Traditional</tspan><tspan class="line" dy="1.3em" x="0" y="0">0.806%</tspan></text></g></g></g></g><g class="treemaplayer"/><g class="sunburstlayer"/><g class="glimages"/><defs id="topdefs-e3596b"><g class="clips"/></defs><g class="layer-above"><g class="imagelayer"/><g class="shapelayer"/></g><g class="infolayer"><g class="g-gtitle"><text class="gtitle" x="40" y="150" text-anchor="start" dy="0em" style="font-family: 'Open Sans', verdana, arial, sans-serif; font-size: 17px; fill: rgb(42, 63, 95); opacity: 1; font-weight: normal; white-space: pre;">u/_awwsmm Top Genres</text></g></g></svg>