<svg class="main-svg" xmlns="http://www.w3.org/2000/svg" xmlns:xlink="http://www.w3.org/1999/xlink" width="800" height="800" style="" viewBox="0 0 800 800"><rect x="0" y="0" width="800" height="800" style="fill: rgb(176, 196, 222); fill-opacity: 1;"/><defs id="defs-293e04"><g class="clips"/><g class="gradients"/></defs><g class="bglayer"/><g class="layer-below"><g class="imagelayer"/><g class="shapelayer"/></g><g class="cartesianlayer"/><g class="polarlayer"/><g class="ternarylayer"/><g class="geolayer"/><g class="funnelarealayer"/><g class="pielayer"><g class="trace" stroke-linejoin="round" style="opacity: 1;"><g class="slice"><path class="surface" d="M334.18351346058375,438.2084395294231a90,90 0 0 0 -57.75121429388228,48.75591691391395l-122.35155124994775,-57.05346533499442a225,225 0 0 1 144.3780357347057,-121.88979228478486Z" style="pointer-events: all; stroke-width: 0; fill: rgb(99, 110, 250); fill-opacity: 1; stroke: rgb(68, 68, 68); stroke-opacity: 1;"/><g class="slicetext"><text data-notex="1" class="slicetext" transform="translate(169.45243596224427,340.2516634890215)" text-anchor="middle" x="0" y="0" style="font-family: 'Open Sans', verdana, arial, sans-serif; font-size: 12px; fill: rgb(42, 63, 95); fill-opacity: 1; white-space: pre;"><tspan class="line" dy="0em" x="0" y="0">Surprise Me!</tspan><tspan class="line" dy="1.3em" x="0" y="0">13.8%</tspan></text></g></g><g class="slice"><path class="surface" d="M276.4322991667015,486.96435644333707a90,90 0 0 0 -7.2900989381085886,52.32869850599155l-133.28669965711063,21.439582423992885a225,225 0 0 1 18.22524734527147,-130.82174626497886Z" style="pointer-events: all; stroke-width: 0; fill: rgb(239, 85, 59); fill-opacity: 1; stroke: rgb(68, 68, 68); stroke-opacity: 1;"/><g class="slicetext"><text data-notex="1" class="slicetext" transform="translate(110.17168537298872,490.3391575380999)" text-anchor="middle" x="0" y="0" style="font-family: 'Open Sans', verdana, arial, sans-serif; font-size: 12px; fill: rgb(42, 63, 95); fill-opacity: 1; white-space: pre;"><tspan class="line" dy="0em" x="0" y="0">Rock</tspan><tspan class="line" dy="1.3em" x="0" y="0">9.48%</tspan></text></g></g><g class="slice"><path class="surface" d="M269.1422002285929,539.2930549493286a90,90 0 0 0 14.214142854059503,35.989392107326374l-111.96548537602138,75.42367058498245a225,225 0 0 1 -35.53535713514876,-89.97348026831594Z" style="pointer-events: all; stroke-width: 0; fill: rgb(0, 204, 150); fill-opacity: 1; stroke: rgb(68, 68, 68); stroke-opacity: 1;"/><g class="slicetext"><text data-notex="1" class="slicetext" transform="translate(99.4376075562258,606.547186630208)" text-anchor="middle" x="0" y="0" style="font-family: 'Open Sans', verdana, arial, sans-serif; font-size: 12px; fill: rgb(42, 63, 95); fill-opacity: 1; white-space: pre;"><tspan class="line" dy="0em" x="0" y="0">Rap &amp; Hip Hop</tspan><tspan class="line" dy="1.3em" x="0" y="0">6.9%</tspan></text></g></g><g class="slice"><path class="surface" d="M283.3563430826524,575.282447056655a90,90 0 0 0 23.912889558667246,24.057241153610306l-76.09615103802051,111.5095323153979a225,225 0 0 1 -59.782223896668114,-60.143102884025765Z" style="pointer-events: all; stroke-width: 0; fill: rgb(171, 99, 250); fill-opacity: 1; stroke: rgb(68, 68, 68); stroke-opacity: 1;"/><g class="slicetext"><text data-notex="1" class="slicetext" transform="translate(140.75496760563755,688.4181398851076)" text-anchor="middle" x="0" y="0" style="font-family: 'Open Sans', verdana, arial, sans-serif; font-size: 12px; fill: rgb(42, 63, 95); fill-opacity: 1; white-space: pre;"><tspan class="line" dy="0em" x="0" y="0">Indie / Alternative</tspan><tspan class="line" dy="1.3em" x="0" y="0">6.03%</tspan></text></g></g><g class="slice"><path class="surface" d="M307.26923264131966,599.3396882102653a90,90 0 0 0 31.11902056671669,13.49754414463024l-29.417620187945474,131.75584853234326a225,225 0 0 1 -77.79755141679172,-33.7438603615756Z" style="pointer-events: all; stroke-width: 0; fill: rgb(255, 161, 90); fill-opacity: 1; stroke: rgb(68, 68, 68); stroke-opacity: 1;"/><g class="slicetext"><text data-notex="1" class="slicetext" transform="translate(191.22167571462074,741.8377238065885)" text-anchor="middle" x="0" y="0" style="font-family: 'Open Sans', verdana, arial, sans-serif; font-size: 12px; fill: rgb(42, 63, 95); fill-opacity: 1; white-space: pre;"><tspan class="line" dy="0em" x="0" y="0">Psychedelic / Space Rock</tspan><tspan class="line" dy="1.3em" x="0" y="0">6.03%</tspan></text></g></g><g class="slice"><path class="surface" d="M338.38825320803636,612.8372323548955a90,90 0 0 0 29.07317544595286,1.6640601934552706l14.192142980983812,134.25193882252617a225,225 0 0 1 -72.68293861488215,-4.160150483638176Z" style="pointer-events: all; stroke-width: 0; fill: rgb(25, 211, 243); fill-opacity: 1; stroke: rgb(68, 68, 68); stroke-opacity: 1;"/><g class="slicetext"><text data-notex="1" class="slicetext" transform="translate(307.5372585859142,774.4470988065885)" text-anchor="middle" x="0" y="0" style="font-family: 'Open Sans', verdana, arial, sans-serif; font-size: 12px; fill: rgb(42, 63, 95); fill-opacity: 1; white-space: pre;"><tspan class="line" dy="0em" x="0" y="0">Math Rock</tspan><tspan class="line" dy="1.3em" x="0" y="0">5.17%</tspan></text></g><path class="textline" stroke-width="1.5" d="M345.1427273359142,749.6323452658618V777.7517863065885h-8.15234375" fill="none" style="stroke: rgb(42, 63, 95); stroke-opacity: 1;"/></g><g class="slice"><path class="surface" d="M367.46142865398923,614.5012925483508a90,90 0 0 0 28.08262387371986,-7.706157486437587l56.3160787915636,122.6927025928698a225,225 0 0 1 -70.20655968429965,19.265393716093968Z" style="pointer-events: all; stroke-width: 0; fill: rgb(255, 102, 146); fill-opacity: 1; stroke: rgb(68, 68, 68); stroke-opacity: 1;"/><g class="slicetext"><text data-notex="1" class="slicetext" transform="translate(453.02168509854044,755.8693329142944)" text-anchor="middle" x="0" y="0" style="font-family: 'Open Sans', verdana, arial, sans-serif; font-size: 12px; fill: rgb(42, 63, 95); fill-opacity: 1; white-space: pre;"><tspan class="line" dy="0em" x="0" y="0">Electronic</tspan><tspan class="line" dy="1.3em" x="0" y="0">5.17%</tspan></text></g><path class="textline" stroke-width="1.5" d="M417.54121634854044,741.9789011764423V759.1740204142944h8.15234375" fill="none" style="stroke: rgb(42, 63, 95); stroke-opacity: 1;"/></g><g class="slice"><path class="surface" d="M395.5440525277091,606.7951350619132a90,90 0 0 0 20.514035587393206,-13.025531279289716l87.0871321726534,103.15440567393522a225,225 0 0 1 -51.28508896848301,32.563828198224286Z" style="pointer-events: all; stroke-width: 0; fill: rgb(182, 232, 128); fill-opacity: 1; stroke: rgb(68, 68, 68); stroke-opacity: 1;"/><g class="slicetext"><text data-notex="1" class="slicetext" transform="translate(554.337227478235,723.2599579142944)" text-anchor="middle" x="0" y="0" style="font-family: 'Open Sans', verdana, arial, sans-serif; font-size: 12px; fill: rgb(42, 63, 95); fill-opacity: 1; white-space: pre;"><tspan class="line" dy="0em" x="0" y="0">Virtuoso Instrumentalist</tspan><tspan class="line" dy="1.3em" x="0" y="0">4.31%</tspan></text></g></g><g class="slice"><path class="surface" d="M416.0580881151023,593.7696037826234a90,90 0 0 0 16.281600095162982,-18.038836423943106l111.50953231539788,76.09615103802057a225,225 0 0 1 -40.70400023790745,45.09709105985776Z" style="pointer-events: all; stroke-width: 0; fill: rgb(255, 151, 255); fill-opacity: 1; stroke: rgb(68, 68, 68); stroke-opacity: 1;"/><g class="slicetext"><text data-notex="1" class="slicetext" transform="translate(560.6785897949322,679.7705657423547)" text-anchor="middle" x="0" y="0" style="font-family: 'Open Sans', verdana, arial, sans-serif; font-size: 12px; fill: rgb(42, 63, 95); fill-opacity: 1; white-space: pre;"><tspan class="line" dy="0em" x="0" y="0">Post-Rock</tspan><tspan class="line" dy="1.3em" x="0" y="0">4.31%</tspan></text></g></g><g class="slice"><path class="surface" d="M432.33968821026525,575.7307673586804a90,90 0 0 0 10.862235712397377,-21.737110123401983l127.80288588399394,43.490485852917594a225,225 0 0 1 -27.15558928099344,54.342775308504955Z" style="pointer-events: all; stroke-width: 0; fill: rgb(254, 203, 82); fill-opacity: 1; stroke: rgb(68, 68, 68); stroke-opacity: 1;"/><g class="slicetext"><text data-notex="1" class="slicetext" transform="translate(609.0781112759815,625.5294628192872)" text-anchor="middle" x="0" y="0" style="font-family: 'Open Sans', verdana, arial, sans-serif; font-size: 12px; fill: rgb(42, 63, 95); fill-opacity: 1; white-space: pre;"><tspan class="line" dy="0em" x="0" y="0">Jazz / Big Band</tspan><tspan class="line" dy="1.3em" x="0" y="0">4.31%</tspan></text></g></g><g class="slice"><path class="surface" d="M443.2019239226626,553.9936572352784a90,90 0 0 0 4.6510141836820935,-23.850748169643936l134.77940715951706,7.714363598451691a225,225 0 0 1 -11.627535459205234,59.62687042410984Z" style="pointer-events: all; stroke-width: 0; fill: rgb(198, 202, 253); fill-opacity: 1; stroke: rgb(68, 68, 68); stroke-opacity: 1;"/><g class="slicetext"><text data-notex="1" class="slicetext" transform="translate(664.4769569180821,565.3575578791963)" text-anchor="middle" x="0" y="0" style="font-family: 'Open Sans', verdana, arial, sans-serif; font-size: 12px; fill: rgb(42, 63, 95); fill-opacity: 1; white-space: pre;"><tspan class="line" dy="0em" x="0" y="0">Avant-Garde / Experimental</tspan><tspan class="line" dy="1.3em" x="0" y="0">4.31%</tspan></text></g></g><g class="slice"><path class="surface" d="M447.8529381063447,530.1429090656345a90,90 0 0 0 -0.9951383349375988,-19.435964014962845l133.2866996571107,-21.439582423992572a225,225 0 0 1 2.487845837343997,48.58991003740711Z" style="pointer-events: all; stroke-width: 0; fill: rgb(247, 167, 153); fill-opacity: 1; stroke: rgb(68, 68, 68); stroke-opacity: 1;"/><g class="slicetext"><text data-notex="1" class="slicetext" transform="translate(615.6080002834466,510.1475551456499)" text-anchor="middle" x="0" y="0" style="font-family: 'Open Sans', verdana, arial, sans-serif; font-size: 12px; fill: rgb(42, 63, 95); fill-opacity: 1; white-space: pre;"><tspan class="line" dy="0em" x="0" y="0">Alt Metal</tspan><tspan class="line" dy="1.3em" x="0" y="0">3.45%</tspan></text></g></g><g class="slice"><path class="surface" d="M446.85779977140714,510.7069450506716a90,90 0 0 0 -3.4829251888389536,-14.1873030191164l128.06231187385225,-42.72053695266717a225,225 0 0 1 8.707312972097384,35.468257547791Z" style="pointer-events: all; stroke-width: 0; fill: rgb(51, 255, 201); fill-opacity: 1; stroke: rgb(68, 68, 68); stroke-opacity: 1;"/><g class="slicetext"><text data-notex="1" class="slicetext" transform="translate(601.4921402757113,467.124787362325)" text-anchor="middle" x="0" y="0" style="font-family: 'Open Sans', verdana, arial, sans-serif; font-size: 12px; fill: rgb(42, 63, 95); fill-opacity: 1; white-space: pre;"><tspan class="line" dy="0em" x="0" y="0">Metal</tspan><tspan class="line" dy="1.3em" x="0" y="0">2.59%</tspan></text></g></g><g class="slice"><path class="surface" d="M443.37487458256817,496.51964203155524a90,90 0 0 0 -5.73229316050597,-13.436932311703249l119.46387213309329,-62.87593542022204a225,225 0 0 1 14.330732901264923,33.59233077925812Z" style="pointer-events: all; stroke-width: 0; fill: rgb(224, 198, 253); fill-opacity: 1; stroke: rgb(68, 68, 68); stroke-opacity: 1;"/><g class="slicetext"><text data-notex="1" class="slicetext" transform="translate(615.5756174992912,430.8965428410592)" text-anchor="middle" x="0" y="0" style="font-family: 'Open Sans', verdana, arial, sans-serif; font-size: 12px; fill: rgb(42, 63, 95); fill-opacity: 1; white-space: pre;"><tspan class="line" dy="0em" x="0" y="0">Punk &amp; Grunge</tspan><tspan class="line" dy="1.3em" x="0" y="0">2.59%</tspan></text></g></g><g class="slice"><path class="surface" d="M437.6425814220622,483.08270971985195a90,90 0 0 0 -7.830632662702385,-12.33253935445157l107.71792313903971,-81.37474445189939a225,225 0 0 1 19.576581656755963,30.831348386128923Z" style="pointer-events: all; stroke-width: 0; fill: rgb(255, 219, 192); fill-opacity: 1; stroke: rgb(68, 68, 68); stroke-opacity: 1;"/><g class="slicetext"><text data-notex="1" class="slicetext" transform="translate(591.0345982157902,396.40375722026937)" text-anchor="middle" x="0" y="0" style="font-family: 'Open Sans', verdana, arial, sans-serif; font-size: 12px; fill: rgb(42, 63, 95); fill-opacity: 1; white-space: pre;"><tspan class="line" dy="0em" x="0" y="0">Blues &amp; Soul</tspan><tspan class="line" dy="1.3em" x="0" y="0">2.59%</tspan></text></g></g><g class="slice"><path class="surface" d="M429.81194875935984,470.7501703654004a90,90 0 0 0 -6.286403050215313,-7.446222585285705l98.28831856371674,-92.54407832982795a225,225 0 0 1 15.716007625538282,18.61555646321426Z" style="pointer-events: all; stroke-width: 0; fill: rgb(122, 230, 248); fill-opacity: 1; stroke: rgb(68, 68, 68); stroke-opacity: 1;"/><g class="slicetext"><text data-notex="1" class="slicetext" transform="translate(579.1388532065587,363.79438222026937)" text-anchor="middle" x="0" y="0" style="font-family: 'Open Sans', verdana, arial, sans-serif; font-size: 12px; fill: rgb(42, 63, 95); fill-opacity: 1; white-space: pre;"><tspan class="line" dy="0em" x="0" y="0">Doom / Stoner</tspan><tspan class="line" dy="1.3em" x="0" y="0">1.72%</tspan></text></g><path class="textline" stroke-width="1.5" d="M529.9240094565587,379.8547797122443V367.09906972026937h8.15234375" fill="none" style="stroke: rgb(42, 63, 95); stroke-opacity: 1;"/></g><g class="slice"><path class="surface" d="M423.5255457091445,463.3039477801147a90,90 0 0 0 -7.0546301630772525,-6.722892782246027l87.70637331910088,-102.62841750319699a225,225 0 0 1 17.63657540769313,16.807231955615066Z" style="pointer-events: all; stroke-width: 0; fill: rgb(255, 204, 219); fill-opacity: 1; stroke: rgb(68, 68, 68); stroke-opacity: 1;"/><g class="slicetext"><text data-notex="1" class="slicetext" transform="translate(560.4536935504909,331.18500722026937)" text-anchor="middle" x="0" y="0" style="font-family: 'Open Sans', verdana, arial, sans-serif; font-size: 12px; fill: rgb(42, 63, 95); fill-opacity: 1; white-space: pre;"><tspan class="line" dy="0em" x="0" y="0">Folk / Country</tspan><tspan class="line" dy="1.3em" x="0" y="0">1.72%</tspan></text></g><path class="textline" stroke-width="1.5" d="M513.2232248004909,362.1173720664593V334.48969472026937h8.15234375" fill="none" style="stroke: rgb(42, 63, 95); stroke-opacity: 1;"/></g><g class="slice"><path class="surface" d="M416.47091554606726,456.58105499786865a90,90 0 0 0 -7.7401481873870015,-5.920743208134002l76.09615103802037,-111.50953231539799a225,225 0 0 1 19.350370468467503,14.801858020335004Z" style="pointer-events: all; stroke-width: 0; fill: rgb(232, 248, 214); fill-opacity: 1; stroke: rgb(68, 68, 68); stroke-opacity: 1;"/><g class="slicetext"><text data-notex="1" class="slicetext" transform="translate(519.6830585055854,298.57563222026937)" text-anchor="middle" x="0" y="0" style="font-family: 'Open Sans', verdana, arial, sans-serif; font-size: 12px; fill: rgb(42, 63, 95); fill-opacity: 1; white-space: pre;"><tspan class="line" dy="0em" x="0" y="0">Djent</tspan><tspan class="line" dy="1.3em" x="0" y="0">1.72%</tspan></text></g><path class="textline" stroke-width="1.5" d="M494.7025897555854,346.2896143081882V301.88031972026937h8.15234375" fill="none" style="stroke: rgb(42, 63, 95); stroke-opacity: 1;"/></g><g class="slice"><path class="surface" d="M408.7307673586803,450.6603117897347a90,90 0 0 0 -8.3349200510846,-5.049178333293753l63.59377096139347,-119.08329981533862a225,225 0 0 1 20.8373001277115,12.622945833234382Z" style="pointer-events: all; stroke-width: 0; fill: rgb(255, 253, 255); fill-opacity: 1; stroke: rgb(68, 68, 68); stroke-opacity: 1;"/><g class="slicetext"><text data-notex="1" class="slicetext" transform="translate(510.3409605841653,265.96625722026937)" text-anchor="middle" x="0" y="0" style="font-family: 'Open Sans', verdana, arial, sans-serif; font-size: 12px; fill: rgb(42, 63, 95); fill-opacity: 1; white-space: pre;"><tspan class="line" dy="0em" x="0" y="0">Jam Band</tspan><tspan class="line" dy="1.3em" x="0" y="0">1.72%</tspan></text></g><path class="textline" stroke-width="1.5" d="M474.5792418341653,332.55707242568985V269.27094472026937h8.15234375" fill="none" style="stroke: rgb(42, 63, 95); stroke-opacity: 1;"/></g><g class="slice"><path class="surface" d="M400.39584730759566,445.61113345644094a90,90 0 0 0 -8.831972597873317,-4.118416459003401l50.34581206458349,-125.26092450384373a225,225 0 0 1 22.079931494683294,10.296041147508504Z" style="pointer-events: all; stroke-width: 0; fill: rgb(255, 233, 183); fill-opacity: 1; stroke: rgb(68, 68, 68); stroke-opacity: 1;"/><g class="slicetext"><text data-notex="1" class="slicetext" transform="translate(488.50707764165696,233.35688222026937)" text-anchor="middle" x="0" y="0" style="font-family: 'Open Sans', verdana, arial, sans-serif; font-size: 12px; fill: rgb(42, 63, 95); fill-opacity: 1; white-space: pre;"><tspan class="line" dy="0em" x="0" y="0">Bluegrass</tspan><tspan class="line" dy="1.3em" x="0" y="0">1.72%</tspan></text></g><path class="textline" stroke-width="1.5" d="M453.08910889165696,321.0807479167536V236.66156972026937h8.15234375" fill="none" style="stroke: rgb(42, 63, 95); stroke-opacity: 1;"/></g><g class="slice"><path class="surface" d="M391.5638747097223,441.4927169974375a90,90 0 0 0 -9.22547834110151,-3.1393699172353084l36.50759455293123,-129.9699793796967a225,225 0 0 1 23.063695852753774,7.84842479308827Z" style="pointer-events: all; stroke-width: 0; fill: rgb(8, 25, 239); fill-opacity: 1; stroke: rgb(68, 68, 68); stroke-opacity: 1;"/><g class="slicetext"><text data-notex="1" class="slicetext" transform="translate(455.46461183819525,200.74750722026937)" text-anchor="middle" x="0" y="0" style="font-family: 'Open Sans', verdana, arial, sans-serif; font-size: 12px; fill: rgb(42, 63, 95); fill-opacity: 1; white-space: pre;"><tspan class="line" dy="0em" x="0" y="0">Funk</tspan><tspan class="line" dy="1.3em" x="0" y="0">1.72%</tspan></text></g><path class="textline" stroke-width="1.5" d="M430.48414308819525,311.9951901933432V204.05219472026937h8.15234375" fill="none" style="stroke: rgb(42, 63, 95); stroke-opacity: 1;"/></g><g class="slice"><path class="surface" d="M382.3383963686208,438.3533470802022a90,90 0 0 0 -9.510823785715582,-2.1235171335409406l22.241358874357857,-133.1552550800081a225,225 0 0 1 23.777059464288953,5.308792833852351Z" style="pointer-events: all; stroke-width: 0; fill: rgb(181, 39, 15); fill-opacity: 1; stroke: rgb(68, 68, 68); stroke-opacity: 1;"/><g class="slicetext"><text data-notex="1" class="slicetext" transform="translate(503.21296072990845,168.13813222026937)" text-anchor="middle" x="0" y="0" style="font-family: 'Open Sans', verdana, arial, sans-serif; font-size: 12px; fill: rgb(42, 63, 95); fill-opacity: 1; white-space: pre;"><tspan class="line" dy="0em" x="0" y="0">Post-Hardcore / Emo / Screamo</tspan><tspan class="line" dy="1.3em" x="0" y="0">1.72%</tspan></text></g><path class="textline" stroke-width="1.5" d="M407.02936697990845,305.4069191127611V171.44281972026937h8.15234375" fill="none" style="stroke: rgb(42, 63, 95); stroke-opacity: 1;"/></g><g class="slice"><path class="surface" d="M372.82757258290525,436.22982994666125a90,90 0 0 0 -9.684663517271252,-1.0827680530060093l7.714363598450982,-134.77940715951712a225,225 0 0 1 24.211658793178128,2.706920132515023Z" style="pointer-events: all; stroke-width: 0; fill: rgb(0, 102, 75); fill-opacity: 1; stroke: rgb(68, 68, 68); stroke-opacity: 1;"/><g class="slicetext"><text data-notex="1" class="slicetext" transform="translate(421.49586012176,135.52875722026937)" text-anchor="middle" x="0" y="0" style="font-family: 'Open Sans', verdana, arial, sans-serif; font-size: 12px; fill: rgb(42, 63, 95); fill-opacity: 1; white-space: pre;"><tspan class="line" dy="0em" x="0" y="0">Proto-Prog</tspan><tspan class="line" dy="1.3em" x="0" y="0">1.72%</tspan></text></g><path class="textline" stroke-width="1.5" d="M382.99976637176,301.3931761297133V138.83344472026937h8.15234375" fill="none" style="stroke: rgb(42, 63, 95); stroke-opacity: 1;"/></g><g class="slice"><path class="surface" d="M363.142909065634,435.14706189365523a90,90 0 0 0 -4.872082521471188,-0.14665440930488102l0.4062398162442016,-134.99938877347444a225,225 0 0 1 12.180206303677968,0.36663602326220257Z" style="pointer-events: all; stroke-width: 0; fill: rgb(118, 8, 239); fill-opacity: 1; stroke: rgb(68, 68, 68); stroke-opacity: 1;"/><g class="slicetext"><text data-notex="1" class="slicetext" transform="translate(431.1563707869115,102.91938222026937)" text-anchor="middle" x="0" y="0" style="font-family: 'Open Sans', verdana, arial, sans-serif; font-size: 12px; fill: rgb(42, 63, 95); fill-opacity: 1; white-space: pre;"><tspan class="line" dy="0em" x="0" y="0">Classical / Orchestral</tspan><tspan class="line" dy="1.3em" x="0" y="0">0.862%</tspan></text></g><path class="textline" stroke-width="1.5" d="M364.7696520369115,300.10186347748646V106.22406972026937h8.15234375" fill="none" style="stroke: rgb(42, 63, 95); stroke-opacity: 1;"/></g><g class="slice"><path class="surface" d="M358.2708265441628,435.0004074843504a90,90 0 0 0 -4.872876902388022,0.11732990227100118l-6.9030755373378305,-134.82339392006793a225,225 0 0 1 12.182192255970053,-0.29332475567750294Z" style="pointer-events: all; stroke-width: 0; fill: rgb(243, 105, 0); fill-opacity: 1; stroke: rgb(68, 68, 68); stroke-opacity: 1;"/><g class="slicetext"><text data-notex="1" class="slicetext" transform="translate(317.90039035477827,157.3682519793033)" text-anchor="middle" x="0" y="0" style="font-family: 'Open Sans', verdana, arial, sans-serif; font-size: 12px; fill: rgb(42, 63, 95); fill-opacity: 1; white-space: pre;"><tspan class="line" dy="0em" x="0" y="0">Industrial</tspan><tspan class="line" dy="1.3em" x="0" y="0">0.862%</tspan></text></g><path class="textline" stroke-width="1.5" d="M352.58398410477827,300.065194396637V160.6729394793033h-8.15234375" fill="none" style="stroke: rgb(42, 63, 95); stroke-opacity: 1;"/></g><g class="slice"><path class="surface" d="M353.3979496417748,435.11773738662134a90,90 0 0 0 -4.859378295764415,0.3809700650278842l-14.192142980984453,-134.2519388225261a225,225 0 0 1 12.148445739411038,-0.9524251625697104Z" style="pointer-events: all; stroke-width: 0; fill: rgb(8, 136, 158); fill-opacity: 1; stroke: rgb(68, 68, 68); stroke-opacity: 1;"/><g class="slicetext"><text data-notex="1" class="slicetext" transform="translate(274.38685853043313,189.9776269793033)" text-anchor="middle" x="0" y="0" style="font-family: 'Open Sans', verdana, arial, sans-serif; font-size: 12px; fill: rgb(42, 63, 95); fill-opacity: 1; white-space: pre;"><tspan class="line" dy="0em" x="0" y="0">Acoustic &amp; Flamenco</tspan><tspan class="line" dy="1.3em" x="0" y="0">0.862%</tspan></text></g><path class="textline" stroke-width="1.5" d="M340.41420228043313,300.68829785638366V193.2823144793033h-8.15234375" fill="none" style="stroke: rgb(42, 63, 95); stroke-opacity: 1;"/></g><g class="slice"><path class="surface" d="M348.5385713460104,435.49870745164924a90,90 0 0 0 -4.8316262953393725,0.6434927769437195l-21.43958242399351,-133.28669965711052a225,225 0 0 1 12.07906573834843,-1.6087319423592987Z" style="pointer-events: all; stroke-width: 0; fill: rgb(255, 0, 73); fill-opacity: 1; stroke: rgb(68, 68, 68); stroke-opacity: 1;"/><g class="slicetext"><text data-notex="1" class="slicetext" transform="translate(260.5811588807929,222.5870019793033)" text-anchor="middle" x="0" y="0" style="font-family: 'Open Sans', verdana, arial, sans-serif; font-size: 12px; fill: rgb(42, 63, 95); fill-opacity: 1; white-space: pre;"><tspan class="line" dy="0em" x="0" y="0">Metalcore / Hardcore</tspan><tspan class="line" dy="1.3em" x="0" y="0">0.862%</tspan></text></g><path class="textline" stroke-width="1.5" d="M328.2960026307929,301.96934618691955V225.8916894793033h-8.15234375" fill="none" style="stroke: rgb(42, 63, 95); stroke-opacity: 1;"/></g><g class="slice"><path class="surface" d="M343.706945050671,436.14220022859297a90,90 0 0 0 -4.789702302511748,0.9041280136724368l-28.62413587776113,-131.93050763660187a225,225 0 0 1 11.97425575627937,-2.260320034181092Z" style="pointer-events: all; stroke-width: 0; fill: rgb(132, 216, 42); fill-opacity: 1; stroke: rgb(68, 68, 68); stroke-opacity: 1;"/><g class="slicetext"><text data-notex="1" class="slicetext" transform="translate(255.37821117336847,255.1963769793033)" text-anchor="middle" x="0" y="0" style="font-family: 'Open Sans', verdana, arial, sans-serif; font-size: 12px; fill: rgb(42, 63, 95); fill-opacity: 1; white-space: pre;"><tspan class="line" dy="0em" x="0" y="0">Pop / Baroque Pop</tspan><tspan class="line" dy="1.3em" x="0" y="0">0.862%</tspan></text></g><path class="textline" stroke-width="1.5" d="M316.26492992336847,303.90458185276964V258.5010644793033h-8.15234375" fill="none" style="stroke: rgb(42, 63, 95); stroke-opacity: 1;"/></g><g class="slice"><path class="surface" d="M338.91724274815925,437.0463282422654a90,90 0 0 0 -4.733729287575918,1.1621112871578134l-35.72472980912501,-130.18734070586515a225,225 0 0 1 11.834323218939794,-2.9052782178945336Z" style="pointer-events: all; stroke-width: 0; fill: rgb(255, 49, 255); fill-opacity: 1; stroke: rgb(68, 68, 68); stroke-opacity: 1;"/><g class="slicetext"><text data-notex="1" class="slicetext" transform="translate(243.95392961733762,287.8057519793033)" text-anchor="middle" x="0" y="0" style="font-family: 'Open Sans', verdana, arial, sans-serif; font-size: 12px; fill: rgb(42, 63, 95); fill-opacity: 1; white-space: pre;"><tspan class="line" dy="0em" x="0" y="0">World / Traditional</tspan><tspan class="line" dy="1.3em" x="0" y="0">0.862%</tspan></text></g></g></g></g><g class="treemaplayer"/><g class="sunburstlayer"/><g class="glimages"/><defs id="topdefs-293e04"><g class="clips"/></defs><g class="layer-above"><g class="imagelayer"/><g class="shapelayer"/></g><g class="infolayer"><g class="g-gtitle"><text class="gtitle" x="40" y="150" text-anchor="start" dy="0em" style="font-family: 'Open Sans', verdana, arial, sans-serif; font-size: 17px; fill: rgb(42, 63, 95); opacity: 1; font-weight: normal; white-space: pre;">u/_awwsmm Top Genres</text></g></g></svg>