<svg class="main-svg" xmlns="http://www.w3.org/2000/svg" xmlns:xlink="http://www.w3.org/1999/xlink" width="800" height="800" style="" viewBox="0 0 800 800"><rect x="0" y="0" width="800" height="800" style="fill: rgb(176, 196, 222); fill-opacity: 1;"/><defs id="defs-bb78b5"><g class="clips"/><g class="gradients"/></defs><g class="bglayer"/><g class="layer-below"><g class="imagelayer"/><g class="shapelayer"/></g><g class="cartesianlayer"/><g class="polarlayer"/><g class="ternarylayer"/><g class="geolayer"/><g class="funnelarealayer"/><g class="pielayer"><g class="trace" stroke-linejoin="round" style="opacity: 1;"><g class="slice"><path class="surface" d="M375.15594845636554,437.81775776790664a90,90 0 0 0 -59.22364928966404,49.14659867543043l-122.35155124994775,-57.05346533499442a225,225 0 0 1 148.0591232241601,-122.86649668857608Z" style="pointer-events: all; stroke-width: 0; fill: rgb(99, 110, 250); fill-opacity: 1; stroke: rgb(68, 68, 68); stroke-opacity: 1;"/><g class="slicetext"><text data-notex="1" class="slicetext" transform="translate(204.94391854137982,338.8935866121946)" text-anchor="middle" x="0" y="0" style="font-family: 'Open Sans', verdana, arial, sans-serif; font-size: 12px; fill: rgb(42, 63, 95); fill-opacity: 1; white-space: pre;"><tspan class="line" dy="0em" x="0" y="0">Jazz / Big Band</tspan><tspan class="line" dy="1.3em" x="0" y="0">14.1%</tspan></text></g></g><g class="slice"><path class="surface" d="M315.9322991667015,486.96435644333707a90,90 0 0 0 -6.6058972141931465,56.074950842680806l-132.26039707123746,27.05896092902677a225,225 0 0 1 16.514743035482866,-140.187377106702Z" style="pointer-events: all; stroke-width: 0; fill: rgb(239, 85, 59); fill-opacity: 1; stroke: rgb(68, 68, 68); stroke-opacity: 1;"/><g class="slicetext"><text data-notex="1" class="slicetext" transform="translate(130.64286266138762,495.14809120011813)" text-anchor="middle" x="0" y="0" style="font-family: 'Open Sans', verdana, arial, sans-serif; font-size: 12px; fill: rgb(42, 63, 95); fill-opacity: 1; white-space: pre;"><tspan class="line" dy="0em" x="0" y="0">Surprise Me!</tspan><tspan class="line" dy="1.3em" x="0" y="0">10.2%</tspan></text></g></g><g class="slice"><path class="surface" d="M309.3264019525084,543.0393072860179a90,90 0 0 0 28.097902821805363,48.97495122029149l-90.11354283852943,100.52138775946399a225,225 0 0 1 -70.2447570545134,-122.43737805072871Z" style="pointer-events: all; stroke-width: 0; fill: rgb(0, 204, 150); fill-opacity: 1; stroke: rgb(68, 68, 68); stroke-opacity: 1;"/><g class="slicetext"><text data-notex="1" class="slicetext" transform="translate(116.70149418672997,637.701233919696)" text-anchor="middle" x="0" y="0" style="font-family: 'Open Sans', verdana, arial, sans-serif; font-size: 12px; fill: rgb(42, 63, 95); fill-opacity: 1; white-space: pre;"><tspan class="line" dy="0em" x="0" y="0">Avant-Garde / Experimental</tspan><tspan class="line" dy="1.3em" x="0" y="0">10.2%</tspan></text></g></g><g class="slice"><path class="surface" d="M337.4243047743137,592.0142585063094a90,90 0 0 0 34.42019752154491,19.251583155108417l-38.483246556212066,129.39876249212662a225,225 0 0 1 -86.05049380386227,-48.12895788777104Z" style="pointer-events: all; stroke-width: 0; fill: rgb(171, 99, 250); fill-opacity: 1; stroke: rgb(68, 68, 68); stroke-opacity: 1;"/><g class="slicetext"><text data-notex="1" class="slicetext" transform="translate(252.1868396291947,730.4863592415686)" text-anchor="middle" x="0" y="0" style="font-family: 'Open Sans', verdana, arial, sans-serif; font-size: 12px; fill: rgb(42, 63, 95); fill-opacity: 1; white-space: pre;"><tspan class="line" dy="0em" x="0" y="0">Electronic</tspan><tspan class="line" dy="1.3em" x="0" y="0">7.03%</tspan></text></g></g><g class="slice"><path class="surface" d="M371.8445022958586,611.2658416614178a90,90 0 0 0 34.96541686174959,3.2513377248810684l13.964878736412311,134.27576907944822a225,225 0 0 1 -87.41354215437397,-8.128344312202671Z" style="pointer-events: all; stroke-width: 0; fill: rgb(255, 161, 90); fill-opacity: 1; stroke: rgb(68, 68, 68); stroke-opacity: 1;"/><g class="slicetext"><text data-notex="1" class="slicetext" transform="translate(339.062272047694,763.0957342415686)" text-anchor="middle" x="0" y="0" style="font-family: 'Open Sans', verdana, arial, sans-serif; font-size: 12px; fill: rgb(42, 63, 95); fill-opacity: 1; white-space: pre;"><tspan class="line" dy="0em" x="0" y="0">Math Rock</tspan><tspan class="line" dy="1.3em" x="0" y="0">6.25%</tspan></text></g><path class="textline" stroke-width="1.5" d="M376.667740797694,749.0335175292481V766.4004217415686h-8.15234375" fill="none" style="stroke: rgb(42, 63, 95); stroke-opacity: 1;"/></g><g class="slice"><path class="surface" d="M406.8099191576082,614.5171793862988a90,90 0 0 0 25.584583533594664,-6.557106568505095l52.3417540368043,124.44010922669057a225,225 0 0 1 -63.961458833986654,16.392766421262735Z" style="pointer-events: all; stroke-width: 0; fill: rgb(25, 211, 243); fill-opacity: 1; stroke: rgb(68, 68, 68); stroke-opacity: 1;"/><g class="slicetext"><text data-notex="1" class="slicetext" transform="translate(502.5749726090862,758.5765355725907)" text-anchor="middle" x="0" y="0" style="font-family: 'Open Sans', verdana, arial, sans-serif; font-size: 12px; fill: rgb(42, 63, 95); fill-opacity: 1; white-space: pre;"><tspan class="line" dy="0em" x="0" y="0">Doom / Stoner</tspan><tspan class="line" dy="1.3em" x="0" y="0">4.69%</tspan></text></g><path class="textline" stroke-width="1.5" d="M453.3601288590862,742.9556055802334V761.8812230725907h8.15234375" fill="none" style="stroke: rgb(42, 63, 95); stroke-opacity: 1;"/></g><g class="slice"><path class="surface" d="M432.3945026912029,607.9600728177937a90,90 0 0 0 22.579492392245214,-13.701572334836499l86.21099262517212,103.88775072443583a225,225 0 0 1 -56.448730980613036,34.25393083709125Z" style="pointer-events: all; stroke-width: 0; fill: rgb(255, 102, 146); fill-opacity: 1; stroke: rgb(68, 68, 68); stroke-opacity: 1;"/><g class="slicetext"><text data-notex="1" class="slicetext" transform="translate(571.8919518361173,725.9671605725907)" text-anchor="middle" x="0" y="0" style="font-family: 'Open Sans', verdana, arial, sans-serif; font-size: 12px; fill: rgb(42, 63, 95); fill-opacity: 1; white-space: pre;"><tspan class="line" dy="0em" x="0" y="0">Indie / Alternative</tspan><tspan class="line" dy="1.3em" x="0" y="0">4.69%</tspan></text></g></g><g class="slice"><path class="surface" d="M454.9739950834481,594.2585004829572a90,90 0 0 0 15.106019300625348,-16.040632130234815l108.87002157611015,79.82680252908361a225,225 0 0 1 -37.76504825156337,40.10158032558704Z" style="pointer-events: all; stroke-width: 0; fill: rgb(182, 232, 128); fill-opacity: 1; stroke: rgb(68, 68, 68); stroke-opacity: 1;"/><g class="slicetext"><text data-notex="1" class="slicetext" transform="translate(594.2017029983829,683.6143785596364)" text-anchor="middle" x="0" y="0" style="font-family: 'Open Sans', verdana, arial, sans-serif; font-size: 12px; fill: rgb(42, 63, 95); fill-opacity: 1; white-space: pre;"><tspan class="line" dy="0em" x="0" y="0">Alt Metal</tspan><tspan class="line" dy="1.3em" x="0" y="0">3.91%</tspan></text></g></g><g class="slice"><path class="surface" d="M470.0800143840734,578.2178683527225a90,90 0 0 0 10.755755152200027,-19.230377774612403l125.00365430441019,50.981235867165005a225,225 0 0 1 -26.889387880500067,48.075944436531Z" style="pointer-events: all; stroke-width: 0; fill: rgb(255, 151, 255); fill-opacity: 1; stroke: rgb(68, 68, 68); stroke-opacity: 1;"/><g class="slicetext"><text data-notex="1" class="slicetext" transform="translate(644.4926289869816,635.4131801162183)" text-anchor="middle" x="0" y="0" style="font-family: 'Open Sans', verdana, arial, sans-serif; font-size: 12px; fill: rgb(42, 63, 95); fill-opacity: 1; white-space: pre;"><tspan class="line" dy="0em" x="0" y="0">Punk &amp; Grunge</tspan><tspan class="line" dy="1.3em" x="0" y="0">3.91%</tspan></text></g></g><g class="slice"><path class="surface" d="M480.83576953627346,558.98749057811a90,90 0 0 0 5.760817998059224,-21.267502773988795l133.64488130149903,19.07998170618182a225,225 0 0 1 -14.40204499514806,53.16875693497198Z" style="pointer-events: all; stroke-width: 0; fill: rgb(254, 203, 82); fill-opacity: 1; stroke: rgb(68, 68, 68); stroke-opacity: 1;"/><g class="slicetext"><text data-notex="1" class="slicetext" transform="translate(691.9197873369487,581.6366089670593)" text-anchor="middle" x="0" y="0" style="font-family: 'Open Sans', verdana, arial, sans-serif; font-size: 12px; fill: rgb(42, 63, 95); fill-opacity: 1; white-space: pre;"><tspan class="line" dy="0em" x="0" y="0">Psychedelic / Space Rock</tspan><tspan class="line" dy="1.3em" x="0" y="0">3.91%</tspan></text></g></g><g class="slice"><path class="surface" d="M486.5965875343327,537.7199878041212a90,90 0 0 0 0.4205918519661396,-22.02990696172918l134.27576907944822,-13.964878736411945a225,225 0 0 1 -1.0514796299153488,55.07476740432294Z" style="pointer-events: all; stroke-width: 0; fill: rgb(198, 202, 253); fill-opacity: 1; stroke: rgb(68, 68, 68); stroke-opacity: 1;"/><g class="slicetext"><text data-notex="1" class="slicetext" transform="translate(658.11134881509,525.9961387222086)" text-anchor="middle" x="0" y="0" style="font-family: 'Open Sans', verdana, arial, sans-serif; font-size: 12px; fill: rgb(42, 63, 95); fill-opacity: 1; white-space: pre;"><tspan class="line" dy="0em" x="0" y="0">Post-Rock</tspan><tspan class="line" dy="1.3em" x="0" y="0">3.91%</tspan></text></g></g><g class="slice"><path class="surface" d="M487.01717938629884,515.690080842392a90,90 0 0 0 -3.5363226274032855,-17.285047866366465l128.9712851383433,-39.89245053596164a225,225 0 0 1 8.840806568508214,43.212619665916165Z" style="pointer-events: all; stroke-width: 0; fill: rgb(247, 167, 153); fill-opacity: 1; stroke: rgb(68, 68, 68); stroke-opacity: 1;"/><g class="slicetext"><text data-notex="1" class="slicetext" transform="translate(687.1175888687293,475.9420052614616)" text-anchor="middle" x="0" y="0" style="font-family: 'Open Sans', verdana, arial, sans-serif; font-size: 12px; fill: rgb(42, 63, 95); fill-opacity: 1; white-space: pre;"><tspan class="line" dy="0em" x="0" y="0">Thrash &amp; Death Metal</tspan><tspan class="line" dy="1.3em" x="0" y="0">3.13%</tspan></text></g></g><g class="slice"><path class="surface" d="M483.4808567588955,498.40503297602555a90,90 0 0 0 -6.840518734027649,-16.263018198264472l118.71050703730182,-64.28697783335835a225,225 0 0 1 17.10129683506912,40.65754549566118Z" style="pointer-events: all; stroke-width: 0; fill: rgb(51, 255, 201); fill-opacity: 1; stroke: rgb(68, 68, 68); stroke-opacity: 1;"/><g class="slicetext"><text data-notex="1" class="slicetext" transform="translate(629.8806507944846,432.00806606732107)" text-anchor="middle" x="0" y="0" style="font-family: 'Open Sans', verdana, arial, sans-serif; font-size: 12px; fill: rgb(42, 63, 95); fill-opacity: 1; white-space: pre;"><tspan class="line" dy="0em" x="0" y="0">Rock</tspan><tspan class="line" dy="1.3em" x="0" y="0">3.13%</tspan></text></g></g><g class="slice"><path class="surface" d="M476.6403380248679,482.1420147777611a90,90 0 0 0 -9.881837541910409,-14.616009861208864l103.88775072443622,-86.21099262517164a225,225 0 0 1 24.70459385477602,36.54002465302216Z" style="pointer-events: all; stroke-width: 0; fill: rgb(224, 198, 253); fill-opacity: 1; stroke: rgb(68, 68, 68); stroke-opacity: 1;"/><g class="slicetext"><text data-notex="1" class="slicetext" transform="translate(626.9859400356326,390.55858782608345)" text-anchor="middle" x="0" y="0" style="font-family: 'Open Sans', verdana, arial, sans-serif; font-size: 12px; fill: rgb(42, 63, 95); fill-opacity: 1; white-space: pre;"><tspan class="line" dy="0em" x="0" y="0">Blues &amp; Soul</tspan><tspan class="line" dy="1.3em" x="0" y="0">3.13%</tspan></text></g></g><g class="slice"><path class="surface" d="M466.7585004829575,467.5260049165522a90,90 0 0 0 -12.543402874855907,-12.407316461939752l85.07264641215237,-104.82196731808128a225,225 0 0 1 31.358507187139764,31.01829115484938Z" style="pointer-events: all; stroke-width: 0; fill: rgb(255, 219, 192); fill-opacity: 1; stroke: rgb(68, 68, 68); stroke-opacity: 1;"/><g class="slicetext"><text data-notex="1" class="slicetext" transform="translate(580.7093818286587,353.4896366166503)" text-anchor="middle" x="0" y="0" style="font-family: 'Open Sans', verdana, arial, sans-serif; font-size: 12px; fill: rgb(42, 63, 95); fill-opacity: 1; white-space: pre;"><tspan class="line" dy="0em" x="0" y="0">Funk</tspan><tspan class="line" dy="1.3em" x="0" y="0">3.13%</tspan></text></g></g><g class="slice"><path class="surface" d="M454.2150976081016,455.1186884546125a90,90 0 0 0 -7.122665016954006,-5.2225540654616l74.38864888672136,-112.65579841627367a225,225 0 0 1 17.806662542385013,13.056385163654Z" style="pointer-events: all; stroke-width: 0; fill: rgb(122, 230, 248); fill-opacity: 1; stroke: rgb(68, 68, 68); stroke-opacity: 1;"/><g class="slicetext"><text data-notex="1" class="slicetext" transform="translate(606.275139631807,320.8802616166503)" text-anchor="middle" x="0" y="0" style="font-family: 'Open Sans', verdana, arial, sans-serif; font-size: 12px; fill: rgb(42, 63, 95); fill-opacity: 1; white-space: pre;"><tspan class="line" dy="0em" x="0" y="0">Virtuoso Instrumentalist</tspan><tspan class="line" dy="1.3em" x="0" y="0">1.56%</tspan></text></g><path class="textline" stroke-width="1.5" d="M530.544670881807,343.54996403981716V324.1849491166503h8.15234375" fill="none" style="stroke: rgb(42, 63, 95); stroke-opacity: 1;"/></g><g class="slice"><path class="surface" d="M447.0924325911476,449.89613438915086a90,90 0 0 0 -7.600267252788058,-4.499262783679933l62.98824800753927,-119.40469259179358a225,225 0 0 1 19.000668131970144,11.248156959199832Z" style="pointer-events: all; stroke-width: 0; fill: rgb(255, 204, 219); fill-opacity: 1; stroke: rgb(68, 68, 68); stroke-opacity: 1;"/><g class="slicetext"><text data-notex="1" class="slicetext" transform="translate(608.3024045391905,288.2708866166503)" text-anchor="middle" x="0" y="0" style="font-family: 'Open Sans', verdana, arial, sans-serif; font-size: 12px; fill: rgb(42, 63, 95); fill-opacity: 1; white-space: pre;"><tspan class="line" dy="0em" x="0" y="0">Post-Hardcore / Emo / Screamo</tspan><tspan class="line" dy="1.3em" x="0" y="0">1.56%</tspan></text></g><path class="textline" stroke-width="1.5" d="M512.1188107891905,331.3830373823829V291.5755741166503h8.15234375" fill="none" style="stroke: rgb(42, 63, 95); stroke-opacity: 1;"/></g><g class="slice"><path class="surface" d="M439.49216533835954,445.39687160547095a90,90 0 0 0 -8.00467476024906,-3.7326411417442276l50.98123586716568,-125.0036543044099a225,225 0 0 1 20.01168690062265,9.331602854360568Z" style="pointer-events: all; stroke-width: 0; fill: rgb(232, 248, 214); fill-opacity: 1; stroke: rgb(68, 68, 68); stroke-opacity: 1;"/><g class="slicetext"><text data-notex="1" class="slicetext" transform="translate(541.8820776416586,255.66151161665027)" text-anchor="middle" x="0" y="0" style="font-family: 'Open Sans', verdana, arial, sans-serif; font-size: 12px; fill: rgb(42, 63, 95); fill-opacity: 1; white-space: pre;"><tspan class="line" dy="0em" x="0" y="0">Rap &amp; Hip Hop</tspan><tspan class="line" dy="1.3em" x="0" y="0">1.56%</tspan></text></g><path class="textline" stroke-width="1.5" d="M492.5891088916586,321.0807479167543V258.9661991166503h8.15234375" fill="none" style="stroke: rgb(42, 63, 95); stroke-opacity: 1;"/></g><g class="slice"><path class="surface" d="M431.48749057811045,441.6642304637267a90,90 0 0 0 -8.33199287396853,-2.9300721251442954l38.48324655621288,-129.39876249212637a225,225 0 0 1 20.82998218492132,7.325180312860738Z" style="pointer-events: all; stroke-width: 0; fill: rgb(255, 253, 255); fill-opacity: 1; stroke: rgb(68, 68, 68); stroke-opacity: 1;"/><g class="slicetext"><text data-notex="1" class="slicetext" transform="translate(497.12411564450554,223.05213661665027)" text-anchor="middle" x="0" y="0" style="font-family: 'Open Sans', verdana, arial, sans-serif; font-size: 12px; fill: rgb(42, 63, 95); fill-opacity: 1; white-space: pre;"><tspan class="line" dy="0em" x="0" y="0">Metal</tspan><tspan class="line" dy="1.3em" x="0" y="0">1.56%</tspan></text></g><path class="textline" stroke-width="1.5" d="M472.14364689450554,312.74231232228976V226.35682411665027h8.15234375" fill="none" style="stroke: rgb(42, 63, 95); stroke-opacity: 1;"/></g><g class="slice"><path class="surface" d="M423.1554977041419,438.7341583385824a90,90 0 0 0 -8.579069341581059,-2.099284912238886l25.6146425438413,-132.5476898604847a225,225 0 0 1 21.447673353952645,5.248212280597215Z" style="pointer-events: all; stroke-width: 0; fill: rgb(255, 233, 183); fill-opacity: 1; stroke: rgb(68, 68, 68); stroke-opacity: 1;"/><g class="slicetext"><text data-notex="1" class="slicetext" transform="translate(475.95979452339037,190.44276161665027)" text-anchor="middle" x="0" y="0" style="font-family: 'Open Sans', verdana, arial, sans-serif; font-size: 12px; fill: rgb(42, 63, 95); fill-opacity: 1; white-space: pre;"><tspan class="line" dy="0em" x="0" y="0">Djent</tspan><tspan class="line" dy="1.3em" x="0" y="0">1.56%</tspan></text></g><path class="textline" stroke-width="1.5" d="M450.97932577339037,306.44803429201653V193.74744911665027h8.15234375" fill="none" style="stroke: rgb(42, 63, 95); stroke-opacity: 1;"/></g><g class="slice"><path class="surface" d="M414.5764283625609,436.6348734263435a90,90 0 0 0 -8.74352468163782,-1.248280438042741l12.49935552138457,-134.4201105175488a225,225 0 0 1 21.85881170409455,3.1207010951068526Z" style="pointer-events: all; stroke-width: 0; fill: rgb(8, 25, 239); fill-opacity: 1; stroke: rgb(68, 68, 68); stroke-opacity: 1;"/><g class="slicetext"><text data-notex="1" class="slicetext" transform="translate(489.70231326030427,157.83338661665027)" text-anchor="middle" x="0" y="0" style="font-family: 'Open Sans', verdana, arial, sans-serif; font-size: 12px; fill: rgb(42, 63, 95); fill-opacity: 1; white-space: pre;"><tspan class="line" dy="0em" x="0" y="0">World / Traditional</tspan><tspan class="line" dy="1.3em" x="0" y="0">1.56%</tspan></text></g><path class="textline" stroke-width="1.5" d="M429.29996951030427,302.25853116416846V161.13807411665027h8.15234375" fill="none" style="stroke: rgb(42, 63, 95); stroke-opacity: 1;"/></g><g class="slice"><path class="surface" d="M405.83290368092304,435.3865929883008a90,90 0 0 0 -8.823775099313622,-0.3852543408487463l-0.7363071275858607,-134.99799202882193a225,225 0 0 1 22.059437748284054,0.9631358521218658Z" style="pointer-events: all; stroke-width: 0; fill: rgb(181, 39, 15); fill-opacity: 1; stroke: rgb(68, 68, 68); stroke-opacity: 1;"/><g class="slicetext"><text data-notex="1" class="slicetext" transform="translate(473.70108090720225,125.22401161665027)" text-anchor="middle" x="0" y="0" style="font-family: 'Open Sans', verdana, arial, sans-serif; font-size: 12px; fill: rgb(42, 63, 95); fill-opacity: 1; white-space: pre;"><tspan class="line" dy="0em" x="0" y="0">Classical / Orchestral</tspan><tspan class="line" dy="1.3em" x="0" y="0">1.56%</tspan></text></g><path class="textline" stroke-width="1.5" d="M407.31436215720225,300.21415014408205V128.52869911665027h8.15234375" fill="none" style="stroke: rgb(42, 63, 95); stroke-opacity: 1;"/></g><g class="slice"><path class="surface" d="M397.00912858160945,435.00133864745203a90,90 0 0 0 -8.819047739216908,0.48148196624906636l-13.964878736411222,-134.2757690794483a225,225 0 0 1 22.047619348042268,-1.2037049156226658Z" style="pointer-events: all; stroke-width: 0; fill: rgb(0, 102, 75); fill-opacity: 1; stroke: rgb(68, 68, 68); stroke-opacity: 1;"/><g class="slicetext"><text data-notex="1" class="slicetext" transform="translate(317.5193933814503,189.12283411087526)" text-anchor="middle" x="0" y="0" style="font-family: 'Open Sans', verdana, arial, sans-serif; font-size: 12px; fill: rgb(42, 63, 95); fill-opacity: 1; white-space: pre;"><tspan class="line" dy="0em" x="0" y="0">Metalcore / Hardcore</tspan><tspan class="line" dy="1.3em" x="0" y="0">1.56%</tspan></text></g><path class="textline" stroke-width="1.5" d="M385.2342371314503,300.3345797385532V192.42752161087526h-8.15234375" fill="none" style="stroke: rgb(42, 63, 95); stroke-opacity: 1;"/></g><g class="slice"><path class="surface" d="M388.1900808423925,435.4828206137011a90,90 0 0 0 -4.381185599484311,0.5646434442003055l-20.53665713563769,-133.42880391314785a225,225 0 0 1 10.952963998710779,-1.411608610500764Z" style="pointer-events: all; stroke-width: 0; fill: rgb(118, 8, 239); fill-opacity: 1; stroke: rgb(68, 68, 68); stroke-opacity: 1;"/><g class="slicetext"><text data-notex="1" class="slicetext" transform="translate(333.3220893998424,221.73220911087526)" text-anchor="middle" x="0" y="0" style="font-family: 'Open Sans', verdana, arial, sans-serif; font-size: 12px; fill: rgb(42, 63, 95); fill-opacity: 1; white-space: pre;"><tspan class="line" dy="0em" x="0" y="0">Bluegrass</tspan><tspan class="line" dy="1.3em" x="0" y="0">0.781%</tspan></text></g><path class="textline" stroke-width="1.5" d="M368.7400581498424,301.84564592019376V225.03689661087526h-8.15234375" fill="none" style="stroke: rgb(42, 63, 95); stroke-opacity: 1;"/></g><g class="slice"><path class="surface" d="M383.8088952429082,436.04746405790144a90,90 0 0 0 -4.348202528925336,0.77893789460677l-27.05896092902569,-132.2603970712377a225,225 0 0 1 10.87050632231334,-1.947344736516925Z" style="pointer-events: all; stroke-width: 0; fill: rgb(243, 105, 0); fill-opacity: 1; stroke: rgb(68, 68, 68); stroke-opacity: 1;"/><g class="slicetext"><text data-notex="1" class="slicetext" transform="translate(323.00081683860435,254.34158411087526)" text-anchor="middle" x="0" y="0" style="font-family: 'Open Sans', verdana, arial, sans-serif; font-size: 12px; fill: rgb(42, 63, 95); fill-opacity: 1; white-space: pre;"><tspan class="line" dy="0em" x="0" y="0">Jam Band</tspan><tspan class="line" dy="1.3em" x="0" y="0">0.781%</tspan></text></g><path class="textline" stroke-width="1.5" d="M357.82503558860435,303.52562857306833V257.64627161087526h-8.15234375" fill="none" style="stroke: rgb(42, 63, 95); stroke-opacity: 1;"/></g><g class="slice"><path class="surface" d="M379.4606927139829,436.8264019525082a90,90 0 0 0 -4.304744257616614,0.9913558153982422l-33.51607731545061,-130.77336334814035a225,225 0 0 1 10.761860644041533,-2.4783895384956054Z" style="pointer-events: all; stroke-width: 0; fill: rgb(8, 136, 158); fill-opacity: 1; stroke: rgb(68, 68, 68); stroke-opacity: 1;"/><g class="slicetext"><text data-notex="1" class="slicetext" transform="translate(286.1188747417499,286.95095911087526)" text-anchor="middle" x="0" y="0" style="font-family: 'Open Sans', verdana, arial, sans-serif; font-size: 12px; fill: rgb(42, 63, 95); fill-opacity: 1; white-space: pre;"><tspan class="line" dy="0em" x="0" y="0">Pop / Baroque Pop</tspan><tspan class="line" dy="1.3em" x="0" y="0">0.781%</tspan></text></g></g></g></g><g class="treemaplayer"/><g class="sunburstlayer"/><g class="glimages"/><defs id="topdefs-bb78b5"><g class="clips"/></defs><g class="layer-above"><g class="imagelayer"/><g class="shapelayer"/></g><g class="infolayer"><g class="g-gtitle"><text class="gtitle" x="40" y="150" text-anchor="start" dy="0em" style="font-family: 'Open Sans', verdana, arial, sans-serif; font-size: 17px; fill: rgb(42, 63, 95); opacity: 1; font-weight: normal; white-space: pre;">u/MysteriousGear Top Genres</text></g></g></svg>