<svg class="main-svg" xmlns="http://www.w3.org/2000/svg" xmlns:xlink="http://www.w3.org/1999/xlink" width="800" height="800" style="" viewBox="0 0 800 800"><rect x="0" y="0" width="800" height="800" style="fill: rgb(176, 196, 222); fill-opacity: 1;"/><defs id="defs-073d9f"><g class="clips"/><g class="gradients"/></defs><g class="bglayer"/><g class="layer-below"><g class="imagelayer"/><g class="shapelayer"/></g><g class="cartesianlayer"/><g class="polarlayer"/><g class="ternarylayer"/><g class="geolayer"/><g class="funnelarealayer"/><g class="pielayer"><g class="trace" stroke-linejoin="round" style="opacity: 1;"><g class="slice"><path class="surface" d="M335.5043263282472,449.43402639339746a88.2,88.2 0 0 0 -42.940673144879696,42.791042921072865l-119.90452022494878,-55.91239602829453a220.5,220.5 0 0 1 107.35168286219924,-106.97760730268216Z" style="pointer-events: all; stroke-width: 0; fill: rgb(99, 110, 250); fill-opacity: 1; stroke: rgb(68, 68, 68); stroke-opacity: 1;"/><g class="slicetext"><text data-notex="1" class="slicetext" transform="translate(173.45297491535084,361.82557754149303)" text-anchor="middle" x="0" y="0" style="font-family: 'Open Sans', verdana, arial, sans-serif; font-size: 12px; fill: rgb(42, 63, 95); fill-opacity: 1; white-space: pre;"><tspan class="line" dy="0em" x="0" y="0">Surprise Me!</tspan><tspan class="line" dy="1.3em" x="0" y="0">11.2%</tspan></text></g></g><g class="slice"><path class="surface" d="M292.5636531833675,492.2250693144703a88.2,88.2 0 0 0 -6.64317076345144,54.10428407774094l-129.86927637012593,25.244030088316876a220.5,220.5 0 0 1 16.6079269086286,-135.26071019435236Z" style="pointer-events: all; stroke-width: 0; fill: rgb(239, 85, 59); fill-opacity: 1; stroke: rgb(68, 68, 68); stroke-opacity: 1;"/><g class="slicetext"><text data-notex="1" class="slicetext" transform="translate(132.1474798130885,499.0809628289228)" text-anchor="middle" x="0" y="0" style="font-family: 'Open Sans', verdana, arial, sans-serif; font-size: 12px; fill: rgb(42, 63, 95); fill-opacity: 1; white-space: pre;"><tspan class="line" dy="0em" x="0" y="0">Rock</tspan><tspan class="line" dy="1.3em" x="0" y="0">10%</tspan></text></g></g><g class="slice"><path class="surface" d="M285.920482419916,546.3293533922113a88.2,88.2 0 0 0 22.495631600443883,43.77176506073885l-96.12582896946012,90.90167767942513a220.5,220.5 0 0 1 -56.2390790011097,-109.42941265184712Z" style="pointer-events: all; stroke-width: 0; fill: rgb(0, 204, 150); fill-opacity: 1; stroke: rgb(68, 68, 68); stroke-opacity: 1;"/><g class="slicetext"><text data-notex="1" class="slicetext" transform="translate(118.71572093926886,630.3920826089488)" text-anchor="middle" x="0" y="0" style="font-family: 'Open Sans', verdana, arial, sans-serif; font-size: 12px; fill: rgb(42, 63, 95); fill-opacity: 1; white-space: pre;"><tspan class="line" dy="0em" x="0" y="0">Indie / Alternative</tspan><tspan class="line" dy="1.3em" x="0" y="0">9%</tspan></text></g></g><g class="slice"><path class="surface" d="M308.41611402035994,590.1011184529501a88.2,88.2 0 0 0 41.55357012970336,24.67270442196323l-33.79547377490509,127.91073431236998a220.5,220.5 0 0 1 -103.88392532425839,-61.681761054908065Z" style="pointer-events: all; stroke-width: 0; fill: rgb(171, 99, 250); fill-opacity: 1; stroke: rgb(68, 68, 68); stroke-opacity: 1;"/><g class="slicetext"><text data-notex="1" class="slicetext" transform="translate(224.44481785049095,727.8475427133686)" text-anchor="middle" x="0" y="0" style="font-family: 'Open Sans', verdana, arial, sans-serif; font-size: 12px; fill: rgb(42, 63, 95); fill-opacity: 1; white-space: pre;"><tspan class="line" dy="0em" x="0" y="0">Electronic</tspan><tspan class="line" dy="1.3em" x="0" y="0">8.83%</tspan></text></g></g><g class="slice"><path class="surface" d="M349.96968415006324,614.7738228749133a88.2,88.2 0 0 0 40.26538849501079,1.124714139748835l26.602608967611086,129.59780552199322a220.5,220.5 0 0 1 -100.66347123752696,-2.8117853493720872Z" style="pointer-events: all; stroke-width: 0; fill: rgb(255, 161, 90); fill-opacity: 1; stroke: rgb(68, 68, 68); stroke-opacity: 1;"/><g class="slicetext"><text data-notex="1" class="slicetext" transform="translate(317.47218491145304,762.9013189400223)" text-anchor="middle" x="0" y="0" style="font-family: 'Open Sans', verdana, arial, sans-serif; font-size: 12px; fill: rgb(42, 63, 95); fill-opacity: 1; white-space: pre;"><tspan class="line" dy="0em" x="0" y="0">Jazz / Big Band</tspan><tspan class="line" dy="1.3em" x="0" y="0">7.33%</tspan></text></g></g><g class="slice"><path class="surface" d="M390.23507264507407,615.8985370146622a88.2,88.2 0 0 0 35.0988087440006,-15.774030096983859l79.25082208361198,105.93676037651744a220.5,220.5 0 0 1 -87.7470218600015,39.43507524245965Z" style="pointer-events: all; stroke-width: 0; fill: rgb(25, 211, 243); fill-opacity: 1; stroke: rgb(68, 68, 68); stroke-opacity: 1;"/><g class="slicetext"><text data-notex="1" class="slicetext" transform="translate(548.5247477120668,740.8826965761629)" text-anchor="middle" x="0" y="0" style="font-family: 'Open Sans', verdana, arial, sans-serif; font-size: 12px; fill: rgb(42, 63, 95); fill-opacity: 1; white-space: pre;"><tspan class="line" dy="0em" x="0" y="0">Avant-Garde / Experimental</tspan><tspan class="line" dy="1.3em" x="0" y="0">7%</tspan></text></g></g><g class="slice"><path class="surface" d="M425.3338813890747,600.1245069176783a88.2,88.2 0 0 0 20.799700150757783,-22.07210564218167l110.45037230974866,72.82860191324494a220.5,220.5 0 0 1 -51.99925037689445,55.18026410545417Z" style="pointer-events: all; stroke-width: 0; fill: rgb(255, 102, 146); fill-opacity: 1; stroke: rgb(68, 68, 68); stroke-opacity: 1;"/><g class="slicetext"><text data-notex="1" class="slicetext" transform="translate(610.2199868134148,685.0871171265294)" text-anchor="middle" x="0" y="0" style="font-family: 'Open Sans', verdana, arial, sans-serif; font-size: 12px; fill: rgb(42, 63, 95); fill-opacity: 1; white-space: pre;"><tspan class="line" dy="0em" x="0" y="0">Psychedelic / Space Rock</tspan><tspan class="line" dy="1.3em" x="0" y="0">5.5%</tspan></text></g></g><g class="slice"><path class="surface" d="M446.13358153983245,578.0524012754967a88.2,88.2 0 0 0 8.485541419242532,-16.370268896918503l123.17868443861245,48.27319856786719a220.5,220.5 0 0 1 -21.21385354810633,40.92567224229626Z" style="pointer-events: all; stroke-width: 0; fill: rgb(182, 232, 128); fill-opacity: 1; stroke: rgb(68, 68, 68); stroke-opacity: 1;"/><g class="slicetext"><text data-notex="1" class="slicetext" transform="translate(601.1656361725765,631.1224344048146)" text-anchor="middle" x="0" y="0" style="font-family: 'Open Sans', verdana, arial, sans-serif; font-size: 12px; fill: rgb(42, 63, 95); fill-opacity: 1; white-space: pre;"><tspan class="line" dy="0em" x="0" y="0">Alt Metal</tspan><tspan class="line" dy="1.3em" x="0" y="0">3.33%</tspan></text></g></g><g class="slice"><path class="surface" d="M454.61912295907496,561.6821323785781a88.2,88.2 0 0 0 4.74092085660177,-16.866363108354797l130.2900657235151,22.973653905334995a220.5,220.5 0 0 1 -11.852302141504424,42.16590777088699Z" style="pointer-events: all; stroke-width: 0; fill: rgb(255, 151, 255); fill-opacity: 1; stroke: rgb(68, 68, 68); stroke-opacity: 1;"/><g class="slicetext"><text data-notex="1" class="slicetext" transform="translate(634.0664988370386,587.0566150802031)" text-anchor="middle" x="0" y="0" style="font-family: 'Open Sans', verdana, arial, sans-serif; font-size: 12px; fill: rgb(42, 63, 95); fill-opacity: 1; white-space: pre;"><tspan class="line" dy="0em" x="0" y="0">Rap &amp; Hip Hop</tspan><tspan class="line" dy="1.3em" x="0" y="0">3.17%</tspan></text></g></g><g class="slice"><path class="surface" d="M459.36004381567676,544.8157692702233a88.2,88.2 0 0 0 1.3265228971169678,-13.776467022454847l132.27985006919056,2.3089533716527244a220.5,220.5 0 0 1 -3.316307242792419,34.44116755613712Z" style="pointer-events: all; stroke-width: 0; fill: rgb(254, 203, 82); fill-opacity: 1; stroke: rgb(68, 68, 68); stroke-opacity: 1;"/><g class="slicetext"><text data-notex="1" class="slicetext" transform="translate(641.1997054899629,547.4790824469001)" text-anchor="middle" x="0" y="0" style="font-family: 'Open Sans', verdana, arial, sans-serif; font-size: 12px; fill: rgb(42, 63, 95); fill-opacity: 1; white-space: pre;"><tspan class="line" dy="0em" x="0" y="0">Doom / Stoner</tspan><tspan class="line" dy="1.3em" x="0" y="0">2.5%</tspan></text></g></g><g class="slice"><path class="surface" d="M460.6865667127937,531.0393022477684a88.2,88.2 0 0 0 -0.8449230497872009,-13.814369752446257l131.01246549450974,-18.41260125701666a220.5,220.5 0 0 1 2.112307624468002,34.53592438111564Z" style="pointer-events: all; stroke-width: 0; fill: rgb(198, 202, 253); fill-opacity: 1; stroke: rgb(68, 68, 68); stroke-opacity: 1;"/><g class="slicetext"><text data-notex="1" class="slicetext" transform="translate(628.2410668020217,512.6733431984838)" text-anchor="middle" x="0" y="0" style="font-family: 'Open Sans', verdana, arial, sans-serif; font-size: 12px; fill: rgb(42, 63, 95); fill-opacity: 1; white-space: pre;"><tspan class="line" dy="0em" x="0" y="0">Post-Rock</tspan><tspan class="line" dy="1.3em" x="0" y="0">2.5%</tspan></text></g></g><g class="slice"><path class="surface" d="M459.8416436630065,517.2249324953223a88.2,88.2 0 0 0 -2.7301511085734207,-12.62744898886391l126.91723883164963,-37.353774740312524a220.5,220.5 0 0 1 6.825377771433551,31.56862247215977Z" style="pointer-events: all; stroke-width: 0; fill: rgb(247, 167, 153); fill-opacity: 1; stroke: rgb(68, 68, 68); stroke-opacity: 1;"/><g class="slicetext"><text data-notex="1" class="slicetext" transform="translate(663.7506734400841,478.8700573819872)" text-anchor="middle" x="0" y="0" style="font-family: 'Open Sans', verdana, arial, sans-serif; font-size: 12px; fill: rgb(42, 63, 95); fill-opacity: 1; white-space: pre;"><tspan class="line" dy="0em" x="0" y="0">Virtuoso Instrumentalist</tspan><tspan class="line" dy="1.3em" x="0" y="0">2.33%</tspan></text></g></g><g class="slice"><path class="surface" d="M457.1114925544331,504.59748350645833a88.2,88.2 0 0 0 -4.545518947830522,-12.093157178211099l120.09896040990384,-55.49351050762917a220.5,220.5 0 0 1 11.363797369576304,30.232892945527745Z" style="pointer-events: all; stroke-width: 0; fill: rgb(51, 255, 201); fill-opacity: 1; stroke: rgb(68, 68, 68); stroke-opacity: 1;"/><g class="slicetext"><text data-notex="1" class="slicetext" transform="translate(616.5065963804436,446.2606823819872)" text-anchor="middle" x="0" y="0" style="font-family: 'Open Sans', verdana, arial, sans-serif; font-size: 12px; fill: rgb(42, 63, 95); fill-opacity: 1; white-space: pre;"><tspan class="line" dy="0em" x="0" y="0">Math Rock</tspan><tspan class="line" dy="1.3em" x="0" y="0">2.33%</tspan></text></g><path class="textline" stroke-width="1.5" d="M578.9011276304436,451.9189165267633V449.5653698819872h8.15234375" fill="none" style="stroke: rgb(42, 63, 95); stroke-opacity: 1;"/></g><g class="slice"><path class="surface" d="M452.5659736066026,492.5043263282472a88.2,88.2 0 0 0 -5.761672190572142,-10.523909565852541l111.45645212404563,-71.27937485640798a220.5,220.5 0 0 1 14.404180476430355,26.30977391463135Z" style="pointer-events: all; stroke-width: 0; fill: rgb(224, 198, 253); fill-opacity: 1; stroke: rgb(68, 68, 68); stroke-opacity: 1;"/><g class="slicetext"><text data-notex="1" class="slicetext" transform="translate(590.8911978470824,413.6513073819872)" text-anchor="middle" x="0" y="0" style="font-family: 'Open Sans', verdana, arial, sans-serif; font-size: 12px; fill: rgb(42, 63, 95); fill-opacity: 1; white-space: pre;"><tspan class="line" dy="0em" x="0" y="0">Funk</tspan><tspan class="line" dy="1.3em" x="0" y="0">2.17%</tspan></text></g><path class="textline" stroke-width="1.5" d="M565.9107290970824,423.6107188137769V416.9559948819872h8.15234375" fill="none" style="stroke: rgb(42, 63, 95); stroke-opacity: 1;"/></g><g class="slice"><path class="surface" d="M446.8043014160304,481.98041676239467a88.2,88.2 0 0 0 -6.541694635081615,-8.938092256967696l101.6439101714232,-84.68651324185952a220.5,220.5 0 0 1 16.354236587704037,22.34523064241924Z" style="pointer-events: all; stroke-width: 0; fill: rgb(255, 219, 192); fill-opacity: 1; stroke: rgb(68, 68, 68); stroke-opacity: 1;"/><g class="slicetext"><text data-notex="1" class="slicetext" transform="translate(574.3527175777084,381.0419323819872)" text-anchor="middle" x="0" y="0" style="font-family: 'Open Sans', verdana, arial, sans-serif; font-size: 12px; fill: rgb(42, 63, 95); fill-opacity: 1; white-space: pre;"><tspan class="line" dy="0em" x="0" y="0">Metal</tspan><tspan class="line" dy="1.3em" x="0" y="0">2%</tspan></text></g><path class="textline" stroke-width="1.5" d="M550.4347488277084,399.2714502898065V384.3466198819872h8.15234375" fill="none" style="stroke: rgb(42, 63, 95); stroke-opacity: 1;"/></g><g class="slice"><path class="surface" d="M440.26260678094883,473.04232450542696a88.2,88.2 0 0 0 -6.938163023462676,-7.414282684211571l91.23666563622919,-95.80793726817687a220.5,220.5 0 0 1 17.34540755865669,18.535706710528927Z" style="pointer-events: all; stroke-width: 0; fill: rgb(122, 230, 248); fill-opacity: 1; stroke: rgb(68, 68, 68); stroke-opacity: 1;"/><g class="slicetext"><text data-notex="1" class="slicetext" transform="translate(629.684375744876,348.4325573819872)" text-anchor="middle" x="0" y="0" style="font-family: 'Open Sans', verdana, arial, sans-serif; font-size: 12px; fill: rgb(42, 63, 95); fill-opacity: 1; white-space: pre;"><tspan class="line" dy="0em" x="0" y="0">Post-Hardcore / Emo / Screamo</tspan><tspan class="line" dy="1.3em" x="0" y="0">1.83%</tspan></text></g><path class="textline" stroke-width="1.5" d="M533.500781994876,378.8381329033839V351.7372448819872h8.15234375" fill="none" style="stroke: rgb(42, 63, 95); stroke-opacity: 1;"/></g><g class="slice"><path class="surface" d="M433.32444375748616,465.6280418212154a88.2,88.2 0 0 0 -7.744358715475403,-6.567693807386593l79.62012756301608,-105.65947797925676a220.5,220.5 0 0 1 19.360896788688507,16.41923451846648Z" style="pointer-events: all; stroke-width: 0; fill: rgb(255, 204, 219); fill-opacity: 1; stroke: rgb(68, 68, 68); stroke-opacity: 1;"/><g class="slicetext"><text data-notex="1" class="slicetext" transform="translate(565.7382401320565,315.8231823819872)" text-anchor="middle" x="0" y="0" style="font-family: 'Open Sans', verdana, arial, sans-serif; font-size: 12px; fill: rgb(42, 63, 95); fill-opacity: 1; white-space: pre;"><tspan class="line" dy="0em" x="0" y="0">Punk &amp; Grunge</tspan><tspan class="line" dy="1.3em" x="0" y="0">1.83%</tspan></text></g><path class="textline" stroke-width="1.5" d="M515.1171463820565,361.33163330210084V319.1278698819872h8.15234375" fill="none" style="stroke: rgb(42, 63, 95); stroke-opacity: 1;"/></g><g class="slice"><path class="surface" d="M425.58008504201075,459.06034801382884a88.2,88.2 0 0 0 -8.447907046524007,-5.634053637908892l66.94826699323008,-114.1105584361201a220.5,220.5 0 0 1 21.119767616310014,14.08513409477223Z" style="pointer-events: all; stroke-width: 0; fill: rgb(232, 248, 214); fill-opacity: 1; stroke: rgb(68, 68, 68); stroke-opacity: 1;"/><g class="slicetext"><text data-notex="1" class="slicetext" transform="translate(555.2455400022841,283.2138073819872)" text-anchor="middle" x="0" y="0" style="font-family: 'Open Sans', verdana, arial, sans-serif; font-size: 12px; fill: rgb(42, 63, 95); fill-opacity: 1; white-space: pre;"><tspan class="line" dy="0em" x="0" y="0">World / Traditional</tspan><tspan class="line" dy="1.3em" x="0" y="0">1.83%</tspan></text></g><path class="textline" stroke-width="1.5" d="M494.84319625228403,346.0541160702287V286.5184948819872h8.15234375" fill="none" style="stroke: rgb(42, 63, 95); stroke-opacity: 1;"/></g><g class="slice"><path class="surface" d="M417.1321779954867,453.42629437591995a88.2,88.2 0 0 0 -8.196367284962111,-4.248593259024733l54.65371606578692,-120.4834483246572a220.5,220.5 0 0 1 20.490918212405276,10.621483147561833Z" style="pointer-events: all; stroke-width: 0; fill: rgb(255, 253, 255); fill-opacity: 1; stroke: rgb(68, 68, 68); stroke-opacity: 1;"/><g class="slicetext"><text data-notex="1" class="slicetext" transform="translate(534.8607712948394,250.60443238198718)" text-anchor="middle" x="0" y="0" style="font-family: 'Open Sans', verdana, arial, sans-serif; font-size: 12px; fill: rgb(42, 63, 95); fill-opacity: 1; white-space: pre;"><tspan class="line" dy="0em" x="0" y="0">Pop / Baroque Pop</tspan><tspan class="line" dy="1.3em" x="0" y="0">1.67%</tspan></text></g><path class="textline" stroke-width="1.5" d="M473.9740525448394,333.73670757742354V253.90911988198718h8.15234375" fill="none" style="stroke: rgb(42, 63, 95); stroke-opacity: 1;"/></g><g class="slice"><path class="surface" d="M408.9358107105246,449.1777011168952a88.2,88.2 0 0 0 -7.7206994874033175,-3.0724394847549092l43.07266683468194,-125.09210755178957a220.5,220.5 0 0 1 19.301748718508293,7.681098711887273Z" style="pointer-events: all; stroke-width: 0; fill: rgb(255, 233, 183); fill-opacity: 1; stroke: rgb(68, 68, 68); stroke-opacity: 1;"/><g class="slicetext"><text data-notex="1" class="slicetext" transform="translate(501.25962872887953,217.99505738198718)" text-anchor="middle" x="0" y="0" style="font-family: 'Open Sans', verdana, arial, sans-serif; font-size: 12px; fill: rgb(42, 63, 95); fill-opacity: 1; white-space: pre;"><tspan class="line" dy="0em" x="0" y="0">Folk / Country</tspan><tspan class="line" dy="1.3em" x="0" y="0">1.5%</tspan></text></g><path class="textline" stroke-width="1.5" d="M454.02915997887953,324.6262679767407V221.29974488198718h8.15234375" fill="none" style="stroke: rgb(42, 63, 95); stroke-opacity: 1;"/></g><g class="slice"><path class="surface" d="M401.2151112231213,446.1052616321403a88.2,88.2 0 0 0 -7.9755768474727295,-2.332221883168029l31.109301563472847,-128.5904403765416a220.5,220.5 0 0 1 19.938942118681823,5.830554707920072Z" style="pointer-events: all; stroke-width: 0; fill: rgb(8, 25, 239); fill-opacity: 1; stroke: rgb(68, 68, 68); stroke-opacity: 1;"/><g class="slicetext"><text data-notex="1" class="slicetext" transform="translate(477.47685306703397,185.38568238198718)" text-anchor="middle" x="0" y="0" style="font-family: 'Open Sans', verdana, arial, sans-serif; font-size: 12px; fill: rgb(42, 63, 95); fill-opacity: 1; white-space: pre;"><tspan class="line" dy="0em" x="0" y="0">Blues &amp; Soul</tspan><tspan class="line" dy="1.3em" x="0" y="0">1.5%</tspan></text></g><path class="textline" stroke-width="1.5" d="M434.38700931703397,317.86293311947134V188.69036988198718h8.15234375" fill="none" style="stroke: rgb(42, 63, 95); stroke-opacity: 1;"/></g><g class="slice"><path class="surface" d="M393.2395343756486,443.7730397489722a88.2,88.2 0 0 0 -5.423765105425153,-1.1330835646489845l22.97365390533512,-130.29006572351508a220.5,220.5 0 0 1 13.559412763562882,2.8327089116224613Z" style="pointer-events: all; stroke-width: 0; fill: rgb(181, 39, 15); fill-opacity: 1; stroke: rgb(68, 68, 68); stroke-opacity: 1;"/><g class="slicetext"><text data-notex="1" class="slicetext" transform="translate(486.7749731811151,152.77630738198718)" text-anchor="middle" x="0" y="0" style="font-family: 'Open Sans', verdana, arial, sans-serif; font-size: 12px; fill: rgb(42, 63, 95); fill-opacity: 1; white-space: pre;"><tspan class="line" dy="0em" x="0" y="0">Thrash &amp; Death Metal</tspan><tspan class="line" dy="1.3em" x="0" y="0">1%</tspan></text></g><path class="textline" stroke-width="1.5" d="M417.5913794311151,313.65974077804856V156.08099488198718h8.15234375" fill="none" style="stroke: rgb(42, 63, 95); stroke-opacity: 1;"/></g><g class="slice"><path class="surface" d="M387.8157692702234,442.6399561843233a88.2,88.2 0 0 0 -5.484209449625317,-0.7902866542878542l14.747339730897144,-131.47549570494687a220.5,220.5 0 0 1 13.710523624063292,1.9757166357196354Z" style="pointer-events: all; stroke-width: 0; fill: rgb(0, 102, 75); fill-opacity: 1; stroke: rgb(68, 68, 68); stroke-opacity: 1;"/><g class="slicetext"><text data-notex="1" class="slicetext" transform="translate(470.33639863206577,120.16693238198718)" text-anchor="middle" x="0" y="0" style="font-family: 'Open Sans', verdana, arial, sans-serif; font-size: 12px; fill: rgb(42, 63, 95); fill-opacity: 1; white-space: pre;"><tspan class="line" dy="0em" x="0" y="0">Classical / Orchestral</tspan><tspan class="line" dy="1.3em" x="0" y="0">1%</tspan></text></g><path class="textline" stroke-width="1.5" d="M403.94967988206577,311.2543410848326V123.47161988198718h8.15234375" fill="none" style="stroke: rgb(42, 63, 95); stroke-opacity: 1;"/></g><g class="slice"><path class="surface" d="M382.3315598205981,441.8496695300354a88.2,88.2 0 0 0 -5.523010124624784,-0.44437084354988204l6.462824543959969,-132.1420519702717a220.5,220.5 0 0 1 13.807525311561959,1.110927108874705Z" style="pointer-events: all; stroke-width: 0; fill: rgb(118, 8, 239); fill-opacity: 1; stroke: rgb(68, 68, 68); stroke-opacity: 1;"/><g class="slicetext"><text data-notex="1" class="slicetext" transform="translate(426.61745656451393,87.55755738198718)" text-anchor="middle" x="0" y="0" style="font-family: 'Open Sans', verdana, arial, sans-serif; font-size: 12px; fill: rgb(42, 63, 95); fill-opacity: 1; white-space: pre;"><tspan class="line" dy="0em" x="0" y="0">Post-Punk</tspan><tspan class="line" dy="1.3em" x="0" y="0">1%</tspan></text></g><path class="textline" stroke-width="1.5" d="M390.18386281451393,309.71025730039753V90.86224488198718h8.15234375" fill="none" style="stroke: rgb(42, 63, 95); stroke-opacity: 1;"/></g><g class="slice"><path class="surface" d="M376.80854969597334,441.40529868648554a88.2,88.2 0 0 0 -5.540014001885671,-0.09670130410617049l-1.847196458868537,-132.28710392643094a220.5,220.5 0 0 1 13.850035004714178,0.2417532602654262Z" style="pointer-events: all; stroke-width: 0; fill: rgb(243, 105, 0); fill-opacity: 1; stroke: rgb(68, 68, 68); stroke-opacity: 1;"/><g class="slicetext"><text data-notex="1" class="slicetext" transform="translate(444.0630993694216,54.94818238198718)" text-anchor="middle" x="0" y="0" style="font-family: 'Open Sans', verdana, arial, sans-serif; font-size: 12px; fill: rgb(42, 63, 95); fill-opacity: 1; white-space: pre;"><tspan class="line" dy="0em" x="0" y="0">Metalcore / Hardcore</tspan><tspan class="line" dy="1.3em" x="0" y="0">1%</tspan></text></g><path class="textline" stroke-width="1.5" d="M376.3482556194216,309.03358321801574V58.25286988198718h8.15234375" fill="none" style="stroke: rgb(42, 63, 95); stroke-opacity: 1;"/></g><g class="slice"><path class="surface" d="M371.26853569408763,441.3085973823794a88.2,88.2 0 0 0 -4.613893709367425,0.18531311426180538l-8.768037022919675,-132.00913425503825a220.5,220.5 0 0 1 11.534734273418563,-0.4632827856545134Z" style="pointer-events: all; stroke-width: 0; fill: rgb(8, 136, 158); fill-opacity: 1; stroke: rgb(68, 68, 68); stroke-opacity: 1;"/><g class="slicetext"><text data-notex="1" class="slicetext" transform="translate(328.96734599657117,18.02355342383686)" text-anchor="middle" x="0" y="0" style="font-family: 'Open Sans', verdana, arial, sans-serif; font-size: 12px; fill: rgb(42, 63, 95); fill-opacity: 1; white-space: pre;"><tspan class="line" dy="0em" x="0" y="0">Industrial</tspan><tspan class="line" dy="1.3em" x="0" y="0">0.833%</tspan></text></g><path class="textline" stroke-width="1.5" d="M363.65093974657117,309.1776358772646V21.32824092383686h-8.15234375" fill="none" style="stroke: rgb(42, 63, 95); stroke-opacity: 1;"/></g><g class="slice"><path class="surface" d="M366.65464198472023,441.49391049664115a88.2,88.2 0 0 0 -4.597871989353399,0.4265316883622404l-15.664845006949772,-131.36933672249486a220.5,220.5 0 0 1 11.494679973383496,-1.066329220905601Z" style="pointer-events: all; stroke-width: 0; fill: rgb(255, 0, 73); fill-opacity: 1; stroke: rgb(68, 68, 68); stroke-opacity: 1;"/><g class="slicetext"><text data-notex="1" class="slicetext" transform="translate(313.63619171803373,50.63292842383686)" text-anchor="middle" x="0" y="0" style="font-family: 'Open Sans', verdana, arial, sans-serif; font-size: 12px; fill: rgb(42, 63, 95); fill-opacity: 1; white-space: pre;"><tspan class="line" dy="0em" x="0" y="0">Proto-Prog</tspan><tspan class="line" dy="1.3em" x="0" y="0">0.833%</tspan></text></g><path class="textline" stroke-width="1.5" d="M352.13228546803373,309.9427040502996V53.93761592383686h-8.15234375" fill="none" style="stroke: rgb(42, 63, 95); stroke-opacity: 1;"/></g><g class="slice"><path class="surface" d="M362.05676999536684,441.9204421850034a88.2,88.2 0 0 0 -4.569247821810717,0.6665811687527367l-22.518716739665848,-130.36946496936577a220.5,220.5 0 0 1 11.423119554526792,-1.6664529218818416Z" style="pointer-events: all; stroke-width: 0; fill: rgb(132, 216, 42); fill-opacity: 1; stroke: rgb(68, 68, 68); stroke-opacity: 1;"/><g class="slicetext"><text data-notex="1" class="slicetext" transform="translate(305.84523892928587,83.24230342383686)" text-anchor="middle" x="0" y="0" style="font-family: 'Open Sans', verdana, arial, sans-serif; font-size: 12px; fill: rgb(42, 63, 95); fill-opacity: 1; white-space: pre;"><tspan class="line" dy="0em" x="0" y="0">Jam Band</tspan><tspan class="line" dy="1.3em" x="0" y="0">0.833%</tspan></text></g><path class="textline" stroke-width="1.5" d="M340.66945767928587,311.30956351029215V86.54699092383686h-8.15234375" fill="none" style="stroke: rgb(42, 63, 95); stroke-opacity: 1;"/></g><g class="slice"><path class="surface" d="M357.4875221735561,442.58702335375614a88.2,88.2 0 0 0 -4.528099663592971,0.9048035964931387l-29.310866235055304,-129.01225957462606a220.5,220.5 0 0 1 11.320249158982428,-2.2620089912328467Z" style="pointer-events: all; stroke-width: 0; fill: rgb(255, 49, 255); fill-opacity: 1; stroke: rgb(68, 68, 68); stroke-opacity: 1;"/><g class="slicetext"><text data-notex="1" class="slicetext" transform="translate(293.87590644452524,115.85167842383686)" text-anchor="middle" x="0" y="0" style="font-family: 'Open Sans', verdana, arial, sans-serif; font-size: 12px; fill: rgb(42, 63, 95); fill-opacity: 1; white-space: pre;"><tspan class="line" dy="0em" x="0" y="0">Bluegrass</tspan><tspan class="line" dy="1.3em" x="0" y="0">0.833%</tspan></text></g><path class="textline" stroke-width="1.5" d="M329.29387519452524,313.27446779047176V119.15636592383686h-8.15234375" fill="none" style="stroke: rgb(42, 63, 95); stroke-opacity: 1;"/></g><g class="slice"><path class="surface" d="M352.95942250996313,443.4918269502493a88.2,88.2 0 0 0 -4.4745402989416645,1.140546020467707l-36.0226766834678,-127.3014405439245a220.5,220.5 0 0 1 11.186350747354162,-2.8513650511692674Z" style="pointer-events: all; stroke-width: 0; fill: rgb(233, 164, 1); fill-opacity: 1; stroke: rgb(68, 68, 68); stroke-opacity: 1;"/><g class="slicetext"><text data-notex="1" class="slicetext" transform="translate(267.7906239446355,148.46105342383686)" text-anchor="middle" x="0" y="0" style="font-family: 'Open Sans', verdana, arial, sans-serif; font-size: 12px; fill: rgb(42, 63, 95); fill-opacity: 1; white-space: pre;"><tspan class="line" dy="0em" x="0" y="0">Gothic Country</tspan><tspan class="line" dy="1.3em" x="0" y="0">0.833%</tspan></text></g><path class="textline" stroke-width="1.5" d="M318.0367176946355,315.83203122478517V151.76574092383686h-8.15234375" fill="none" style="stroke: rgb(42, 63, 95); stroke-opacity: 1;"/></g><g class="slice"><path class="surface" d="M348.48488221102144,444.632372970717a88.2,88.2 0 0 0 -3.532822023800185,1.0800920848085866l-41.321909719168076,-125.68130241671162a220.5,220.5 0 0 1 8.832055059500462,-2.7002302120214665Z" style="pointer-events: all; stroke-width: 0; fill: rgb(99, 110, 250); fill-opacity: 1; stroke: rgb(68, 68, 68); stroke-opacity: 1;"/><g class="slicetext"><text data-notex="1" class="slicetext" transform="translate(279.6140703586369,181.07042842383686)" text-anchor="middle" x="0" y="0" style="font-family: 'Open Sans', verdana, arial, sans-serif; font-size: 12px; fill: rgb(42, 63, 95); fill-opacity: 1; white-space: pre;"><tspan class="line" dy="0em" x="0" y="0">Djent</tspan><tspan class="line" dy="1.3em" x="0" y="0">0.667%</tspan></text></g><path class="textline" stroke-width="1.5" d="M308.0320391086369,318.6348013101506V184.37511592383686h-8.15234375" fill="none" style="stroke: rgb(42, 63, 95); stroke-opacity: 1;"/></g><g class="slice"><path class="surface" d="M344.95206018722126,445.71246505552557a88.2,88.2 0 0 0 -3.484493576515729,1.2270838922968779l-46.54865008394167,-123.84067657826631a220.5,220.5 0 0 1 8.711233941289322,-3.0677097307421946Z" style="pointer-events: all; stroke-width: 0; fill: rgb(239, 85, 59); fill-opacity: 1; stroke: rgb(68, 68, 68); stroke-opacity: 1;"/><g class="slicetext"><text data-notex="1" class="slicetext" transform="translate(233.23112666964397,213.67980342383686)" text-anchor="middle" x="0" y="0" style="font-family: 'Open Sans', verdana, arial, sans-serif; font-size: 12px; fill: rgb(42, 63, 95); fill-opacity: 1; white-space: pre;"><tspan class="line" dy="0em" x="0" y="0">Acoustic &amp; Flamenco</tspan><tspan class="line" dy="1.3em" x="0" y="0">0.667%</tspan></text></g><path class="textline" stroke-width="1.5" d="M299.25847041964397,321.5194039225538V216.98449092383686h-8.15234375" fill="none" style="stroke: rgb(42, 63, 95); stroke-opacity: 1;"/></g><g class="slice"><path class="surface" d="M341.46756661070555,446.93954894782246a88.2,88.2 0 0 0 -2.5779738047994614,1.0154908875714115l-50.415610791140864,-122.31744024690919a220.5,220.5 0 0 1 6.444934511998653,-2.5387272189285284Z" style="pointer-events: all; stroke-width: 0; fill: rgb(0, 204, 150); fill-opacity: 1; stroke: rgb(68, 68, 68); stroke-opacity: 1;"/><g class="slicetext"><text data-notex="1" class="slicetext" transform="translate(254.1435107572931,246.28917842383686)" text-anchor="middle" x="0" y="0" style="font-family: 'Open Sans', verdana, arial, sans-serif; font-size: 12px; fill: rgb(42, 63, 95); fill-opacity: 1; white-space: pre;"><tspan class="line" dy="0em" x="0" y="0">New Wave</tspan><tspan class="line" dy="1.3em" x="0" y="0">0.5%</tspan></text></g><path class="textline" stroke-width="1.5" d="M291.6864795072931,324.34292625996335V249.59386592383686h-8.15234375" fill="none" style="stroke: rgb(42, 63, 95); stroke-opacity: 1;"/></g><g class="slice"><path class="surface" d="M338.8895928059061,447.95503983539385a88.2,88.2 0 0 0 -1.7003774774240015,0.7217674172164948l-52.96617700727686,-121.23478912108445a220.5,220.5 0 0 1 4.250943693560004,-1.804418543041237Z" style="pointer-events: all; stroke-width: 0; fill: rgb(171, 99, 250); fill-opacity: 1; stroke: rgb(68, 68, 68); stroke-opacity: 1;"/><g class="slicetext"><text data-notex="1" class="slicetext" transform="translate(228.34769241811574,278.89855342383686)" text-anchor="middle" x="0" y="0" style="font-family: 'Open Sans', verdana, arial, sans-serif; font-size: 12px; fill: rgb(42, 63, 95); fill-opacity: 1; white-space: pre;"><tspan class="line" dy="0em" x="0" y="0">Math Rock / Djent</tspan><tspan class="line" dy="1.3em" x="0" y="0">0.333%</tspan></text></g><path class="textline" stroke-width="1.5" d="M286.34378616811574,326.52867981373663V282.20324092383686h-8.15234375" fill="none" style="stroke: rgb(42, 63, 95); stroke-opacity: 1;"/></g><g class="slice"><path class="surface" d="M337.1892153284821,448.6768072526104a88.2,88.2 0 0 0 -1.6848890002347219,0.7572191407870037l-55.49351050762895,-120.09896040990394a220.5,220.5 0 0 1 4.212222500586805,-1.8930478519675091Z" style="pointer-events: all; stroke-width: 0; fill: rgb(255, 161, 90); fill-opacity: 1; stroke: rgb(68, 68, 68); stroke-opacity: 1;"/><g class="slicetext"><text data-notex="1" class="slicetext" transform="translate(219.4440022879337,311.50792842383686)" text-anchor="middle" x="0" y="0" style="font-family: 'Open Sans', verdana, arial, sans-serif; font-size: 12px; fill: rgb(42, 63, 95); fill-opacity: 1; white-space: pre;"><tspan class="line" dy="0em" x="0" y="0">House / EDM / Trap</tspan><tspan class="line" dy="1.3em" x="0" y="0">0.333%</tspan></text></g></g></g></g><g class="treemaplayer"/><g class="sunburstlayer"/><g class="glimages"/><defs id="topdefs-073d9f"><g class="clips"/></defs><g class="layer-above"><g class="imagelayer"/><g class="shapelayer"/></g><g class="infolayer"><g class="g-gtitle"><text class="gtitle" x="40" y="154.5" text-anchor="start" dy="0em" style="font-family: 'Open Sans', verdana, arial, sans-serif; font-size: 17px; fill: rgb(42, 63, 95); opacity: 1; font-weight: normal; white-space: pre;">r/nearprog Top Genres</text></g></g></svg>